<!-- Generated by IcoMoon.io -->
<svg
  version="1.1"
  xmlns="http://www.w3.org/2000/svg"
  width="100%"
  height="100%"
  viewBox="0 0 32 32"
>
<title>drinks</title>
<path
    d="M7.734 2.7c-0.262 0-0.475 0.213-0.475 0.475v0.201c0 0.262 0.213 0.475 0.475 0.475s0.475-0.213 0.475-0.475v-0.201c-0-0.262-0.213-0.475-0.475-0.475z"
  />
<path
    d="M6.354 4.281h-0.201c-0.262 0-0.475 0.213-0.475 0.475s0.213 0.475 0.475 0.475h0.201c0.262 0 0.475-0.213 0.475-0.475s-0.213-0.475-0.475-0.475z"
  />
<path
    d="M7.094 3.444l-0.142-0.142c-0.185-0.185-0.486-0.185-0.671 0s-0.185 0.486 0 0.671l0.142 0.142c0.093 0.093 0.214 0.139 0.336 0.139s0.243-0.046 0.336-0.139c0.185-0.185 0.185-0.486-0-0.671z"
  />
<path
    d="M7.094 5.396c-0.185-0.185-0.486-0.185-0.671 0l-0.142 0.142c-0.185 0.185-0.185 0.486 0 0.671 0.093 0.093 0.214 0.139 0.336 0.139s0.243-0.046 0.336-0.139l0.142-0.142c0.186-0.185 0.186-0.486 0-0.671z"
  />
<path
    d="M28.455 3.916h-16.040c-0.181-1.016-0.688-1.946-1.455-2.655-0.88-0.814-2.026-1.262-3.226-1.262-2.622 0-4.756 2.133-4.756 4.756s2.133 4.756 4.756 4.756c0.482 0 0.955-0.073 1.411-0.215 0.715 0.675 1.602 1.18 2.603 1.44 0.647 0.168 1.138 0.702 1.252 1.36l0.604 3.496c0.213 1.235 0.9 2.306 1.935 3.015 0.785 0.538 1.253 1.414 1.253 2.345v7.125c-0.362 0.229-0.594 0.633-0.594 1.078 0 0.014 0 0.027 0.001 0.041-1.186 0.242-2.163 0.466-2.905 0.664-0.505 0.135-0.886 0.254-1.165 0.364-0.26 0.102-0.744 0.293-0.744 0.736 0 0.595 0.773 0.696 1.394 0.778 0.534 0.070 1.273 0.128 2.198 0.174 1.562 0.076 3.144 0.089 3.16 0.089 0.001 0 0.002 0 0.004 0s0.002 0 0.004 0c0.016-0 1.598-0.013 3.16-0.089 0.925-0.045 1.664-0.104 2.198-0.174 0.621-0.082 1.394-0.183 1.394-0.778 0-0.47-0.434-0.713-2.018-1.129-0.96-0.252-2.156-0.506-3.015-0.68-0.001-0.343-0.137-0.663-0.375-0.899v-7.3c0-0.931 0.468-1.807 1.253-2.345 1.035-0.709 1.722-1.78 1.935-3.015l0.604-3.496c0.114-0.658 0.605-1.192 1.252-1.36 2.169-0.564 3.8-2.274 4.316-4.381 0.002-0.008 0.004-0.016 0.006-0.024 0.109-0.453 0.167-0.924 0.167-1.406v-0.443c0-0.312-0.254-0.566-0.566-0.566zM7.734 8.562c-2.099 0-3.806-1.707-3.806-3.806s1.708-3.806 3.806-3.806c0.96 0 1.877 0.359 2.581 1.010 0.572 0.528 0.963 1.21 1.131 1.957h-0.486c-0.376-1.448-1.695-2.494-3.226-2.494-1.838 0-3.334 1.496-3.334 3.334s1.496 3.334 3.334 3.334c0.137 0 0.274-0.009 0.411-0.026 0.091 0.149 0.189 0.293 0.292 0.433-0.231 0.043-0.466 0.065-0.703 0.065zM9.188 3.302c-0.185-0.185-0.486-0.185-0.671 0l-0.142 0.142c-0.128 0.128-0.168 0.31-0.119 0.472h-0.43c-0.312 0-0.566 0.254-0.566 0.566v0.443c0 0.482 0.058 0.952 0.167 1.405 0.002 0.009 0.004 0.017 0.006 0.026 0.066 0.267 0.149 0.529 0.249 0.782-1.291-0.028-2.332-1.086-2.332-2.383 0-1.315 1.070-2.385 2.385-2.385 1.009 0 1.889 0.635 2.232 1.545h-0.73c0.135-0.186 0.119-0.447-0.048-0.614zM19.606 30.068c1.669 0.336 2.717 0.59 3.373 0.774-1.2 0.118-3.124 0.195-4.838 0.208-1.714-0.013-3.638-0.090-4.838-0.208 0.627-0.176 1.613-0.416 3.158-0.731 0.427-0.087 0.723-0.487 0.688-0.93-0.001-0.008-0.001-0.017-0.001-0.026 0-0.147 0.099-0.276 0.242-0.315 0.208-0.056 0.352-0.244 0.352-0.459v-7.43c0-0.625-0.157-1.231-0.446-1.771 0.265 0.017 0.555 0.026 0.845 0.026s0.58-0.009 0.845-0.026c-0.289 0.539-0.446 1.145-0.446 1.771v7.526c0 0.163 0.084 0.314 0.221 0.401 0.096 0.061 0.153 0.164 0.153 0.276 0 0.007-0 0.014-0.001 0.021-0.027 0.424 0.27 0.807 0.692 0.892zM28.072 4.926h-0c0 0.285-0.024 0.566-0.070 0.841h-14.294c-0.262 0-0.475 0.213-0.475 0.475s0.213 0.475 0.475 0.475h14.036c-0.568 1.499-1.831 2.68-3.45 3.102-1.007 0.262-1.772 1.093-1.948 2.117l-0.604 3.496c-0.169 0.98-0.715 1.83-1.536 2.393-0.127 0.087-0.506 0.291-0.575 0.322-0.376 0.148-2.601 0.148-2.98 0-0.069-0.030-0.448-0.235-0.575-0.322-0.821-0.563-1.367-1.413-1.536-2.393l-0.604-3.496c-0.177-1.024-0.942-1.855-1.948-2.117-0.916-0.238-1.719-0.72-2.346-1.365-0.015-0.018-0.031-0.035-0.048-0.051-0.458-0.484-0.819-1.057-1.057-1.686h2.962c0.262 0 0.475-0.213 0.475-0.475s-0.213-0.475-0.475-0.475h-3.22c-0.046-0.274-0.070-0.555-0.070-0.841v-0.060h19.863v0.060z"
  />
</svg>
