<!-- Generated by IcoMoon.io -->
<svg version="1.1" xmlns="http://www.w3.org/2000/svg" fill="#DFE2EB" width="175" height="32" viewBox="0 0 175 32">
<title>kapusta-bg</title>
<path d="M12.276 14.393c0 0.548-0.119 1.086-0.356 1.61-0.274 0.604-0.609 1.184-0.998 1.724-0.017 0.024-0.035 0.046-0.054 0.067l0.468 0.581c0.033 0.040 0.036 0.097 0.009 0.141-0.012 0.020-0.308 0.498-0.78 0.902-0.474 0.406-0.939 0.584-0.959 0.591-0.043 0.016-0.091 0.007-0.125-0.023l-0.404-0.357c-0.010-0.009-0.018-0.019-0.024-0.029-0.355 0.182-1.017 0.427-2.105 0.516-0.964 0.078-1.755-0.044-2.35-0.362-0.032-0.017-0.084-0.042-0.14-0.070-0.096-0.047-0.196-0.095-0.251-0.128s-0.115-0.068-0.184-0.108c-0.532-0.307-1.522-0.879-2.276-2.186-0.639-1.107-0.706-1.659-0.765-2.145-0.035-0.289-0.065-0.539-0.216-0.875-0.383-0.855-0.696-1.026-0.699-1.028-0.031-0.016-0.055-0.046-0.063-0.080s-0.003-0.071 0.017-0.1c0.062-0.090 0.387-0.537 0.701-0.542 0.152-0.002 0.257 0.050 0.333 0.089 0.078 0.040 0.080 0.038 0.102 0.021 0.024-0.018 0.037-0.051 0.056-0.102 0.046-0.123 0.117-0.31 0.477-0.319 0.287-0.007 0.448 0.145 0.564 0.268 0.122-0.244 0.454-0.869 0.889-1.364 0.281-0.32 0.609-0.571 0.835-0.726 0.172-0.118 0.286-0.189 0.364-0.229-0.086-0.158-0.122-0.265-0.151-0.349-0.034-0.098-0.052-0.152-0.131-0.237-0.262-0.282-0.056-0.742-0.017-0.798 0.022-0.031 0.056-0.052 0.094-0.056 0.070-0.008 0.114 0.032 0.193 0.105 0.131 0.121 0.405 0.374 0.869 0.495 0.416 0.109 0.899 0.086 1.325 0.066 0.269-0.013 0.523-0.025 0.724-0 0.657 0.079 2.023 0.244 3.146 1.251 0.537 0.482 1.006 1.086 1.335 1.711 0.008 0.011 0.014 0.023 0.019 0.036 0.080 0.154 0.151 0.31 0.212 0.464 0.211 0.531 0.316 1.057 0.316 1.573zM11.961 15.066c0.172-0.916-0.034-1.808-0.427-2.586-0.11-0.054-0.477-0.21-1.033-0.198-0.655 0.014-0.862 0.127-0.864 0.128-0.058 0.033-0.133 0.014-0.167-0.043s-0.018-0.131 0.039-0.166c0.024-0.015 0.258-0.149 0.987-0.164 0.362-0.007 0.651 0.049 0.854 0.11-0.316-0.528-0.712-0.991-1.121-1.357-0.212-0.19-0.434-0.349-0.658-0.481-0.11 0.045-0.427 0.146-0.96 0.091-0.62-0.064-0.959-0.087-0.962-0.088-0.068-0.005-0.118-0.064-0.114-0.131 0.005-0.068 0.063-0.119 0.131-0.114 0.003 0 0.345 0.024 0.971 0.088 0.273 0.028 0.481 0.011 0.624-0.015-0.803-0.392-1.594-0.487-2.042-0.541-0.18-0.022-0.425-0.010-0.683 0.002-0.444 0.021-0.947 0.044-1.398-0.074-0.483-0.126-0.779-0.375-0.937-0.519-0.030 0.114-0.046 0.275 0.041 0.368 0.114 0.123 0.146 0.216 0.183 0.324 0.035 0.102 0.078 0.229 0.215 0.449 0.126 0.204 0.291 0.209 0.551 0.2 0.172-0.006 0.366-0.013 0.538 0.087 0.3 0.175 0.231 0.388 0.186 0.529-0.025 0.076-0.046 0.143-0.030 0.212 0.053 0.007 0.202-0.039 0.312-0.072 0.254-0.077 0.602-0.183 0.953-0.126 0.196 0.032 0.316 0.091 0.377 0.185 0.072 0.11 0.042 0.227 0.018 0.321-0.032 0.123-0.029 0.147 0.023 0.183 0.197 0.136 0.376 0.174 0.624 0.226 0.105 0.022 0.223 0.047 0.357 0.083 0.208 0.056 0.354 0.163 0.433 0.318 0.12 0.236 0.087 0.576-0.104 1.070-0.161 0.416-0.198 0.795-0.201 1.039 0 0.001 0 0.002 0 0.004 0 0.106 0.050 0.203 0.128 0.309 0.679 0.708 1.063 1.487 1.097 2.256 0.007 0.148 0.001 0.305-0.013 0.463 0.043 0.173 0.177 0.277 0.305 0.319 0.159 0.053 0.382 0.035 0.531-0.172 0.38-0.527 0.707-1.093 0.974-1.682 0.081-0.178 0.145-0.356 0.195-0.534-0.059-0.078-0.347-0.441-0.843-0.775-0.059 0.026-0.413 0.177-0.727 0.195-0.157 0.009-0.358 0.014-0.428-0.012l0.086-0.23c0 0-0.003-0.002-0.010-0.003 0.003 0.001 0.072 0.015 0.337-0 0.165-0.010 0.35-0.065 0.48-0.111-0.647-0.373-0.877-0.428-0.88-0.428-0.066-0.015-0.108-0.080-0.094-0.145s0.078-0.108 0.144-0.095c0.027 0.005 0.282 0.065 1.005 0.486 0.491 0.286 0.825 0.618 0.999 0.816zM9.586 19.751c0.14-0.062 0.48-0.23 0.819-0.52s0.585-0.628 0.683-0.773l-0.37-0.459c-0.129 0.168-0.339 0.438-0.487 0.61-0.391 0.455-0.842 0.783-0.861 0.797-0.008 0.006-0.016 0.010-0.024 0.014-0.019 0.014-0.044 0.032-0.075 0.053l0.315 0.278zM9.561 18.935c0.147-0.129 0.322-0.297 0.484-0.485 0.099-0.115 0.23-0.279 0.343-0.425-0.090 0.005-0.183-0.007-0.275-0.037-0.108-0.036-0.202-0.094-0.278-0.167-0.071 0.423-0.185 0.829-0.275 1.114zM9.205 19.218c0.062-0.168 0.356-1.003 0.434-1.771-0.009-0.048-0.013-0.098-0.012-0.148 0.004-0.237-0.013-0.463-0.051-0.673-0.141-0.769-0.562-1.27-0.814-1.569-0.044-0.053-0.084-0.1-0.117-0.142-0.010-0.013-0.021-0.027-0.031-0.040-0.205-0.212-0.438-0.417-0.697-0.614-1.027-0.778-1.518-0.73-1.754-0.706l-0.034 0.003c-0.061 0.005-0.172 0.040-0.289 0.076-0.304 0.094-0.721 0.223-1.028 0.101-0.284-0.112-0.309-0.399-0.334-0.676-0.018-0.199-0.036-0.404-0.142-0.564-0.228-0.343-0.814-0.17-1.124-0.014-0.123 0.062-0.215 0.138-0.296 0.205-0.139 0.115-0.284 0.234-0.501 0.18-0.139-0.035-0.229-0.131-0.315-0.224-0.11-0.118-0.205-0.22-0.402-0.215-0.195 0.005-0.216 0.060-0.253 0.16-0.025 0.067-0.057 0.15-0.139 0.212-0.146 0.11-0.27 0.047-0.361 0.001-0.065-0.033-0.126-0.064-0.218-0.062-0.115 0.002-0.301 0.179-0.431 0.339 0.146 0.125 0.405 0.416 0.695 1.064 0.166 0.37 0.199 0.65 0.235 0.946 0.056 0.463 0.119 0.988 0.733 2.052 0.722 1.25 1.639 1.78 2.187 2.096 0.070 0.041 0.134 0.078 0.189 0.111 0.044 0.027 0.147 0.077 0.23 0.117 0.060 0.029 0.115 0.056 0.149 0.074 0.512 0.274 1.19 0.391 2.016 0.347-0.619-0.184-1.539-0.558-2.394-1.301-1.433-1.244-2.216-3.66-2.248-3.763-0.020-0.065 0.015-0.134 0.080-0.154s0.134 0.015 0.154 0.080c0.007 0.023 0.719 2.22 1.975 3.466 0.080-0.242 0.239-0.802 0.15-1.192-0.037-0.16-0.071-0.299-0.102-0.421-0.076-0.303-0.131-0.521-0.141-0.779-0-0.002-0-0.003-0-0.005 0-0.066 0.052-0.12 0.118-0.122 0.068-0.003 0.125 0.050 0.127 0.118 0.009 0.221 0.057 0.42 0.124 0.687l0.23-0.239c0.047-0.049 0.125-0.050 0.174-0.004s0.051 0.125 0.004 0.173l-0.337 0.35c0.014 0.059 0.029 0.121 0.044 0.186 0.122 0.534-0.139 1.285-0.193 1.43 0.001 0.001 0.002 0.002 0.003 0.003 0.459 0.398 0.942 0.687 1.382 0.895-0.178-0.327-0.408-0.861-0.238-1.2 0.113-0.226 0.316-0.397 0.512-0.563 0.214-0.182 0.417-0.353 0.493-0.578 0.022-0.064 0.091-0.098 0.156-0.077s0.099 0.091 0.077 0.155c-0.098 0.289-0.336 0.491-0.567 0.686-0.084 0.071-0.165 0.14-0.238 0.211 0.16 0.051 0.461 0.137 0.708 0.14 0.351 0.004 0.847-0.171 0.852-0.173 0.064-0.023 0.134 0.011 0.157 0.074s-0.011 0.134-0.074 0.157c-0.022 0.008-0.543 0.191-0.938 0.187-0.347-0.004-0.765-0.145-0.875-0.184-0.016 0.024-0.030 0.048-0.042 0.073-0.153 0.306 0.239 1.009 0.389 1.231 0.006 0.008 0.010 0.017 0.013 0.026 0.699 0.277 1.217 0.344 1.226 0.345 0.001 0 0.002 0 0.003 0.001 1.111-0.169 1.608-0.507 1.713-0.587zM8.43 14.362c0.006-0.265 0.051-0.657 0.217-1.085 0.16-0.412 0.198-0.705 0.114-0.87-0.047-0.092-0.138-0.155-0.278-0.192-0.127-0.034-0.237-0.057-0.344-0.080-0.255-0.054-0.476-0.101-0.713-0.264-0.2-0.138-0.151-0.331-0.121-0.446 0.013-0.050 0.027-0.106 0.015-0.125-0.005-0.008-0.040-0.049-0.212-0.077-0.294-0.048-0.598 0.044-0.841 0.118-0.226 0.069-0.389 0.119-0.511 0.051-0.038-0.021-0.087-0.063-0.108-0.144-0.037-0.141 0.001-0.26 0.032-0.356 0.043-0.134 0.054-0.166-0.076-0.242-0.111-0.064-0.254-0.059-0.405-0.054-0.233 0.008-0.52 0.018-0.726-0.254-0.162 0.089-0.712 0.413-1.144 0.905-0.454 0.517-0.801 1.204-0.882 1.371 0.009 0.004 0.019 0.007 0.028 0.010 0.089 0.022 0.143-0.014 0.285-0.131 0.087-0.072 0.195-0.161 0.342-0.235 0.475-0.239 1.138-0.357 1.439 0.097 0.141 0.212 0.163 0.459 0.182 0.678 0.024 0.264 0.043 0.415 0.18 0.47 0.227 0.090 0.595-0.024 0.865-0.108 0.135-0.042 0.252-0.078 0.339-0.086l0.032-0.003c0.267-0.026 0.823-0.081 1.926 0.755 0.128 0.097 0.25 0.196 0.365 0.297z"></path>
<path d="M19.586 26.297c0-0.548 0.119-1.086 0.356-1.61 0.274-0.604 0.609-1.184 0.998-1.724 0.017-0.024 0.035-0.046 0.054-0.067l-0.468-0.581c-0.033-0.040-0.036-0.097-0.009-0.141 0.012-0.020 0.308-0.498 0.78-0.902 0.474-0.406 0.939-0.584 0.959-0.591 0.042-0.016 0.091-0.007 0.125 0.023l0.404 0.357c0.010 0.009 0.018 0.019 0.024 0.029 0.355-0.182 1.017-0.427 2.105-0.516 0.964-0.078 1.755 0.044 2.35 0.362 0.032 0.017 0.084 0.042 0.14 0.070 0.096 0.047 0.196 0.095 0.251 0.128s0.115 0.068 0.184 0.108c0.532 0.307 1.522 0.879 2.276 2.186 0.639 1.107 0.706 1.659 0.765 2.145 0.035 0.289 0.065 0.539 0.216 0.875 0.383 0.855 0.696 1.026 0.699 1.028 0.031 0.016 0.055 0.046 0.063 0.080s0.003 0.071-0.017 0.1c-0.062 0.090-0.387 0.537-0.701 0.542-0.152 0.002-0.257-0.050-0.333-0.089-0.078-0.039-0.080-0.038-0.102-0.021-0.024 0.018-0.037 0.050-0.056 0.102-0.046 0.124-0.117 0.31-0.477 0.319-0.287 0.007-0.448-0.145-0.564-0.268-0.122 0.244-0.454 0.869-0.889 1.364-0.281 0.32-0.609 0.571-0.835 0.726-0.172 0.118-0.286 0.189-0.364 0.229 0.086 0.158 0.122 0.265 0.151 0.349 0.034 0.098 0.052 0.152 0.131 0.237 0.262 0.282 0.056 0.742 0.017 0.798-0.022 0.031-0.056 0.052-0.094 0.056-0.070 0.008-0.114-0.032-0.193-0.105-0.131-0.121-0.405-0.374-0.869-0.495-0.416-0.109-0.899-0.086-1.325-0.066-0.269 0.013-0.523 0.025-0.724 0-0.657-0.079-2.023-0.244-3.146-1.251-0.537-0.482-1.006-1.086-1.335-1.711-0.008-0.011-0.014-0.023-0.019-0.036-0.080-0.154-0.151-0.31-0.212-0.465-0.211-0.531-0.316-1.057-0.316-1.574zM19.901 25.624c-0.172 0.916 0.034 1.808 0.427 2.586 0.11 0.054 0.477 0.21 1.033 0.198 0.655-0.014 0.862-0.127 0.864-0.128 0.058-0.033 0.133-0.014 0.167 0.043s0.018 0.131-0.039 0.166c-0.024 0.015-0.258 0.149-0.987 0.164-0.362 0.007-0.651-0.049-0.854-0.11 0.316 0.528 0.712 0.991 1.121 1.357 0.212 0.19 0.434 0.349 0.658 0.481 0.11-0.045 0.427-0.146 0.96-0.091 0.621 0.064 0.959 0.087 0.962 0.088 0.068 0.005 0.118 0.064 0.114 0.131s-0.063 0.119-0.131 0.114c-0.003-0-0.345-0.024-0.971-0.088-0.273-0.028-0.481-0.011-0.624 0.014 0.803 0.392 1.594 0.487 2.042 0.542 0.18 0.022 0.425 0.010 0.683-0.002 0.444-0.021 0.947-0.044 1.398 0.074 0.483 0.126 0.779 0.375 0.937 0.518 0.030-0.114 0.046-0.275-0.041-0.368-0.114-0.123-0.146-0.216-0.183-0.324-0.035-0.102-0.078-0.229-0.215-0.45-0.126-0.204-0.291-0.209-0.551-0.2-0.172 0.006-0.366 0.013-0.538-0.087-0.301-0.175-0.231-0.388-0.186-0.529 0.025-0.076 0.046-0.143 0.030-0.212-0.053-0.006-0.202 0.039-0.312 0.072-0.254 0.077-0.602 0.183-0.953 0.126-0.196-0.032-0.316-0.091-0.378-0.185-0.072-0.11-0.042-0.227-0.018-0.321 0.032-0.123 0.029-0.147-0.022-0.183-0.197-0.136-0.376-0.174-0.624-0.226-0.105-0.022-0.223-0.047-0.357-0.083-0.209-0.056-0.354-0.163-0.433-0.318-0.12-0.236-0.087-0.576 0.104-1.070 0.161-0.416 0.198-0.795 0.201-1.039 0-0.001 0-0.002 0-0.004 0-0.106-0.050-0.203-0.128-0.309-0.679-0.708-1.063-1.487-1.097-2.256-0.007-0.148-0.001-0.305 0.013-0.463-0.043-0.173-0.177-0.277-0.305-0.319-0.159-0.053-0.382-0.035-0.531 0.172-0.379 0.527-0.707 1.093-0.974 1.682-0.081 0.178-0.145 0.356-0.195 0.534 0.059 0.078 0.347 0.441 0.843 0.775 0.059-0.026 0.413-0.177 0.727-0.195 0.157-0.009 0.358-0.014 0.428 0.012l-0.086 0.23c0 0 0.003 0.002 0.010 0.003-0.003-0.001-0.072-0.015-0.337 0-0.165 0.010-0.35 0.065-0.48 0.111 0.647 0.373 0.877 0.428 0.88 0.428 0.066 0.015 0.108 0.080 0.094 0.145s-0.078 0.108-0.144 0.095c-0.027-0.005-0.282-0.065-1.005-0.486-0.491-0.286-0.825-0.618-0.999-0.816zM22.276 20.939c-0.14 0.062-0.48 0.23-0.819 0.52s-0.585 0.628-0.683 0.773l0.37 0.459c0.129-0.168 0.339-0.438 0.487-0.61 0.391-0.455 0.842-0.783 0.861-0.797 0.008-0.006 0.016-0.010 0.024-0.014 0.019-0.014 0.044-0.032 0.075-0.053l-0.315-0.278zM22.301 21.755c-0.147 0.129-0.322 0.297-0.484 0.485-0.099 0.115-0.23 0.279-0.343 0.425 0.090-0.005 0.183 0.007 0.274 0.037 0.108 0.036 0.202 0.094 0.278 0.167 0.071-0.423 0.185-0.829 0.275-1.114zM22.657 21.471c-0.062 0.168-0.356 1.003-0.434 1.771 0.009 0.048 0.013 0.098 0.012 0.148-0.004 0.237 0.013 0.463 0.051 0.673 0.141 0.769 0.562 1.27 0.814 1.569 0.044 0.053 0.084 0.1 0.117 0.142 0.010 0.013 0.021 0.027 0.031 0.040 0.205 0.212 0.438 0.417 0.697 0.614 1.027 0.778 1.518 0.73 1.754 0.706l0.034-0.003c0.061-0.005 0.172-0.040 0.289-0.076 0.304-0.094 0.721-0.223 1.028-0.101 0.284 0.112 0.309 0.399 0.334 0.676 0.018 0.199 0.036 0.404 0.142 0.564 0.228 0.343 0.814 0.17 1.124 0.014 0.123-0.062 0.215-0.138 0.296-0.205 0.139-0.115 0.284-0.234 0.501-0.18 0.139 0.035 0.229 0.131 0.315 0.224 0.11 0.118 0.205 0.22 0.402 0.215 0.195-0.005 0.216-0.060 0.253-0.16 0.025-0.067 0.057-0.15 0.139-0.212 0.146-0.11 0.27-0.047 0.361-0.001 0.065 0.033 0.126 0.064 0.218 0.062 0.115-0.002 0.301-0.179 0.431-0.339-0.146-0.125-0.405-0.416-0.695-1.064-0.166-0.37-0.199-0.65-0.235-0.946-0.056-0.463-0.119-0.988-0.734-2.052-0.722-1.25-1.639-1.78-2.187-2.096-0.070-0.041-0.134-0.078-0.189-0.111-0.044-0.027-0.147-0.077-0.23-0.117-0.060-0.029-0.115-0.056-0.149-0.074-0.512-0.274-1.19-0.391-2.016-0.347 0.619 0.184 1.539 0.558 2.394 1.301 1.433 1.244 2.216 3.66 2.248 3.763 0.020 0.065-0.015 0.134-0.080 0.154s-0.134-0.015-0.154-0.080c-0.007-0.023-0.719-2.22-1.975-3.466-0.080 0.242-0.239 0.802-0.15 1.192 0.037 0.16 0.071 0.299 0.102 0.421 0.076 0.303 0.131 0.521 0.141 0.779 0 0.002 0 0.003 0 0.005 0 0.066-0.052 0.12-0.118 0.122-0.068 0.003-0.125-0.050-0.127-0.118-0.009-0.221-0.057-0.42-0.124-0.687l-0.23 0.239c-0.047 0.049-0.125 0.050-0.174 0.004s-0.050-0.125-0.004-0.173l0.337-0.35c-0.014-0.059-0.029-0.121-0.044-0.186-0.122-0.534 0.139-1.285 0.193-1.43-0.001-0.001-0.002-0.002-0.003-0.003-0.459-0.398-0.942-0.687-1.382-0.895 0.178 0.327 0.408 0.861 0.238 1.2-0.113 0.226-0.315 0.397-0.512 0.563-0.214 0.182-0.417 0.353-0.493 0.578-0.022 0.064-0.091 0.098-0.156 0.077s-0.099-0.091-0.077-0.155c0.098-0.289 0.336-0.491 0.567-0.686 0.084-0.071 0.165-0.14 0.238-0.211-0.159-0.051-0.461-0.137-0.708-0.14-0.351-0.004-0.847 0.171-0.852 0.173-0.064 0.023-0.134-0.011-0.157-0.074s0.010-0.134 0.074-0.157c0.022-0.008 0.543-0.191 0.938-0.187 0.347 0.004 0.765 0.145 0.875 0.184 0.015-0.024 0.030-0.048 0.042-0.073 0.153-0.306-0.239-1.009-0.389-1.231-0.006-0.008-0.010-0.017-0.014-0.026-0.699-0.277-1.217-0.344-1.226-0.345-0.001-0-0.002-0-0.003-0.001-1.111 0.169-1.608 0.507-1.713 0.587zM23.432 26.327c-0.006 0.265-0.051 0.657-0.217 1.085-0.16 0.412-0.198 0.705-0.114 0.87 0.047 0.092 0.138 0.155 0.278 0.192 0.127 0.034 0.237 0.057 0.344 0.080 0.255 0.054 0.476 0.101 0.713 0.264 0.2 0.138 0.151 0.331 0.121 0.446-0.013 0.050-0.027 0.106-0.015 0.126 0.005 0.008 0.040 0.049 0.212 0.077 0.294 0.048 0.598-0.044 0.841-0.119 0.226-0.069 0.39-0.119 0.511-0.051 0.038 0.021 0.087 0.063 0.108 0.144 0.037 0.141-0.001 0.26-0.032 0.356-0.043 0.134-0.054 0.166 0.076 0.242 0.11 0.064 0.254 0.059 0.406 0.054 0.233-0.008 0.52-0.018 0.726 0.254 0.162-0.089 0.712-0.413 1.144-0.905 0.454-0.518 0.801-1.204 0.882-1.371-0.009-0.004-0.019-0.007-0.028-0.010-0.089-0.022-0.143 0.014-0.285 0.131-0.087 0.072-0.195 0.161-0.342 0.235-0.475 0.239-1.138 0.357-1.439-0.097-0.141-0.212-0.163-0.46-0.182-0.678-0.023-0.264-0.043-0.415-0.18-0.47-0.227-0.090-0.595 0.024-0.865 0.108-0.135 0.042-0.252 0.078-0.339 0.086l-0.032 0.003c-0.267 0.026-0.823 0.081-1.926-0.755-0.128-0.097-0.25-0.196-0.365-0.297z"></path>
<path d="M23.676 12.276c-0.548 0-1.086-0.119-1.61-0.356-0.604-0.274-1.184-0.609-1.724-0.998-0.024-0.017-0.046-0.035-0.067-0.054l-0.581 0.468c-0.040 0.033-0.097 0.036-0.141 0.009-0.020-0.012-0.498-0.308-0.902-0.78-0.406-0.474-0.584-0.939-0.591-0.959-0.016-0.043-0.007-0.091 0.023-0.125l0.357-0.404c0.009-0.010 0.019-0.018 0.029-0.024-0.182-0.355-0.427-1.017-0.516-2.105-0.078-0.964 0.044-1.755 0.362-2.35 0.017-0.032 0.042-0.084 0.070-0.14 0.047-0.096 0.095-0.196 0.128-0.251s0.068-0.115 0.108-0.184c0.307-0.532 0.879-1.522 2.186-2.276 1.107-0.639 1.659-0.706 2.145-0.765 0.289-0.035 0.539-0.065 0.875-0.216 0.855-0.383 1.026-0.696 1.028-0.699 0.016-0.031 0.046-0.055 0.080-0.063s0.071-0.003 0.1 0.017c0.090 0.062 0.537 0.387 0.542 0.701 0.002 0.152-0.050 0.257-0.089 0.333-0.039 0.078-0.038 0.080-0.021 0.102 0.018 0.024 0.050 0.037 0.102 0.056 0.124 0.046 0.31 0.117 0.319 0.477 0.007 0.287-0.145 0.448-0.268 0.564 0.244 0.122 0.869 0.454 1.364 0.889 0.32 0.281 0.571 0.609 0.726 0.835 0.118 0.172 0.189 0.286 0.229 0.364 0.158-0.086 0.265-0.122 0.349-0.151 0.098-0.034 0.152-0.052 0.237-0.131 0.282-0.262 0.742-0.056 0.798-0.017 0.031 0.022 0.052 0.056 0.056 0.094 0.008 0.070-0.032 0.114-0.105 0.193-0.121 0.131-0.374 0.405-0.495 0.869-0.109 0.416-0.086 0.899-0.066 1.325 0.013 0.269 0.025 0.523 0 0.724-0.079 0.657-0.244 2.023-1.251 3.146-0.482 0.537-1.086 1.006-1.711 1.335-0.011 0.008-0.023 0.014-0.036 0.019-0.154 0.080-0.31 0.151-0.465 0.212-0.531 0.211-1.057 0.316-1.574 0.316zM23.003 11.961c0.916 0.172 1.808-0.034 2.586-0.427 0.054-0.11 0.21-0.477 0.198-1.033-0.014-0.655-0.127-0.862-0.128-0.864-0.033-0.058-0.014-0.133 0.043-0.167s0.131-0.018 0.166 0.039c0.015 0.024 0.149 0.258 0.164 0.987 0.007 0.362-0.049 0.651-0.11 0.854 0.528-0.316 0.991-0.712 1.357-1.121 0.19-0.212 0.349-0.434 0.481-0.658-0.045-0.11-0.146-0.427-0.091-0.96 0.064-0.62 0.087-0.959 0.088-0.962 0.005-0.068 0.064-0.118 0.131-0.114s0.119 0.063 0.114 0.131c-0 0.003-0.024 0.345-0.088 0.971-0.028 0.273-0.011 0.481 0.014 0.624 0.392-0.803 0.487-1.594 0.542-2.042 0.022-0.18 0.010-0.425-0.002-0.683-0.021-0.444-0.044-0.947 0.074-1.398 0.126-0.483 0.375-0.779 0.518-0.937-0.114-0.030-0.275-0.046-0.368 0.041-0.123 0.114-0.216 0.146-0.324 0.183-0.102 0.035-0.229 0.078-0.45 0.215-0.204 0.126-0.209 0.291-0.2 0.551 0.006 0.172 0.013 0.366-0.087 0.538-0.175 0.3-0.388 0.231-0.529 0.186-0.076-0.025-0.143-0.046-0.212-0.030-0.006 0.053 0.039 0.202 0.072 0.312 0.077 0.254 0.183 0.602 0.126 0.953-0.032 0.196-0.091 0.316-0.185 0.377-0.11 0.072-0.227 0.042-0.321 0.018-0.123-0.032-0.147-0.029-0.183 0.023-0.136 0.197-0.174 0.376-0.226 0.624-0.022 0.105-0.047 0.223-0.083 0.357-0.056 0.208-0.163 0.354-0.318 0.433-0.236 0.12-0.576 0.087-1.070-0.104-0.416-0.161-0.795-0.198-1.039-0.201-0.001 0-0.002 0-0.004 0-0.106 0-0.203 0.050-0.309 0.128-0.708 0.679-1.487 1.063-2.256 1.097-0.148 0.007-0.305 0.001-0.463-0.013-0.173 0.043-0.277 0.177-0.319 0.305-0.053 0.159-0.035 0.382 0.172 0.531 0.527 0.38 1.093 0.707 1.682 0.974 0.178 0.081 0.356 0.145 0.534 0.195 0.078-0.059 0.441-0.347 0.775-0.843-0.026-0.059-0.177-0.413-0.195-0.727-0.009-0.157-0.014-0.358 0.012-0.428l0.23 0.086c0 0 0.002-0.003 0.003-0.010-0.001 0.003-0.015 0.072 0 0.337 0.010 0.165 0.065 0.35 0.111 0.48 0.373-0.647 0.428-0.877 0.428-0.88 0.015-0.066 0.080-0.108 0.145-0.094s0.108 0.078 0.095 0.144c-0.005 0.027-0.065 0.282-0.486 1.005-0.286 0.491-0.618 0.825-0.816 0.999zM18.318 9.586c0.062 0.14 0.23 0.48 0.52 0.819s0.628 0.585 0.773 0.683l0.459-0.37c-0.168-0.129-0.438-0.339-0.61-0.487-0.455-0.391-0.783-0.842-0.797-0.861-0.006-0.008-0.010-0.016-0.014-0.024-0.014-0.019-0.032-0.044-0.053-0.075l-0.278 0.315zM19.134 9.561c0.129 0.147 0.297 0.322 0.485 0.484 0.115 0.099 0.279 0.23 0.425 0.343-0.005-0.090 0.007-0.183 0.037-0.275 0.036-0.108 0.094-0.202 0.167-0.278-0.423-0.071-0.829-0.185-1.114-0.275zM18.85 9.205c0.168 0.062 1.003 0.356 1.771 0.434 0.048-0.009 0.098-0.013 0.148-0.012 0.237 0.004 0.463-0.013 0.673-0.051 0.769-0.141 1.27-0.562 1.569-0.814 0.053-0.044 0.1-0.084 0.142-0.117 0.013-0.010 0.027-0.021 0.040-0.031 0.212-0.205 0.417-0.438 0.614-0.697 0.778-1.027 0.73-1.518 0.706-1.754l-0.003-0.034c-0.005-0.061-0.040-0.172-0.076-0.289-0.094-0.304-0.223-0.721-0.101-1.028 0.112-0.284 0.399-0.309 0.676-0.334 0.199-0.018 0.404-0.036 0.564-0.142 0.343-0.228 0.17-0.814 0.014-1.124-0.062-0.123-0.138-0.215-0.205-0.296-0.115-0.139-0.234-0.284-0.18-0.501 0.035-0.139 0.131-0.229 0.224-0.315 0.118-0.11 0.22-0.205 0.215-0.402-0.005-0.195-0.060-0.216-0.16-0.253-0.067-0.025-0.15-0.057-0.212-0.139-0.11-0.146-0.047-0.27-0.001-0.361 0.033-0.065 0.064-0.126 0.062-0.218-0.002-0.115-0.179-0.301-0.339-0.431-0.125 0.146-0.416 0.405-1.064 0.695-0.37 0.166-0.65 0.199-0.946 0.235-0.463 0.056-0.988 0.119-2.052 0.733-1.25 0.722-1.78 1.639-2.096 2.187-0.041 0.070-0.078 0.134-0.111 0.189-0.027 0.044-0.077 0.147-0.117 0.23-0.029 0.060-0.056 0.115-0.074 0.149-0.274 0.512-0.391 1.19-0.347 2.016 0.184-0.619 0.558-1.539 1.301-2.394 1.244-1.433 3.66-2.216 3.763-2.248 0.065-0.020 0.134 0.015 0.154 0.080s-0.015 0.134-0.080 0.154c-0.023 0.007-2.22 0.719-3.466 1.975 0.242 0.080 0.802 0.239 1.192 0.15 0.16-0.037 0.299-0.071 0.421-0.102 0.303-0.076 0.521-0.131 0.779-0.141 0.002-0 0.003-0 0.005-0 0.066 0 0.12 0.052 0.122 0.118 0.003 0.068-0.050 0.125-0.118 0.127-0.221 0.009-0.42 0.057-0.687 0.124l0.239 0.23c0.049 0.047 0.050 0.125 0.004 0.174s-0.125 0.051-0.173 0.004l-0.35-0.337c-0.059 0.014-0.121 0.029-0.186 0.044-0.534 0.122-1.285-0.139-1.43-0.193-0.001 0.001-0.002 0.002-0.003 0.003-0.398 0.459-0.687 0.942-0.895 1.382 0.327-0.178 0.861-0.408 1.2-0.238 0.226 0.113 0.397 0.316 0.563 0.512 0.182 0.214 0.353 0.417 0.578 0.493 0.064 0.022 0.098 0.091 0.077 0.156s-0.091 0.099-0.155 0.077c-0.289-0.098-0.491-0.336-0.686-0.567-0.071-0.084-0.14-0.165-0.211-0.238-0.051 0.16-0.137 0.461-0.14 0.708-0.004 0.351 0.171 0.847 0.173 0.852 0.023 0.064-0.011 0.134-0.074 0.157s-0.134-0.011-0.157-0.074c-0.008-0.022-0.191-0.543-0.187-0.938 0.004-0.347 0.145-0.765 0.184-0.875-0.024-0.016-0.048-0.030-0.073-0.042-0.306-0.153-1.009 0.239-1.231 0.389-0.008 0.006-0.017 0.010-0.026 0.013-0.277 0.699-0.344 1.217-0.345 1.226-0 0.001-0 0.002-0.001 0.003 0.169 1.111 0.507 1.608 0.587 1.713zM23.706 8.43c0.265 0.006 0.657 0.051 1.085 0.217 0.412 0.16 0.705 0.198 0.87 0.114 0.092-0.047 0.155-0.138 0.192-0.278 0.034-0.127 0.057-0.237 0.080-0.344 0.054-0.255 0.101-0.476 0.264-0.713 0.138-0.2 0.331-0.151 0.446-0.121 0.050 0.013 0.106 0.027 0.126 0.015 0.008-0.005 0.049-0.040 0.077-0.212 0.048-0.294-0.044-0.598-0.119-0.841-0.069-0.226-0.119-0.389-0.051-0.511 0.021-0.038 0.063-0.087 0.144-0.108 0.141-0.037 0.26 0.001 0.356 0.032 0.134 0.043 0.166 0.054 0.242-0.076 0.064-0.111 0.059-0.254 0.054-0.405-0.008-0.233-0.018-0.52 0.254-0.726-0.089-0.162-0.413-0.712-0.905-1.144-0.518-0.454-1.204-0.801-1.371-0.882-0.004 0.009-0.007 0.019-0.010 0.028-0.022 0.089 0.014 0.143 0.131 0.285 0.072 0.087 0.161 0.195 0.235 0.342 0.239 0.475 0.357 1.138-0.097 1.439-0.212 0.141-0.46 0.163-0.678 0.182-0.264 0.024-0.415 0.043-0.47 0.18-0.090 0.227 0.024 0.595 0.108 0.865 0.042 0.135 0.078 0.252 0.086 0.339l0.003 0.032c0.026 0.267 0.081 0.823-0.755 1.926-0.097 0.128-0.196 0.25-0.297 0.365z"></path>
<path d="M57.979 0c0.548-0 1.086 0.119 1.61 0.356 0.604 0.273 1.184 0.609 1.724 0.998 0.024 0.017 0.046 0.035 0.067 0.054l0.581-0.468c0.040-0.033 0.097-0.036 0.141-0.009 0.020 0.012 0.498 0.308 0.902 0.78 0.406 0.474 0.584 0.939 0.591 0.959 0.016 0.043 0.007 0.091-0.023 0.125l-0.357 0.404c-0.009 0.010-0.019 0.018-0.029 0.024 0.182 0.355 0.427 1.017 0.516 2.105 0.078 0.964-0.044 1.755-0.362 2.35-0.017 0.032-0.042 0.084-0.070 0.14-0.047 0.096-0.095 0.196-0.128 0.251s-0.068 0.115-0.108 0.184c-0.307 0.532-0.879 1.522-2.186 2.276-1.107 0.639-1.659 0.706-2.145 0.765-0.289 0.035-0.539 0.065-0.875 0.216-0.855 0.383-1.026 0.696-1.028 0.699-0.016 0.031-0.046 0.055-0.080 0.063s-0.071 0.003-0.1-0.017c-0.090-0.062-0.537-0.387-0.542-0.701-0.002-0.152 0.050-0.257 0.089-0.333 0.039-0.078 0.038-0.080 0.021-0.102-0.018-0.024-0.050-0.037-0.102-0.056-0.124-0.046-0.31-0.117-0.319-0.477-0.007-0.287 0.145-0.448 0.268-0.564-0.244-0.122-0.869-0.454-1.364-0.889-0.32-0.281-0.571-0.609-0.726-0.835-0.118-0.172-0.189-0.286-0.229-0.364-0.158 0.086-0.265 0.122-0.349 0.151-0.098 0.034-0.152 0.052-0.237 0.131-0.282 0.262-0.742 0.056-0.798 0.017-0.031-0.022-0.052-0.056-0.056-0.094-0.008-0.070 0.032-0.114 0.105-0.193 0.121-0.131 0.374-0.405 0.495-0.869 0.109-0.416 0.086-0.899 0.066-1.325-0.013-0.269-0.025-0.523-0-0.724 0.079-0.657 0.244-2.023 1.251-3.146 0.482-0.537 1.086-1.006 1.711-1.335 0.011-0.008 0.023-0.014 0.036-0.019 0.154-0.080 0.31-0.151 0.465-0.212 0.531-0.211 1.057-0.316 1.574-0.316zM58.652 0.315c-0.916-0.172-1.808 0.034-2.586 0.427-0.054 0.11-0.21 0.477-0.198 1.033 0.014 0.655 0.127 0.862 0.128 0.864 0.033 0.058 0.014 0.133-0.043 0.167s-0.131 0.018-0.166-0.039c-0.015-0.024-0.149-0.258-0.164-0.987-0.007-0.362 0.049-0.651 0.11-0.854-0.528 0.316-0.991 0.712-1.357 1.121-0.19 0.212-0.349 0.434-0.481 0.658 0.045 0.11 0.146 0.427 0.091 0.96-0.064 0.62-0.087 0.959-0.088 0.962-0.005 0.068-0.064 0.118-0.131 0.114s-0.119-0.063-0.114-0.131c0-0.003 0.024-0.345 0.088-0.971 0.028-0.273 0.011-0.481-0.014-0.624-0.392 0.803-0.487 1.594-0.542 2.042-0.022 0.18-0.010 0.425 0.002 0.683 0.021 0.444 0.044 0.947-0.074 1.398-0.126 0.483-0.375 0.779-0.518 0.937 0.114 0.030 0.275 0.046 0.368-0.041 0.123-0.114 0.216-0.146 0.324-0.183 0.102-0.035 0.229-0.078 0.45-0.215 0.204-0.126 0.209-0.291 0.2-0.551-0.006-0.172-0.013-0.366 0.087-0.538 0.175-0.301 0.388-0.231 0.529-0.186 0.076 0.025 0.143 0.046 0.212 0.030 0.006-0.053-0.039-0.202-0.072-0.312-0.077-0.254-0.183-0.602-0.126-0.953 0.032-0.196 0.091-0.316 0.185-0.377 0.11-0.072 0.227-0.042 0.321-0.018 0.123 0.032 0.147 0.029 0.183-0.023 0.136-0.197 0.174-0.376 0.226-0.624 0.022-0.105 0.047-0.223 0.083-0.357 0.056-0.208 0.163-0.354 0.318-0.433 0.236-0.12 0.576-0.087 1.070 0.104 0.416 0.161 0.795 0.198 1.039 0.201 0.001 0 0.002 0 0.004 0 0.106 0 0.203-0.050 0.309-0.128 0.708-0.679 1.487-1.063 2.256-1.097 0.148-0.007 0.305-0.001 0.463 0.013 0.173-0.043 0.277-0.177 0.319-0.305 0.053-0.159 0.035-0.382-0.172-0.531-0.527-0.379-1.093-0.707-1.682-0.974-0.178-0.081-0.356-0.145-0.534-0.195-0.078 0.059-0.441 0.347-0.775 0.843 0.026 0.059 0.177 0.413 0.195 0.727 0.009 0.157 0.014 0.358-0.012 0.428l-0.23-0.086c0 0-0.002 0.003-0.003 0.010 0.001-0.003 0.015-0.072-0-0.337-0.010-0.165-0.065-0.35-0.111-0.48-0.373 0.647-0.428 0.877-0.428 0.88-0.015 0.066-0.080 0.108-0.145 0.094s-0.108-0.078-0.095-0.144c0.005-0.027 0.065-0.282 0.486-1.005 0.286-0.491 0.618-0.825 0.816-0.999zM63.337 2.69c-0.062-0.14-0.23-0.48-0.52-0.819s-0.628-0.585-0.773-0.683l-0.459 0.369c0.168 0.129 0.438 0.339 0.61 0.487 0.455 0.391 0.783 0.842 0.797 0.861 0.006 0.008 0.010 0.016 0.014 0.024 0.014 0.019 0.032 0.044 0.053 0.075l0.278-0.315zM62.521 2.715c-0.129-0.147-0.297-0.322-0.485-0.484-0.115-0.099-0.279-0.23-0.425-0.343 0.005 0.090-0.007 0.183-0.037 0.275-0.036 0.108-0.094 0.202-0.167 0.278 0.423 0.071 0.829 0.185 1.114 0.275zM62.805 3.071c-0.168-0.062-1.003-0.356-1.771-0.434-0.048 0.009-0.098 0.013-0.148 0.012-0.237-0.004-0.463 0.013-0.673 0.051-0.769 0.141-1.27 0.562-1.569 0.814-0.053 0.044-0.1 0.084-0.142 0.117-0.013 0.010-0.027 0.021-0.040 0.031-0.212 0.205-0.417 0.438-0.614 0.697-0.778 1.027-0.73 1.518-0.706 1.754l0.003 0.034c0.005 0.061 0.040 0.172 0.076 0.289 0.094 0.304 0.223 0.721 0.101 1.028-0.112 0.284-0.399 0.309-0.676 0.334-0.199 0.018-0.404 0.036-0.564 0.142-0.343 0.228-0.17 0.814-0.014 1.124 0.062 0.123 0.138 0.215 0.205 0.296 0.115 0.139 0.234 0.284 0.18 0.501-0.035 0.139-0.131 0.229-0.224 0.315-0.118 0.11-0.22 0.205-0.215 0.402 0.005 0.195 0.060 0.216 0.16 0.253 0.067 0.025 0.15 0.057 0.212 0.139 0.11 0.146 0.047 0.27 0.001 0.361-0.033 0.065-0.064 0.126-0.062 0.218 0.002 0.115 0.179 0.301 0.339 0.431 0.125-0.146 0.416-0.405 1.064-0.695 0.37-0.166 0.65-0.199 0.946-0.235 0.463-0.056 0.988-0.119 2.052-0.733 1.25-0.722 1.78-1.639 2.096-2.187 0.041-0.070 0.078-0.134 0.111-0.189 0.027-0.044 0.077-0.147 0.117-0.23 0.029-0.060 0.056-0.115 0.074-0.149 0.274-0.512 0.391-1.19 0.347-2.016-0.184 0.619-0.558 1.539-1.301 2.394-1.244 1.433-3.66 2.216-3.763 2.248-0.065 0.020-0.134-0.015-0.154-0.080s0.015-0.134 0.080-0.154c0.023-0.007 2.22-0.719 3.466-1.975-0.242-0.080-0.802-0.239-1.192-0.15-0.16 0.037-0.299 0.071-0.421 0.102-0.303 0.076-0.521 0.131-0.779 0.141-0.002 0-0.003 0-0.005 0-0.066 0-0.12-0.052-0.122-0.118-0.003-0.068 0.050-0.125 0.118-0.127 0.221-0.009 0.42-0.057 0.687-0.124l-0.239-0.23c-0.049-0.047-0.050-0.125-0.004-0.174s0.125-0.051 0.173-0.004l0.35 0.337c0.059-0.014 0.121-0.029 0.186-0.044 0.534-0.122 1.285 0.139 1.43 0.193 0.001-0.001 0.002-0.002 0.003-0.003 0.398-0.459 0.687-0.942 0.895-1.382-0.327 0.178-0.861 0.408-1.2 0.238-0.226-0.113-0.397-0.316-0.563-0.512-0.182-0.214-0.353-0.417-0.578-0.493-0.064-0.022-0.098-0.091-0.077-0.156s0.091-0.099 0.155-0.077c0.289 0.098 0.491 0.336 0.686 0.567 0.071 0.084 0.14 0.165 0.211 0.238 0.051-0.16 0.137-0.461 0.14-0.708 0.004-0.351-0.171-0.847-0.173-0.852-0.023-0.064 0.011-0.134 0.074-0.157s0.134 0.011 0.157 0.074c0.008 0.022 0.191 0.543 0.187 0.938-0.004 0.347-0.145 0.765-0.184 0.875 0.024 0.016 0.048 0.030 0.073 0.042 0.306 0.153 1.009-0.239 1.231-0.389 0.008-0.006 0.017-0.010 0.026-0.013 0.277-0.699 0.344-1.217 0.345-1.226 0-0.001 0-0.002 0.001-0.003-0.169-1.111-0.507-1.608-0.587-1.713zM57.949 3.846c-0.265-0.006-0.657-0.051-1.085-0.217-0.412-0.16-0.705-0.198-0.87-0.114-0.092 0.047-0.155 0.138-0.192 0.278-0.034 0.127-0.057 0.237-0.080 0.344-0.054 0.255-0.101 0.476-0.264 0.713-0.138 0.2-0.331 0.151-0.446 0.121-0.050-0.013-0.106-0.027-0.126-0.015-0.008 0.005-0.049 0.040-0.077 0.212-0.048 0.294 0.044 0.598 0.119 0.841 0.069 0.226 0.119 0.389 0.051 0.511-0.021 0.038-0.063 0.087-0.144 0.108-0.141 0.037-0.26-0.001-0.356-0.032-0.134-0.043-0.166-0.054-0.242 0.076-0.064 0.111-0.059 0.254-0.054 0.405 0.008 0.233 0.018 0.52-0.254 0.726 0.089 0.162 0.413 0.712 0.905 1.144 0.518 0.454 1.204 0.801 1.371 0.882 0.004-0.009 0.007-0.019 0.010-0.028 0.022-0.089-0.014-0.143-0.131-0.285-0.072-0.087-0.161-0.195-0.235-0.342-0.239-0.475-0.357-1.138 0.097-1.439 0.212-0.141 0.46-0.163 0.678-0.182 0.264-0.024 0.415-0.043 0.47-0.18 0.090-0.227-0.024-0.595-0.108-0.865-0.042-0.135-0.078-0.252-0.086-0.339l-0.003-0.032c-0.026-0.267-0.081-0.823 0.755-1.926 0.097-0.128 0.196-0.25 0.297-0.365z"></path>
<path d="M92.366 12.276c-0.548 0-1.086-0.119-1.61-0.356-0.604-0.274-1.184-0.609-1.724-0.998-0.024-0.017-0.046-0.035-0.067-0.054l-0.581 0.468c-0.040 0.033-0.097 0.036-0.141 0.009-0.020-0.012-0.498-0.308-0.902-0.78-0.406-0.474-0.584-0.939-0.591-0.959-0.016-0.043-0.007-0.091 0.023-0.125l0.357-0.404c0.009-0.010 0.019-0.018 0.029-0.024-0.182-0.355-0.427-1.017-0.516-2.105-0.078-0.964 0.044-1.755 0.362-2.35 0.017-0.032 0.042-0.084 0.070-0.14 0.047-0.096 0.095-0.196 0.128-0.251s0.068-0.115 0.108-0.184c0.307-0.532 0.879-1.522 2.186-2.276 1.107-0.639 1.659-0.706 2.145-0.765 0.289-0.035 0.539-0.065 0.875-0.216 0.855-0.383 1.026-0.696 1.028-0.699 0.016-0.031 0.046-0.055 0.080-0.063s0.071-0.003 0.1 0.017c0.090 0.062 0.537 0.387 0.542 0.701 0.002 0.152-0.050 0.257-0.089 0.333-0.039 0.078-0.038 0.080-0.021 0.102 0.018 0.024 0.050 0.037 0.102 0.056 0.124 0.046 0.31 0.117 0.319 0.477 0.007 0.287-0.145 0.448-0.268 0.564 0.244 0.122 0.869 0.454 1.364 0.889 0.32 0.281 0.571 0.609 0.726 0.835 0.118 0.172 0.189 0.286 0.229 0.364 0.158-0.086 0.265-0.122 0.349-0.151 0.098-0.034 0.152-0.052 0.237-0.131 0.282-0.262 0.742-0.056 0.798-0.017 0.031 0.022 0.052 0.056 0.056 0.094 0.008 0.070-0.032 0.114-0.105 0.193-0.121 0.131-0.374 0.405-0.495 0.869-0.109 0.416-0.086 0.899-0.066 1.325 0.013 0.269 0.025 0.523 0 0.724-0.079 0.657-0.244 2.023-1.251 3.146-0.482 0.537-1.086 1.006-1.711 1.335-0.011 0.008-0.023 0.014-0.036 0.019-0.154 0.080-0.31 0.151-0.465 0.212-0.531 0.211-1.057 0.316-1.574 0.316zM91.693 11.961c0.916 0.172 1.808-0.034 2.586-0.427 0.054-0.11 0.21-0.477 0.198-1.033-0.014-0.655-0.127-0.862-0.128-0.864-0.033-0.058-0.014-0.133 0.043-0.167s0.131-0.018 0.166 0.039c0.015 0.024 0.149 0.258 0.164 0.987 0.007 0.362-0.049 0.651-0.11 0.854 0.528-0.316 0.991-0.712 1.357-1.121 0.19-0.212 0.349-0.434 0.481-0.658-0.045-0.11-0.146-0.427-0.091-0.96 0.064-0.62 0.087-0.959 0.088-0.962 0.005-0.068 0.064-0.118 0.131-0.114s0.119 0.063 0.114 0.131c-0 0.003-0.024 0.345-0.088 0.971-0.028 0.273-0.011 0.481 0.014 0.624 0.392-0.803 0.487-1.594 0.542-2.042 0.022-0.18 0.010-0.425-0.002-0.683-0.021-0.444-0.044-0.947 0.074-1.398 0.126-0.483 0.375-0.779 0.518-0.937-0.114-0.030-0.275-0.046-0.368 0.041-0.123 0.114-0.216 0.146-0.324 0.183-0.102 0.035-0.229 0.078-0.45 0.215-0.204 0.126-0.209 0.291-0.2 0.551 0.006 0.172 0.013 0.366-0.087 0.538-0.175 0.3-0.388 0.231-0.529 0.186-0.076-0.025-0.143-0.046-0.212-0.030-0.006 0.053 0.039 0.202 0.072 0.312 0.077 0.254 0.183 0.602 0.126 0.953-0.032 0.196-0.091 0.316-0.185 0.377-0.11 0.072-0.227 0.042-0.321 0.018-0.123-0.032-0.147-0.029-0.183 0.023-0.136 0.197-0.174 0.376-0.226 0.624-0.022 0.105-0.047 0.223-0.083 0.357-0.056 0.208-0.163 0.354-0.318 0.433-0.236 0.12-0.576 0.087-1.070-0.104-0.416-0.161-0.795-0.198-1.039-0.201-0.001 0-0.002 0-0.004 0-0.106 0-0.203 0.050-0.309 0.128-0.708 0.679-1.487 1.063-2.256 1.097-0.148 0.007-0.305 0.001-0.463-0.013-0.173 0.043-0.277 0.177-0.319 0.305-0.053 0.159-0.035 0.382 0.172 0.531 0.527 0.38 1.093 0.707 1.682 0.974 0.178 0.081 0.356 0.145 0.534 0.195 0.078-0.059 0.441-0.347 0.775-0.843-0.026-0.059-0.177-0.413-0.195-0.727-0.009-0.157-0.014-0.358 0.012-0.428l0.23 0.086c0 0 0.002-0.003 0.003-0.010-0.001 0.003-0.015 0.072 0 0.337 0.010 0.165 0.065 0.35 0.111 0.48 0.373-0.647 0.428-0.877 0.428-0.88 0.015-0.066 0.080-0.108 0.145-0.094s0.108 0.078 0.095 0.144c-0.005 0.027-0.065 0.282-0.486 1.005-0.286 0.491-0.618 0.825-0.816 0.999zM87.008 9.586c0.062 0.14 0.23 0.48 0.52 0.819s0.628 0.585 0.773 0.683l0.459-0.37c-0.168-0.129-0.438-0.339-0.61-0.487-0.455-0.391-0.783-0.842-0.797-0.861-0.006-0.008-0.010-0.016-0.014-0.024-0.014-0.019-0.032-0.044-0.053-0.075l-0.278 0.315zM87.824 9.561c0.129 0.147 0.297 0.322 0.485 0.484 0.115 0.099 0.279 0.23 0.425 0.343-0.005-0.090 0.007-0.183 0.037-0.275 0.036-0.108 0.094-0.202 0.167-0.278-0.423-0.071-0.829-0.185-1.114-0.275zM87.54 9.205c0.168 0.062 1.003 0.356 1.771 0.434 0.048-0.009 0.098-0.013 0.148-0.012 0.237 0.004 0.463-0.013 0.673-0.051 0.769-0.141 1.27-0.562 1.569-0.814 0.053-0.044 0.1-0.084 0.142-0.117 0.013-0.010 0.027-0.021 0.040-0.031 0.212-0.205 0.417-0.438 0.614-0.697 0.778-1.027 0.73-1.518 0.706-1.754l-0.003-0.034c-0.005-0.061-0.040-0.172-0.076-0.289-0.094-0.304-0.223-0.721-0.101-1.028 0.112-0.284 0.399-0.309 0.676-0.334 0.199-0.018 0.404-0.036 0.564-0.142 0.343-0.228 0.17-0.814 0.014-1.124-0.062-0.123-0.138-0.215-0.205-0.296-0.115-0.139-0.234-0.284-0.18-0.501 0.035-0.139 0.131-0.229 0.224-0.315 0.118-0.11 0.22-0.205 0.215-0.402-0.005-0.195-0.060-0.216-0.16-0.253-0.067-0.025-0.15-0.057-0.212-0.139-0.11-0.146-0.047-0.27-0.001-0.361 0.033-0.065 0.064-0.126 0.062-0.218-0.002-0.115-0.179-0.301-0.339-0.431-0.125 0.146-0.416 0.405-1.064 0.695-0.37 0.166-0.65 0.199-0.946 0.235-0.463 0.056-0.988 0.119-2.052 0.733-1.25 0.722-1.78 1.639-2.096 2.187-0.041 0.070-0.078 0.134-0.111 0.189-0.027 0.044-0.077 0.147-0.117 0.23-0.029 0.060-0.056 0.115-0.074 0.149-0.274 0.512-0.391 1.19-0.347 2.016 0.184-0.619 0.558-1.539 1.301-2.394 1.244-1.433 3.66-2.216 3.763-2.248 0.065-0.020 0.134 0.015 0.154 0.080s-0.015 0.134-0.080 0.154c-0.023 0.007-2.22 0.719-3.466 1.975 0.242 0.080 0.802 0.239 1.192 0.15 0.16-0.037 0.299-0.071 0.421-0.102 0.303-0.076 0.521-0.131 0.779-0.141 0.002-0 0.003-0 0.005-0 0.066 0 0.12 0.052 0.122 0.118 0.003 0.068-0.050 0.125-0.118 0.127-0.221 0.009-0.42 0.057-0.687 0.124l0.239 0.23c0.049 0.047 0.050 0.125 0.004 0.174s-0.125 0.051-0.173 0.004l-0.35-0.337c-0.059 0.014-0.121 0.029-0.186 0.044-0.534 0.122-1.285-0.139-1.43-0.193-0.001 0.001-0.002 0.002-0.003 0.003-0.398 0.459-0.687 0.942-0.895 1.382 0.327-0.178 0.861-0.408 1.2-0.238 0.226 0.113 0.397 0.316 0.563 0.512 0.182 0.214 0.353 0.417 0.578 0.493 0.064 0.022 0.098 0.091 0.077 0.156s-0.091 0.099-0.155 0.077c-0.289-0.098-0.491-0.336-0.686-0.567-0.071-0.084-0.14-0.165-0.211-0.238-0.051 0.16-0.137 0.461-0.14 0.708-0.004 0.351 0.171 0.847 0.173 0.852 0.023 0.064-0.011 0.134-0.074 0.157s-0.134-0.011-0.157-0.074c-0.008-0.022-0.191-0.543-0.187-0.938 0.004-0.347 0.145-0.765 0.184-0.875-0.024-0.016-0.048-0.030-0.073-0.042-0.306-0.153-1.009 0.239-1.231 0.389-0.008 0.006-0.017 0.010-0.026 0.013-0.277 0.699-0.344 1.217-0.345 1.226-0 0.001-0 0.002-0.001 0.003 0.169 1.111 0.507 1.608 0.587 1.713zM92.396 8.43c0.265 0.006 0.657 0.051 1.085 0.217 0.412 0.16 0.705 0.198 0.87 0.114 0.092-0.047 0.155-0.138 0.192-0.278 0.034-0.127 0.057-0.237 0.080-0.344 0.054-0.255 0.101-0.476 0.264-0.713 0.138-0.2 0.331-0.151 0.446-0.121 0.050 0.013 0.106 0.027 0.126 0.015 0.008-0.005 0.049-0.040 0.077-0.212 0.048-0.294-0.044-0.598-0.119-0.841-0.069-0.226-0.119-0.389-0.051-0.511 0.021-0.038 0.063-0.087 0.144-0.108 0.141-0.037 0.26 0.001 0.356 0.032 0.134 0.043 0.166 0.054 0.242-0.076 0.064-0.111 0.059-0.254 0.054-0.405-0.008-0.233-0.018-0.52 0.254-0.726-0.089-0.162-0.413-0.712-0.905-1.144-0.518-0.454-1.204-0.801-1.371-0.882-0.004 0.009-0.007 0.019-0.010 0.028-0.022 0.089 0.014 0.143 0.131 0.285 0.072 0.087 0.161 0.195 0.235 0.342 0.239 0.475 0.357 1.138-0.097 1.439-0.212 0.141-0.46 0.163-0.678 0.182-0.264 0.024-0.415 0.043-0.47 0.18-0.090 0.227 0.024 0.595 0.108 0.865 0.042 0.135 0.078 0.252 0.086 0.339l0.003 0.032c0.026 0.267 0.081 0.823-0.755 1.926-0.097 0.128-0.196 0.25-0.297 0.365z"></path>
<path d="M126.669 0c0.548-0 1.086 0.119 1.61 0.356 0.604 0.273 1.184 0.609 1.724 0.998 0.024 0.017 0.046 0.035 0.067 0.054l0.581-0.468c0.040-0.033 0.097-0.036 0.141-0.009 0.020 0.012 0.498 0.308 0.902 0.78 0.406 0.474 0.584 0.939 0.591 0.959 0.016 0.043 0.007 0.091-0.023 0.125l-0.357 0.404c-0.009 0.010-0.019 0.018-0.029 0.024 0.182 0.355 0.427 1.017 0.516 2.105 0.078 0.964-0.044 1.755-0.362 2.35-0.017 0.032-0.042 0.084-0.070 0.14-0.047 0.096-0.095 0.196-0.128 0.251s-0.068 0.115-0.108 0.184c-0.307 0.532-0.879 1.522-2.186 2.276-1.107 0.639-1.659 0.706-2.145 0.765-0.289 0.035-0.539 0.065-0.875 0.216-0.855 0.383-1.026 0.696-1.028 0.699-0.016 0.031-0.046 0.055-0.080 0.063s-0.071 0.003-0.1-0.017c-0.090-0.062-0.537-0.387-0.542-0.701-0.002-0.152 0.050-0.257 0.089-0.333 0.039-0.078 0.038-0.080 0.021-0.102-0.018-0.024-0.050-0.037-0.102-0.056-0.124-0.046-0.31-0.117-0.319-0.477-0.007-0.287 0.145-0.448 0.268-0.564-0.244-0.122-0.869-0.454-1.364-0.889-0.32-0.281-0.571-0.609-0.726-0.835-0.118-0.172-0.189-0.286-0.229-0.364-0.158 0.086-0.265 0.122-0.349 0.151-0.098 0.034-0.152 0.052-0.237 0.131-0.282 0.262-0.742 0.056-0.798 0.017-0.031-0.022-0.052-0.056-0.056-0.094-0.008-0.070 0.032-0.114 0.105-0.193 0.121-0.131 0.374-0.405 0.495-0.869 0.109-0.416 0.086-0.899 0.066-1.325-0.013-0.269-0.025-0.523-0-0.724 0.079-0.657 0.244-2.023 1.251-3.146 0.482-0.537 1.086-1.006 1.711-1.335 0.011-0.008 0.023-0.014 0.036-0.019 0.154-0.080 0.31-0.151 0.465-0.212 0.531-0.211 1.057-0.316 1.574-0.316zM127.342 0.315c-0.916-0.172-1.808 0.034-2.586 0.427-0.054 0.11-0.21 0.477-0.198 1.033 0.014 0.655 0.127 0.862 0.128 0.864 0.033 0.058 0.014 0.133-0.043 0.167s-0.131 0.018-0.166-0.039c-0.015-0.024-0.149-0.258-0.164-0.987-0.007-0.362 0.049-0.651 0.11-0.854-0.528 0.316-0.991 0.712-1.357 1.121-0.19 0.212-0.349 0.434-0.481 0.658 0.045 0.11 0.146 0.427 0.091 0.96-0.064 0.62-0.087 0.959-0.088 0.962-0.005 0.068-0.064 0.118-0.131 0.114s-0.119-0.063-0.114-0.131c0-0.003 0.024-0.345 0.088-0.971 0.028-0.273 0.011-0.481-0.014-0.624-0.392 0.803-0.487 1.594-0.542 2.042-0.022 0.18-0.010 0.425 0.002 0.683 0.021 0.444 0.044 0.947-0.074 1.398-0.126 0.483-0.375 0.779-0.518 0.937 0.114 0.030 0.275 0.046 0.368-0.041 0.123-0.114 0.216-0.146 0.324-0.183 0.102-0.035 0.229-0.078 0.45-0.215 0.204-0.126 0.209-0.291 0.2-0.551-0.006-0.172-0.013-0.366 0.087-0.538 0.175-0.301 0.388-0.231 0.529-0.186 0.076 0.025 0.143 0.046 0.212 0.030 0.006-0.053-0.039-0.202-0.072-0.312-0.077-0.254-0.183-0.602-0.126-0.953 0.032-0.196 0.091-0.316 0.185-0.377 0.11-0.072 0.227-0.042 0.321-0.018 0.123 0.032 0.147 0.029 0.183-0.023 0.136-0.197 0.174-0.376 0.226-0.624 0.022-0.105 0.047-0.223 0.083-0.357 0.056-0.208 0.163-0.354 0.318-0.433 0.236-0.12 0.576-0.087 1.070 0.104 0.416 0.161 0.795 0.198 1.039 0.201 0.001 0 0.002 0 0.004 0 0.106 0 0.203-0.050 0.309-0.128 0.708-0.679 1.487-1.063 2.256-1.097 0.148-0.007 0.305-0.001 0.463 0.013 0.173-0.043 0.277-0.177 0.319-0.305 0.053-0.159 0.035-0.382-0.172-0.531-0.527-0.379-1.093-0.707-1.682-0.974-0.178-0.081-0.356-0.145-0.534-0.195-0.078 0.059-0.441 0.347-0.775 0.843 0.026 0.059 0.177 0.413 0.195 0.727 0.009 0.157 0.014 0.358-0.012 0.428l-0.23-0.086c0 0-0.002 0.003-0.003 0.010 0.001-0.003 0.015-0.072-0-0.337-0.010-0.165-0.065-0.35-0.111-0.48-0.373 0.647-0.428 0.877-0.428 0.88-0.015 0.066-0.080 0.108-0.145 0.094s-0.108-0.078-0.095-0.144c0.005-0.027 0.065-0.282 0.486-1.005 0.286-0.491 0.618-0.825 0.816-0.999zM132.026 2.69c-0.062-0.14-0.23-0.48-0.52-0.819s-0.628-0.585-0.773-0.683l-0.459 0.369c0.168 0.129 0.438 0.339 0.61 0.487 0.455 0.391 0.783 0.842 0.797 0.861 0.006 0.008 0.010 0.016 0.014 0.024 0.014 0.019 0.032 0.044 0.053 0.075l0.278-0.315zM131.211 2.715c-0.129-0.147-0.297-0.322-0.485-0.484-0.115-0.099-0.279-0.23-0.425-0.343 0.005 0.090-0.007 0.183-0.037 0.275-0.036 0.108-0.094 0.202-0.167 0.278 0.423 0.071 0.829 0.185 1.114 0.275zM131.494 3.071c-0.168-0.062-1.003-0.356-1.771-0.434-0.048 0.009-0.098 0.013-0.148 0.012-0.237-0.004-0.463 0.013-0.673 0.051-0.769 0.141-1.27 0.562-1.569 0.814-0.053 0.044-0.1 0.084-0.142 0.117-0.013 0.010-0.027 0.021-0.040 0.031-0.212 0.205-0.417 0.438-0.614 0.697-0.778 1.027-0.73 1.518-0.706 1.754l0.003 0.034c0.005 0.061 0.040 0.172 0.076 0.289 0.094 0.304 0.223 0.721 0.101 1.028-0.112 0.284-0.399 0.309-0.676 0.334-0.199 0.018-0.404 0.036-0.564 0.142-0.343 0.228-0.17 0.814-0.014 1.124 0.062 0.123 0.138 0.215 0.205 0.296 0.115 0.139 0.234 0.284 0.18 0.501-0.035 0.139-0.131 0.229-0.224 0.315-0.118 0.11-0.22 0.205-0.215 0.402 0.005 0.195 0.060 0.216 0.16 0.253 0.067 0.025 0.15 0.057 0.212 0.139 0.11 0.146 0.047 0.27 0.001 0.361-0.033 0.065-0.064 0.126-0.062 0.218 0.002 0.115 0.179 0.301 0.339 0.431 0.125-0.146 0.416-0.405 1.064-0.695 0.37-0.166 0.65-0.199 0.946-0.235 0.463-0.056 0.988-0.119 2.052-0.733 1.25-0.722 1.78-1.639 2.096-2.187 0.041-0.070 0.078-0.134 0.111-0.189 0.027-0.044 0.077-0.147 0.117-0.23 0.029-0.060 0.056-0.115 0.074-0.149 0.274-0.512 0.391-1.19 0.347-2.016-0.184 0.619-0.558 1.539-1.301 2.394-1.244 1.433-3.66 2.216-3.763 2.248-0.065 0.020-0.134-0.015-0.154-0.080s0.015-0.134 0.080-0.154c0.023-0.007 2.22-0.719 3.466-1.975-0.242-0.080-0.802-0.239-1.192-0.15-0.16 0.037-0.299 0.071-0.421 0.102-0.303 0.076-0.521 0.131-0.779 0.141-0.002 0-0.003 0-0.005 0-0.066 0-0.12-0.052-0.122-0.118-0.003-0.068 0.050-0.125 0.118-0.127 0.221-0.009 0.42-0.057 0.687-0.124l-0.239-0.23c-0.049-0.047-0.050-0.125-0.004-0.174s0.125-0.051 0.173-0.004l0.35 0.337c0.059-0.014 0.121-0.029 0.186-0.044 0.534-0.122 1.285 0.139 1.43 0.193 0.001-0.001 0.002-0.002 0.003-0.003 0.398-0.459 0.687-0.942 0.895-1.382-0.327 0.178-0.861 0.408-1.2 0.238-0.226-0.113-0.397-0.316-0.563-0.512-0.182-0.214-0.353-0.417-0.578-0.493-0.064-0.022-0.098-0.091-0.077-0.156s0.091-0.099 0.155-0.077c0.289 0.098 0.491 0.336 0.686 0.567 0.071 0.084 0.14 0.165 0.211 0.238 0.051-0.16 0.137-0.461 0.14-0.708 0.004-0.351-0.171-0.847-0.173-0.852-0.023-0.064 0.011-0.134 0.074-0.157s0.134 0.011 0.157 0.074c0.008 0.022 0.191 0.543 0.187 0.938-0.004 0.347-0.145 0.765-0.184 0.875 0.024 0.016 0.048 0.030 0.073 0.042 0.306 0.153 1.009-0.239 1.231-0.389 0.008-0.006 0.017-0.010 0.026-0.013 0.277-0.699 0.344-1.217 0.345-1.226 0-0.001 0-0.002 0.001-0.003-0.169-1.111-0.507-1.608-0.587-1.713zM126.638 3.846c-0.265-0.006-0.657-0.051-1.085-0.217-0.412-0.16-0.705-0.198-0.87-0.114-0.092 0.047-0.155 0.138-0.192 0.278-0.034 0.127-0.057 0.237-0.080 0.344-0.054 0.255-0.101 0.476-0.264 0.713-0.138 0.2-0.331 0.151-0.446 0.121-0.050-0.013-0.106-0.027-0.126-0.015-0.008 0.005-0.049 0.040-0.077 0.212-0.048 0.294 0.044 0.598 0.119 0.841 0.069 0.226 0.119 0.389 0.051 0.511-0.021 0.038-0.063 0.087-0.144 0.108-0.141 0.037-0.26-0.001-0.356-0.032-0.134-0.043-0.166-0.054-0.242 0.076-0.064 0.111-0.059 0.254-0.054 0.405 0.008 0.233 0.018 0.52-0.254 0.726 0.089 0.162 0.413 0.712 0.905 1.144 0.518 0.454 1.204 0.801 1.371 0.882 0.004-0.009 0.007-0.019 0.010-0.028 0.022-0.089-0.014-0.143-0.131-0.285-0.072-0.087-0.161-0.195-0.235-0.342-0.239-0.475-0.357-1.138 0.097-1.439 0.212-0.141 0.46-0.163 0.678-0.182 0.264-0.024 0.415-0.043 0.47-0.18 0.090-0.227-0.024-0.595-0.108-0.865-0.042-0.135-0.078-0.252-0.086-0.339l-0.003-0.032c-0.026-0.267-0.081-0.823 0.755-1.926 0.097-0.128 0.196-0.25 0.297-0.365z"></path>
<path d="M161.055 12.276c-0.548 0-1.086-0.119-1.61-0.356-0.604-0.274-1.183-0.609-1.724-0.998-0.023-0.017-0.046-0.035-0.066-0.054l-0.581 0.468c-0.041 0.033-0.097 0.036-0.141 0.009-0.021-0.012-0.498-0.308-0.903-0.78-0.406-0.474-0.583-0.939-0.59-0.959-0.017-0.043-0.007-0.091 0.023-0.125l0.356-0.404c0.010-0.010 0.019-0.018 0.030-0.024-0.183-0.355-0.428-1.017-0.516-2.105-0.079-0.964 0.043-1.755 0.361-2.35 0.018-0.032 0.043-0.084 0.070-0.14 0.047-0.096 0.095-0.196 0.128-0.251s0.068-0.115 0.108-0.184c0.308-0.532 0.88-1.522 2.186-2.276 1.108-0.639 1.658-0.706 2.145-0.765 0.29-0.035 0.539-0.065 0.874-0.216 0.855-0.383 1.026-0.696 1.028-0.699 0.017-0.031 0.047-0.055 0.080-0.063 0.034-0.009 0.072-0.003 0.101 0.017 0.088 0.062 0.537 0.387 0.541 0.701 0.003 0.152-0.050 0.257-0.088 0.333-0.040 0.078-0.039 0.080-0.022 0.102 0.018 0.024 0.051 0.037 0.102 0.056 0.124 0.046 0.31 0.117 0.319 0.477 0.007 0.287-0.143 0.448-0.268 0.564 0.244 0.122 0.869 0.454 1.364 0.889 0.321 0.281 0.572 0.609 0.727 0.835 0.117 0.172 0.188 0.286 0.229 0.364 0.157-0.086 0.265-0.122 0.349-0.151 0.098-0.034 0.152-0.052 0.236-0.131 0.281-0.262 0.742-0.056 0.799-0.017 0.030 0.022 0.051 0.056 0.055 0.094 0.008 0.070-0.032 0.114-0.105 0.193-0.121 0.131-0.374 0.405-0.495 0.869-0.109 0.416-0.086 0.899-0.066 1.325 0.012 0.269 0.025 0.523 0.001 0.724-0.080 0.657-0.244 2.023-1.251 3.146-0.483 0.537-1.087 1.006-1.712 1.335-0.011 0.008-0.023 0.014-0.036 0.019-0.154 0.080-0.31 0.151-0.465 0.212-0.531 0.211-1.057 0.316-1.574 0.316zM160.382 11.961c0.916 0.172 1.808-0.034 2.586-0.427 0.054-0.11 0.21-0.477 0.197-1.033-0.012-0.655-0.127-0.862-0.127-0.864-0.033-0.058-0.015-0.133 0.043-0.167 0.057-0.034 0.13-0.018 0.166 0.039 0.015 0.024 0.149 0.258 0.164 0.987 0.008 0.362-0.048 0.651-0.11 0.854 0.528-0.316 0.992-0.712 1.357-1.121 0.19-0.212 0.349-0.434 0.481-0.658-0.044-0.11-0.146-0.427-0.091-0.96 0.063-0.62 0.087-0.959 0.088-0.962 0.004-0.068 0.063-0.118 0.13-0.114 0.068 0.005 0.119 0.063 0.114 0.131 0 0.003-0.023 0.345-0.088 0.971-0.028 0.273-0.011 0.481 0.015 0.624 0.392-0.803 0.487-1.594 0.541-2.042 0.022-0.18 0.011-0.425-0.001-0.683-0.021-0.444-0.044-0.947 0.073-1.398 0.127-0.483 0.375-0.779 0.519-0.937-0.114-0.030-0.276-0.046-0.368 0.041-0.123 0.114-0.217 0.146-0.324 0.183-0.102 0.035-0.229 0.078-0.45 0.215-0.203 0.126-0.208 0.291-0.199 0.551 0.006 0.172 0.012 0.366-0.088 0.538-0.175 0.3-0.388 0.231-0.528 0.186-0.076-0.025-0.143-0.046-0.212-0.030-0.006 0.053 0.039 0.202 0.073 0.312 0.077 0.254 0.183 0.602 0.126 0.953-0.032 0.196-0.091 0.316-0.185 0.377-0.11 0.072-0.226 0.042-0.32 0.018-0.124-0.032-0.148-0.029-0.183 0.023-0.135 0.197-0.174 0.376-0.226 0.624-0.022 0.105-0.047 0.223-0.083 0.357-0.055 0.208-0.163 0.354-0.319 0.433-0.236 0.12-0.575 0.087-1.069-0.104-0.417-0.161-0.794-0.198-1.040-0.201-0.001 0-0.001 0-0.003 0-0.108 0-0.203 0.050-0.309 0.128-0.708 0.679-1.488 1.063-2.257 1.097-0.148 0.007-0.303 0.001-0.462-0.013-0.172 0.043-0.277 0.177-0.32 0.305-0.052 0.159-0.034 0.382 0.172 0.531 0.527 0.38 1.092 0.707 1.683 0.974 0.178 0.081 0.356 0.145 0.534 0.195 0.077-0.059 0.44-0.347 0.774-0.843-0.025-0.059-0.177-0.413-0.194-0.727-0.010-0.157-0.014-0.358 0.012-0.428l0.229 0.086c0 0 0.001-0.003 0.003-0.010 0 0.003-0.015 0.072 0.001 0.337 0.008 0.165 0.065 0.35 0.11 0.48 0.372-0.647 0.428-0.877 0.428-0.88 0.015-0.066 0.080-0.108 0.146-0.094s0.108 0.078 0.094 0.144c-0.004 0.027-0.065 0.282-0.486 1.005-0.286 0.491-0.618 0.825-0.817 0.999zM155.698 9.586c0.062 0.14 0.229 0.48 0.519 0.819 0.291 0.338 0.629 0.585 0.774 0.683l0.458-0.37c-0.167-0.129-0.437-0.339-0.61-0.487-0.455-0.391-0.782-0.842-0.796-0.861-0.006-0.008-0.011-0.016-0.014-0.024-0.015-0.019-0.032-0.044-0.052-0.075l-0.279 0.315zM156.513 9.561c0.13 0.147 0.297 0.322 0.486 0.484 0.116 0.099 0.28 0.23 0.425 0.343-0.006-0.090 0.007-0.183 0.037-0.275 0.036-0.108 0.094-0.202 0.167-0.278-0.422-0.071-0.829-0.185-1.114-0.275zM156.23 9.205c0.167 0.062 1.003 0.356 1.77 0.434 0.048-0.009 0.098-0.013 0.149-0.012 0.237 0.004 0.463-0.013 0.673-0.051 0.768-0.141 1.269-0.562 1.568-0.814 0.054-0.044 0.101-0.084 0.143-0.117 0.012-0.010 0.026-0.021 0.040-0.031 0.211-0.205 0.417-0.438 0.614-0.697 0.778-1.027 0.73-1.518 0.706-1.754l-0.003-0.034c-0.006-0.061-0.040-0.172-0.076-0.289-0.094-0.304-0.223-0.721-0.102-1.028 0.113-0.284 0.4-0.309 0.676-0.334 0.199-0.018 0.404-0.036 0.564-0.142 0.343-0.228 0.171-0.814 0.014-1.124-0.061-0.123-0.138-0.215-0.204-0.296-0.116-0.139-0.234-0.284-0.179-0.501 0.034-0.139 0.13-0.229 0.223-0.315 0.117-0.11 0.219-0.205 0.215-0.402-0.006-0.195-0.061-0.216-0.16-0.253-0.068-0.025-0.15-0.057-0.212-0.139-0.11-0.146-0.047-0.27-0.001-0.361 0.033-0.065 0.063-0.126 0.062-0.218-0.001-0.115-0.179-0.301-0.339-0.431-0.124 0.146-0.415 0.405-1.063 0.695-0.37 0.166-0.65 0.199-0.946 0.235-0.462 0.056-0.988 0.119-2.051 0.733-1.25 0.722-1.779 1.639-2.097 2.187-0.040 0.070-0.077 0.134-0.112 0.189-0.026 0.044-0.076 0.147-0.116 0.23-0.029 0.060-0.057 0.115-0.074 0.149-0.274 0.512-0.39 1.19-0.348 2.016 0.183-0.619 0.559-1.539 1.301-2.394 1.244-1.433 3.661-2.216 3.763-2.248 0.065-0.020 0.134 0.015 0.154 0.080s-0.015 0.134-0.080 0.154c-0.023 0.007-2.219 0.719-3.466 1.975 0.241 0.080 0.803 0.239 1.193 0.15 0.16-0.037 0.298-0.071 0.421-0.102 0.302-0.076 0.521-0.131 0.778-0.141 0.003-0 0.004-0 0.006-0 0.066 0 0.12 0.052 0.123 0.118 0.003 0.068-0.051 0.125-0.119 0.127-0.221 0.009-0.419 0.057-0.687 0.124l0.239 0.23c0.050 0.047 0.051 0.125 0.004 0.174s-0.124 0.051-0.174 0.004l-0.35-0.337c-0.058 0.014-0.12 0.029-0.186 0.044-0.534 0.122-1.286-0.139-1.43-0.193 0 0.001-0.001 0.002-0.003 0.003-0.397 0.459-0.687 0.942-0.894 1.382 0.327-0.178 0.861-0.408 1.2-0.238 0.225 0.113 0.397 0.316 0.563 0.512 0.182 0.214 0.353 0.417 0.578 0.493 0.065 0.022 0.099 0.091 0.077 0.156s-0.091 0.099-0.156 0.077c-0.288-0.098-0.491-0.336-0.686-0.567-0.072-0.084-0.141-0.165-0.211-0.238-0.052 0.16-0.138 0.461-0.141 0.708-0.004 0.351 0.171 0.847 0.172 0.852 0.023 0.064-0.010 0.134-0.074 0.157-0.063 0.023-0.134-0.011-0.156-0.074-0.008-0.022-0.192-0.543-0.188-0.938 0.004-0.347 0.145-0.765 0.185-0.875-0.025-0.016-0.048-0.030-0.074-0.042-0.305-0.153-1.008 0.239-1.23 0.389-0.008 0.006-0.018 0.010-0.026 0.013-0.277 0.699-0.345 1.217-0.346 1.226 0 0.001 0 0.002 0 0.003 0.17 1.111 0.508 1.608 0.588 1.713zM161.086 8.43c0.265 0.006 0.657 0.051 1.086 0.217 0.412 0.16 0.705 0.198 0.87 0.114 0.091-0.047 0.154-0.138 0.192-0.278 0.034-0.127 0.058-0.237 0.080-0.344 0.054-0.255 0.101-0.476 0.265-0.713 0.138-0.2 0.331-0.151 0.446-0.121 0.050 0.013 0.106 0.027 0.126 0.015 0.008-0.005 0.048-0.040 0.077-0.212 0.048-0.294-0.044-0.598-0.119-0.841-0.069-0.226-0.119-0.389-0.051-0.511 0.021-0.038 0.063-0.087 0.143-0.108 0.142-0.037 0.261 0.001 0.356 0.032 0.135 0.043 0.167 0.054 0.243-0.076 0.063-0.111 0.059-0.254 0.054-0.405-0.008-0.233-0.018-0.52 0.254-0.726-0.088-0.162-0.412-0.712-0.905-1.144-0.517-0.454-1.204-0.801-1.371-0.882-0.004 0.009-0.007 0.019-0.010 0.028-0.022 0.089 0.014 0.143 0.131 0.285 0.072 0.087 0.16 0.195 0.234 0.342 0.24 0.475 0.357 1.138-0.097 1.439-0.212 0.141-0.461 0.163-0.679 0.182-0.263 0.024-0.415 0.043-0.469 0.18-0.091 0.227 0.023 0.595 0.108 0.865 0.041 0.135 0.077 0.252 0.086 0.339l0.003 0.032c0.026 0.267 0.081 0.823-0.754 1.926-0.098 0.128-0.197 0.25-0.298 0.365z"></path>
<path d="M46.621 14.393c0 0.548-0.119 1.086-0.356 1.61-0.274 0.604-0.609 1.184-0.998 1.724-0.017 0.024-0.035 0.046-0.054 0.067l0.468 0.581c0.033 0.040 0.036 0.097 0.009 0.141-0.012 0.020-0.308 0.498-0.78 0.902-0.474 0.406-0.939 0.584-0.959 0.591-0.042 0.016-0.091 0.007-0.125-0.023l-0.404-0.357c-0.010-0.009-0.018-0.019-0.024-0.029-0.355 0.182-1.017 0.427-2.105 0.516-0.964 0.078-1.755-0.044-2.35-0.362-0.032-0.017-0.084-0.042-0.14-0.070-0.096-0.047-0.196-0.095-0.251-0.128s-0.115-0.068-0.184-0.108c-0.532-0.307-1.522-0.879-2.276-2.186-0.639-1.107-0.706-1.659-0.765-2.145-0.035-0.289-0.065-0.539-0.216-0.875-0.383-0.855-0.696-1.026-0.699-1.028-0.031-0.016-0.055-0.046-0.063-0.080s-0.003-0.071 0.017-0.1c0.062-0.090 0.387-0.537 0.701-0.542 0.152-0.002 0.257 0.050 0.333 0.089 0.078 0.040 0.080 0.038 0.102 0.021 0.024-0.018 0.037-0.051 0.056-0.102 0.046-0.123 0.117-0.31 0.477-0.319 0.287-0.007 0.448 0.145 0.564 0.268 0.122-0.244 0.454-0.869 0.889-1.364 0.281-0.32 0.609-0.571 0.835-0.726 0.172-0.118 0.286-0.189 0.364-0.229-0.086-0.158-0.122-0.265-0.151-0.349-0.034-0.098-0.052-0.152-0.131-0.237-0.262-0.282-0.056-0.742-0.017-0.798 0.022-0.031 0.056-0.052 0.094-0.056 0.070-0.008 0.114 0.032 0.193 0.105 0.131 0.121 0.405 0.374 0.869 0.495 0.416 0.109 0.899 0.086 1.325 0.066 0.269-0.013 0.523-0.025 0.724-0 0.657 0.079 2.023 0.244 3.146 1.251 0.537 0.482 1.006 1.086 1.335 1.711 0.008 0.011 0.014 0.023 0.019 0.036 0.080 0.154 0.151 0.31 0.212 0.464 0.211 0.531 0.316 1.057 0.316 1.573zM46.306 15.066c0.172-0.916-0.034-1.808-0.427-2.586-0.11-0.054-0.477-0.21-1.033-0.198-0.655 0.014-0.862 0.127-0.864 0.128-0.058 0.033-0.133 0.014-0.167-0.043s-0.018-0.131 0.039-0.166c0.024-0.015 0.258-0.149 0.987-0.164 0.362-0.007 0.651 0.049 0.854 0.11-0.316-0.528-0.712-0.991-1.121-1.357-0.212-0.19-0.434-0.349-0.658-0.481-0.11 0.045-0.427 0.146-0.96 0.091-0.621-0.064-0.959-0.087-0.962-0.088-0.068-0.005-0.118-0.064-0.114-0.131 0.005-0.068 0.063-0.119 0.131-0.114 0.003 0 0.345 0.024 0.971 0.088 0.273 0.028 0.481 0.011 0.624-0.015-0.803-0.392-1.594-0.487-2.042-0.541-0.18-0.022-0.425-0.010-0.683 0.002-0.444 0.021-0.947 0.044-1.398-0.074-0.483-0.126-0.779-0.375-0.937-0.519-0.030 0.114-0.046 0.275 0.041 0.368 0.114 0.123 0.146 0.216 0.183 0.324 0.035 0.102 0.078 0.229 0.215 0.449 0.126 0.204 0.291 0.209 0.551 0.2 0.172-0.006 0.366-0.013 0.538 0.087 0.301 0.175 0.231 0.388 0.186 0.529-0.025 0.076-0.046 0.143-0.030 0.212 0.053 0.007 0.202-0.039 0.312-0.072 0.254-0.077 0.602-0.183 0.953-0.126 0.196 0.032 0.316 0.091 0.378 0.185 0.072 0.11 0.042 0.227 0.018 0.321-0.032 0.123-0.029 0.147 0.022 0.183 0.197 0.136 0.376 0.174 0.624 0.226 0.105 0.022 0.223 0.047 0.357 0.083 0.209 0.056 0.354 0.163 0.433 0.318 0.12 0.236 0.087 0.576-0.104 1.070-0.161 0.416-0.198 0.795-0.201 1.039 0 0.001 0 0.002 0 0.004 0 0.106 0.050 0.203 0.128 0.309 0.679 0.708 1.063 1.487 1.097 2.256 0.007 0.148 0.001 0.305-0.013 0.463 0.043 0.173 0.177 0.277 0.305 0.319 0.159 0.053 0.382 0.035 0.531-0.172 0.379-0.527 0.707-1.093 0.974-1.682 0.081-0.178 0.145-0.356 0.195-0.534-0.059-0.078-0.347-0.441-0.843-0.775-0.059 0.026-0.413 0.177-0.727 0.195-0.157 0.009-0.358 0.014-0.428-0.012l0.086-0.23c0 0-0.003-0.002-0.010-0.003 0.003 0.001 0.072 0.015 0.337-0 0.165-0.010 0.35-0.065 0.48-0.111-0.647-0.373-0.877-0.428-0.88-0.428-0.066-0.015-0.108-0.080-0.094-0.145s0.078-0.108 0.144-0.095c0.027 0.005 0.282 0.065 1.005 0.486 0.491 0.286 0.825 0.618 0.999 0.816zM43.931 19.751c0.14-0.062 0.48-0.23 0.819-0.52s0.585-0.628 0.683-0.773l-0.37-0.459c-0.129 0.168-0.339 0.438-0.487 0.61-0.391 0.455-0.842 0.783-0.861 0.797-0.008 0.006-0.016 0.010-0.024 0.014-0.019 0.014-0.044 0.032-0.075 0.053l0.315 0.278zM43.906 18.935c0.147-0.129 0.322-0.297 0.484-0.485 0.099-0.115 0.23-0.279 0.343-0.425-0.090 0.005-0.183-0.007-0.274-0.037-0.108-0.036-0.202-0.094-0.278-0.167-0.071 0.423-0.185 0.829-0.275 1.114zM43.55 19.218c0.062-0.168 0.356-1.003 0.434-1.771-0.009-0.048-0.013-0.098-0.012-0.148 0.004-0.237-0.013-0.463-0.051-0.673-0.141-0.769-0.562-1.27-0.814-1.569-0.044-0.053-0.084-0.1-0.117-0.142-0.010-0.013-0.021-0.027-0.031-0.040-0.205-0.212-0.438-0.417-0.697-0.614-1.027-0.778-1.518-0.73-1.754-0.706l-0.034 0.003c-0.061 0.005-0.172 0.040-0.289 0.076-0.304 0.094-0.721 0.223-1.028 0.101-0.284-0.112-0.309-0.399-0.334-0.676-0.018-0.199-0.036-0.404-0.142-0.564-0.228-0.343-0.814-0.17-1.124-0.014-0.123 0.062-0.215 0.138-0.296 0.205-0.139 0.115-0.284 0.234-0.501 0.18-0.139-0.035-0.229-0.131-0.315-0.224-0.11-0.118-0.205-0.22-0.402-0.215-0.195 0.005-0.216 0.060-0.253 0.16-0.025 0.067-0.057 0.15-0.139 0.212-0.146 0.11-0.27 0.047-0.361 0.001-0.065-0.033-0.126-0.064-0.218-0.062-0.115 0.002-0.301 0.179-0.431 0.339 0.146 0.125 0.405 0.416 0.695 1.064 0.166 0.37 0.199 0.65 0.235 0.946 0.056 0.463 0.119 0.988 0.734 2.052 0.722 1.25 1.639 1.78 2.187 2.096 0.070 0.041 0.134 0.078 0.189 0.111 0.044 0.027 0.147 0.077 0.23 0.117 0.060 0.029 0.115 0.056 0.149 0.074 0.512 0.274 1.19 0.391 2.016 0.347-0.619-0.184-1.539-0.558-2.394-1.301-1.433-1.244-2.216-3.66-2.248-3.763-0.020-0.065 0.015-0.134 0.080-0.154s0.134 0.015 0.154 0.080c0.007 0.023 0.719 2.22 1.975 3.466 0.080-0.242 0.239-0.802 0.15-1.192-0.037-0.16-0.071-0.299-0.102-0.421-0.076-0.303-0.131-0.521-0.141-0.779-0-0.002-0-0.003-0-0.005 0-0.066 0.052-0.12 0.118-0.122 0.068-0.003 0.125 0.050 0.127 0.118 0.009 0.221 0.057 0.42 0.124 0.687l0.23-0.239c0.047-0.049 0.125-0.050 0.174-0.004s0.050 0.125 0.004 0.173l-0.337 0.35c0.014 0.059 0.029 0.121 0.044 0.186 0.122 0.534-0.139 1.285-0.193 1.43 0.001 0.001 0.002 0.002 0.003 0.003 0.459 0.398 0.942 0.687 1.382 0.895-0.178-0.327-0.408-0.861-0.238-1.2 0.113-0.226 0.315-0.397 0.512-0.563 0.214-0.182 0.417-0.353 0.493-0.578 0.022-0.064 0.091-0.098 0.156-0.077s0.099 0.091 0.077 0.155c-0.098 0.289-0.336 0.491-0.567 0.686-0.084 0.071-0.165 0.14-0.238 0.211 0.159 0.051 0.461 0.137 0.708 0.14 0.351 0.004 0.847-0.171 0.852-0.173 0.064-0.023 0.134 0.011 0.157 0.074s-0.010 0.134-0.074 0.157c-0.022 0.008-0.543 0.191-0.938 0.187-0.347-0.004-0.765-0.145-0.875-0.184-0.015 0.024-0.030 0.048-0.042 0.073-0.153 0.306 0.239 1.009 0.389 1.231 0.006 0.008 0.010 0.017 0.014 0.026 0.699 0.277 1.217 0.344 1.226 0.345 0.001 0 0.002 0 0.003 0.001 1.111-0.169 1.608-0.507 1.713-0.587zM42.775 14.362c0.006-0.265 0.051-0.657 0.217-1.085 0.16-0.412 0.198-0.705 0.114-0.87-0.047-0.092-0.138-0.155-0.278-0.192-0.127-0.034-0.237-0.057-0.344-0.080-0.255-0.054-0.476-0.101-0.713-0.264-0.2-0.138-0.151-0.331-0.121-0.446 0.013-0.050 0.027-0.106 0.015-0.125-0.005-0.008-0.040-0.049-0.212-0.077-0.294-0.048-0.598 0.044-0.841 0.118-0.226 0.069-0.39 0.119-0.511 0.051-0.038-0.021-0.087-0.063-0.108-0.144-0.037-0.141 0.001-0.26 0.032-0.356 0.043-0.134 0.054-0.166-0.076-0.242-0.11-0.064-0.254-0.059-0.406-0.054-0.233 0.008-0.52 0.018-0.726-0.254-0.162 0.089-0.712 0.413-1.144 0.905-0.454 0.517-0.801 1.204-0.882 1.371 0.009 0.004 0.019 0.007 0.028 0.010 0.089 0.022 0.143-0.014 0.285-0.131 0.087-0.072 0.195-0.161 0.342-0.235 0.475-0.239 1.138-0.357 1.439 0.097 0.141 0.212 0.163 0.459 0.182 0.678 0.023 0.264 0.043 0.415 0.18 0.47 0.227 0.090 0.595-0.024 0.865-0.108 0.135-0.042 0.252-0.078 0.339-0.086l0.032-0.003c0.267-0.026 0.823-0.081 1.926 0.755 0.128 0.097 0.25 0.196 0.365 0.297z"></path>
<path d="M80.966 14.393c0 0.548-0.119 1.086-0.356 1.61-0.274 0.604-0.609 1.184-0.998 1.724-0.017 0.024-0.035 0.046-0.054 0.067l0.468 0.581c0.033 0.040 0.036 0.097 0.009 0.141-0.012 0.020-0.308 0.498-0.78 0.902-0.474 0.406-0.939 0.584-0.959 0.591-0.042 0.016-0.091 0.007-0.125-0.023l-0.404-0.357c-0.010-0.009-0.018-0.019-0.024-0.029-0.355 0.182-1.017 0.427-2.105 0.516-0.964 0.078-1.755-0.044-2.35-0.362-0.032-0.017-0.084-0.042-0.14-0.070-0.096-0.047-0.196-0.095-0.251-0.128s-0.115-0.068-0.184-0.108c-0.532-0.307-1.522-0.879-2.276-2.186-0.639-1.107-0.706-1.659-0.765-2.145-0.035-0.289-0.065-0.539-0.216-0.875-0.383-0.855-0.696-1.026-0.699-1.028-0.031-0.016-0.055-0.046-0.063-0.080s-0.003-0.071 0.017-0.1c0.062-0.090 0.387-0.537 0.701-0.542 0.152-0.002 0.257 0.050 0.333 0.089 0.078 0.040 0.080 0.038 0.102 0.021 0.024-0.018 0.037-0.051 0.056-0.102 0.046-0.123 0.117-0.31 0.477-0.319 0.287-0.007 0.448 0.145 0.564 0.268 0.122-0.244 0.454-0.869 0.889-1.364 0.281-0.32 0.609-0.571 0.835-0.726 0.172-0.118 0.286-0.189 0.364-0.229-0.086-0.158-0.122-0.265-0.151-0.349-0.034-0.098-0.052-0.152-0.131-0.237-0.262-0.282-0.056-0.742-0.017-0.798 0.022-0.031 0.056-0.052 0.094-0.056 0.070-0.008 0.114 0.032 0.193 0.105 0.131 0.121 0.405 0.374 0.869 0.495 0.416 0.109 0.899 0.086 1.325 0.066 0.269-0.013 0.523-0.025 0.724-0 0.657 0.079 2.023 0.244 3.146 1.251 0.537 0.482 1.006 1.086 1.335 1.711 0.008 0.011 0.014 0.023 0.019 0.036 0.080 0.154 0.151 0.31 0.212 0.464 0.211 0.531 0.316 1.057 0.316 1.573zM80.651 15.066c0.172-0.916-0.034-1.808-0.427-2.586-0.11-0.054-0.477-0.21-1.033-0.198-0.655 0.014-0.862 0.127-0.864 0.128-0.058 0.033-0.133 0.014-0.167-0.043s-0.018-0.131 0.039-0.166c0.024-0.015 0.258-0.149 0.987-0.164 0.362-0.007 0.651 0.049 0.854 0.11-0.316-0.528-0.712-0.991-1.121-1.357-0.212-0.19-0.434-0.349-0.658-0.481-0.11 0.045-0.427 0.146-0.96 0.091-0.621-0.064-0.959-0.087-0.962-0.088-0.068-0.005-0.118-0.064-0.114-0.131 0.005-0.068 0.063-0.119 0.131-0.114 0.003 0 0.345 0.024 0.971 0.088 0.273 0.028 0.481 0.011 0.624-0.015-0.803-0.392-1.594-0.487-2.042-0.541-0.18-0.022-0.425-0.010-0.683 0.002-0.444 0.021-0.947 0.044-1.398-0.074-0.483-0.126-0.779-0.375-0.937-0.519-0.030 0.114-0.046 0.275 0.041 0.368 0.114 0.123 0.146 0.216 0.183 0.324 0.035 0.102 0.078 0.229 0.215 0.449 0.126 0.204 0.291 0.209 0.551 0.2 0.172-0.006 0.366-0.013 0.538 0.087 0.301 0.175 0.231 0.388 0.186 0.529-0.025 0.076-0.046 0.143-0.030 0.212 0.053 0.007 0.202-0.039 0.312-0.072 0.254-0.077 0.602-0.183 0.953-0.126 0.196 0.032 0.316 0.091 0.378 0.185 0.072 0.11 0.042 0.227 0.018 0.321-0.032 0.123-0.029 0.147 0.022 0.183 0.197 0.136 0.376 0.174 0.624 0.226 0.105 0.022 0.223 0.047 0.357 0.083 0.209 0.056 0.354 0.163 0.433 0.318 0.12 0.236 0.087 0.576-0.104 1.070-0.161 0.416-0.198 0.795-0.201 1.039 0 0.001 0 0.002 0 0.004 0 0.106 0.050 0.203 0.128 0.309 0.679 0.708 1.063 1.487 1.097 2.256 0.007 0.148 0.001 0.305-0.013 0.463 0.043 0.173 0.177 0.277 0.305 0.319 0.159 0.053 0.382 0.035 0.531-0.172 0.379-0.527 0.707-1.093 0.974-1.682 0.081-0.178 0.145-0.356 0.195-0.534-0.059-0.078-0.347-0.441-0.843-0.775-0.059 0.026-0.413 0.177-0.727 0.195-0.157 0.009-0.358 0.014-0.428-0.012l0.086-0.23c0 0-0.003-0.002-0.010-0.003 0.003 0.001 0.072 0.015 0.337-0 0.165-0.010 0.35-0.065 0.48-0.111-0.647-0.373-0.877-0.428-0.88-0.428-0.066-0.015-0.108-0.080-0.094-0.145s0.078-0.108 0.144-0.095c0.027 0.005 0.282 0.065 1.005 0.486 0.491 0.286 0.825 0.618 0.999 0.816zM78.276 19.751c0.14-0.062 0.48-0.23 0.819-0.52s0.585-0.628 0.683-0.773l-0.37-0.459c-0.129 0.168-0.339 0.438-0.487 0.61-0.391 0.455-0.842 0.783-0.861 0.797-0.008 0.006-0.016 0.010-0.024 0.014-0.019 0.014-0.044 0.032-0.075 0.053l0.315 0.278zM78.25 18.935c0.147-0.129 0.322-0.297 0.484-0.485 0.099-0.115 0.23-0.279 0.343-0.425-0.090 0.005-0.183-0.007-0.274-0.037-0.108-0.036-0.202-0.094-0.278-0.167-0.071 0.423-0.185 0.829-0.275 1.114zM77.894 19.218c0.062-0.168 0.356-1.003 0.434-1.771-0.009-0.048-0.013-0.098-0.012-0.148 0.004-0.237-0.013-0.463-0.051-0.673-0.141-0.769-0.562-1.27-0.814-1.569-0.044-0.053-0.084-0.1-0.117-0.142-0.010-0.013-0.021-0.027-0.031-0.040-0.205-0.212-0.438-0.417-0.697-0.614-1.027-0.778-1.518-0.73-1.754-0.706l-0.034 0.003c-0.061 0.005-0.172 0.040-0.289 0.076-0.304 0.094-0.721 0.223-1.028 0.101-0.284-0.112-0.309-0.399-0.334-0.676-0.018-0.199-0.036-0.404-0.142-0.564-0.228-0.343-0.814-0.17-1.124-0.014-0.123 0.062-0.215 0.138-0.296 0.205-0.139 0.115-0.284 0.234-0.501 0.18-0.139-0.035-0.229-0.131-0.315-0.224-0.11-0.118-0.205-0.22-0.402-0.215-0.195 0.005-0.216 0.060-0.253 0.16-0.025 0.067-0.057 0.15-0.139 0.212-0.146 0.11-0.27 0.047-0.361 0.001-0.065-0.033-0.126-0.064-0.218-0.062-0.115 0.002-0.301 0.179-0.431 0.339 0.146 0.125 0.405 0.416 0.695 1.064 0.166 0.37 0.199 0.65 0.235 0.946 0.056 0.463 0.119 0.988 0.734 2.052 0.722 1.25 1.639 1.78 2.187 2.096 0.070 0.041 0.134 0.078 0.189 0.111 0.044 0.027 0.147 0.077 0.23 0.117 0.060 0.029 0.115 0.056 0.149 0.074 0.512 0.274 1.19 0.391 2.016 0.347-0.619-0.184-1.539-0.558-2.394-1.301-1.433-1.244-2.216-3.66-2.248-3.763-0.020-0.065 0.015-0.134 0.080-0.154s0.134 0.015 0.154 0.080c0.007 0.023 0.719 2.22 1.975 3.466 0.080-0.242 0.239-0.802 0.15-1.192-0.037-0.16-0.071-0.299-0.102-0.421-0.076-0.303-0.131-0.521-0.141-0.779-0-0.002-0-0.003-0-0.005 0-0.066 0.052-0.12 0.118-0.122 0.068-0.003 0.125 0.050 0.127 0.118 0.009 0.221 0.057 0.42 0.124 0.687l0.23-0.239c0.047-0.049 0.125-0.050 0.174-0.004s0.050 0.125 0.004 0.173l-0.337 0.35c0.014 0.059 0.029 0.121 0.044 0.186 0.122 0.534-0.139 1.285-0.193 1.43 0.001 0.001 0.002 0.002 0.003 0.003 0.459 0.398 0.942 0.687 1.382 0.895-0.178-0.327-0.408-0.861-0.238-1.2 0.113-0.226 0.315-0.397 0.512-0.563 0.214-0.182 0.417-0.353 0.493-0.578 0.022-0.064 0.091-0.098 0.156-0.077s0.099 0.091 0.077 0.155c-0.098 0.289-0.336 0.491-0.567 0.686-0.084 0.071-0.165 0.14-0.238 0.211 0.159 0.051 0.461 0.137 0.708 0.14 0.351 0.004 0.847-0.171 0.852-0.173 0.064-0.023 0.134 0.011 0.157 0.074s-0.010 0.134-0.074 0.157c-0.022 0.008-0.543 0.191-0.938 0.187-0.347-0.004-0.765-0.145-0.875-0.184-0.015 0.024-0.030 0.048-0.042 0.073-0.153 0.306 0.239 1.009 0.389 1.231 0.006 0.008 0.010 0.017 0.014 0.026 0.699 0.277 1.217 0.344 1.226 0.345 0.001 0 0.002 0 0.003 0.001 1.111-0.169 1.608-0.507 1.713-0.587zM77.12 14.362c0.006-0.265 0.051-0.657 0.217-1.085 0.16-0.412 0.198-0.705 0.114-0.87-0.047-0.092-0.138-0.155-0.278-0.192-0.127-0.034-0.237-0.057-0.344-0.080-0.255-0.054-0.476-0.101-0.713-0.264-0.2-0.138-0.151-0.331-0.121-0.446 0.013-0.050 0.027-0.106 0.015-0.125-0.005-0.008-0.040-0.049-0.212-0.077-0.294-0.048-0.598 0.044-0.841 0.118-0.226 0.069-0.39 0.119-0.511 0.051-0.038-0.021-0.087-0.063-0.108-0.144-0.037-0.141 0.001-0.26 0.032-0.356 0.043-0.134 0.054-0.166-0.076-0.242-0.11-0.064-0.254-0.059-0.406-0.054-0.233 0.008-0.52 0.018-0.726-0.254-0.162 0.089-0.712 0.413-1.144 0.905-0.454 0.517-0.801 1.204-0.882 1.371 0.009 0.004 0.019 0.007 0.028 0.010 0.089 0.022 0.143-0.014 0.285-0.131 0.087-0.072 0.195-0.161 0.342-0.235 0.475-0.239 1.138-0.357 1.439 0.097 0.141 0.212 0.163 0.459 0.182 0.678 0.023 0.264 0.043 0.415 0.18 0.47 0.227 0.090 0.595-0.024 0.865-0.108 0.135-0.042 0.252-0.078 0.339-0.086l0.032-0.003c0.267-0.026 0.823-0.081 1.926 0.755 0.128 0.097 0.25 0.196 0.365 0.297z"></path>
<path d="M115.31 14.393c0 0.548-0.119 1.086-0.356 1.61-0.274 0.604-0.609 1.184-0.998 1.724-0.017 0.024-0.035 0.046-0.054 0.067l0.468 0.581c0.033 0.040 0.036 0.097 0.009 0.141-0.012 0.020-0.308 0.498-0.78 0.902-0.474 0.406-0.939 0.584-0.959 0.591-0.042 0.016-0.091 0.007-0.125-0.023l-0.404-0.357c-0.010-0.009-0.018-0.019-0.024-0.029-0.355 0.182-1.017 0.427-2.105 0.516-0.964 0.078-1.755-0.044-2.35-0.362-0.032-0.017-0.084-0.042-0.14-0.070-0.096-0.047-0.196-0.095-0.251-0.128s-0.115-0.068-0.184-0.108c-0.532-0.307-1.522-0.879-2.276-2.186-0.639-1.107-0.706-1.659-0.765-2.145-0.035-0.289-0.065-0.539-0.216-0.875-0.383-0.855-0.696-1.026-0.699-1.028-0.031-0.016-0.055-0.046-0.063-0.080s-0.003-0.071 0.017-0.1c0.062-0.090 0.387-0.537 0.701-0.542 0.152-0.002 0.257 0.050 0.333 0.089 0.078 0.040 0.080 0.038 0.102 0.021 0.024-0.018 0.037-0.051 0.056-0.102 0.046-0.123 0.117-0.31 0.477-0.319 0.287-0.007 0.448 0.145 0.564 0.268 0.122-0.244 0.454-0.869 0.889-1.364 0.281-0.32 0.609-0.571 0.835-0.726 0.172-0.118 0.286-0.189 0.364-0.229-0.086-0.158-0.122-0.265-0.151-0.349-0.034-0.098-0.052-0.152-0.131-0.237-0.262-0.282-0.056-0.742-0.017-0.798 0.022-0.031 0.056-0.052 0.094-0.056 0.070-0.008 0.114 0.032 0.193 0.105 0.131 0.121 0.405 0.374 0.869 0.495 0.416 0.109 0.899 0.086 1.325 0.066 0.269-0.013 0.523-0.025 0.724-0 0.657 0.079 2.023 0.244 3.146 1.251 0.537 0.482 1.006 1.086 1.335 1.711 0.008 0.011 0.014 0.023 0.019 0.036 0.080 0.154 0.151 0.31 0.212 0.464 0.211 0.531 0.316 1.057 0.316 1.573zM114.996 15.066c0.172-0.916-0.034-1.808-0.427-2.586-0.11-0.054-0.477-0.21-1.033-0.198-0.655 0.014-0.862 0.127-0.864 0.128-0.058 0.033-0.133 0.014-0.167-0.043s-0.018-0.131 0.039-0.166c0.024-0.015 0.258-0.149 0.987-0.164 0.362-0.007 0.651 0.049 0.854 0.11-0.316-0.528-0.712-0.991-1.121-1.357-0.212-0.19-0.434-0.349-0.658-0.481-0.11 0.045-0.427 0.146-0.96 0.091-0.621-0.064-0.959-0.087-0.962-0.088-0.068-0.005-0.118-0.064-0.114-0.131 0.005-0.068 0.063-0.119 0.131-0.114 0.003 0 0.345 0.024 0.971 0.088 0.273 0.028 0.481 0.011 0.624-0.015-0.803-0.392-1.594-0.487-2.042-0.541-0.18-0.022-0.425-0.010-0.683 0.002-0.444 0.021-0.947 0.044-1.398-0.074-0.483-0.126-0.779-0.375-0.937-0.519-0.030 0.114-0.046 0.275 0.041 0.368 0.114 0.123 0.146 0.216 0.183 0.324 0.035 0.102 0.078 0.229 0.215 0.449 0.126 0.204 0.291 0.209 0.551 0.2 0.172-0.006 0.366-0.013 0.538 0.087 0.301 0.175 0.231 0.388 0.186 0.529-0.025 0.076-0.046 0.143-0.030 0.212 0.053 0.007 0.202-0.039 0.312-0.072 0.254-0.077 0.602-0.183 0.953-0.126 0.196 0.032 0.316 0.091 0.378 0.185 0.072 0.11 0.042 0.227 0.018 0.321-0.032 0.123-0.029 0.147 0.022 0.183 0.197 0.136 0.376 0.174 0.624 0.226 0.105 0.022 0.223 0.047 0.357 0.083 0.209 0.056 0.354 0.163 0.433 0.318 0.12 0.236 0.087 0.576-0.104 1.070-0.161 0.416-0.198 0.795-0.201 1.039 0 0.001 0 0.002 0 0.004 0 0.106 0.050 0.203 0.128 0.309 0.679 0.708 1.063 1.487 1.097 2.256 0.007 0.148 0.001 0.305-0.013 0.463 0.043 0.173 0.177 0.277 0.305 0.319 0.159 0.053 0.382 0.035 0.531-0.172 0.379-0.527 0.707-1.093 0.974-1.682 0.081-0.178 0.145-0.356 0.195-0.534-0.059-0.078-0.347-0.441-0.843-0.775-0.059 0.026-0.413 0.177-0.727 0.195-0.157 0.009-0.358 0.014-0.428-0.012l0.086-0.23c0 0-0.003-0.002-0.010-0.003 0.003 0.001 0.072 0.015 0.337-0 0.165-0.010 0.35-0.065 0.48-0.111-0.647-0.373-0.877-0.428-0.88-0.428-0.066-0.015-0.108-0.080-0.094-0.145s0.078-0.108 0.144-0.095c0.027 0.005 0.282 0.065 1.005 0.486 0.491 0.286 0.825 0.618 0.999 0.816zM112.621 19.751c0.14-0.062 0.48-0.23 0.819-0.52s0.585-0.628 0.683-0.773l-0.37-0.459c-0.129 0.168-0.339 0.438-0.487 0.61-0.391 0.455-0.842 0.783-0.861 0.797-0.008 0.006-0.016 0.010-0.024 0.014-0.019 0.014-0.044 0.032-0.075 0.053l0.315 0.278zM112.595 18.935c0.147-0.129 0.322-0.297 0.484-0.485 0.099-0.115 0.23-0.279 0.343-0.425-0.090 0.005-0.183-0.007-0.274-0.037-0.108-0.036-0.202-0.094-0.278-0.167-0.071 0.423-0.185 0.829-0.275 1.114zM112.239 19.218c0.062-0.168 0.356-1.003 0.434-1.771-0.009-0.048-0.013-0.098-0.012-0.148 0.004-0.237-0.013-0.463-0.051-0.673-0.141-0.769-0.562-1.27-0.814-1.569-0.044-0.053-0.084-0.1-0.117-0.142-0.010-0.013-0.021-0.027-0.031-0.040-0.205-0.212-0.438-0.417-0.697-0.614-1.027-0.778-1.518-0.73-1.754-0.706l-0.034 0.003c-0.061 0.005-0.172 0.040-0.289 0.076-0.304 0.094-0.721 0.223-1.028 0.101-0.284-0.112-0.309-0.399-0.334-0.676-0.018-0.199-0.036-0.404-0.142-0.564-0.228-0.343-0.814-0.17-1.124-0.014-0.123 0.062-0.215 0.138-0.296 0.205-0.139 0.115-0.284 0.234-0.501 0.18-0.139-0.035-0.229-0.131-0.315-0.224-0.11-0.118-0.205-0.22-0.402-0.215-0.195 0.005-0.216 0.060-0.253 0.16-0.025 0.067-0.057 0.15-0.139 0.212-0.146 0.11-0.27 0.047-0.361 0.001-0.065-0.033-0.126-0.064-0.218-0.062-0.115 0.002-0.301 0.179-0.431 0.339 0.146 0.125 0.405 0.416 0.695 1.064 0.166 0.37 0.199 0.65 0.235 0.946 0.056 0.463 0.119 0.988 0.734 2.052 0.722 1.25 1.639 1.78 2.187 2.096 0.070 0.041 0.134 0.078 0.189 0.111 0.044 0.027 0.147 0.077 0.23 0.117 0.060 0.029 0.115 0.056 0.149 0.074 0.512 0.274 1.19 0.391 2.016 0.347-0.619-0.184-1.539-0.558-2.394-1.301-1.433-1.244-2.216-3.66-2.248-3.763-0.020-0.065 0.015-0.134 0.080-0.154s0.134 0.015 0.154 0.080c0.007 0.023 0.719 2.22 1.975 3.466 0.080-0.242 0.239-0.802 0.15-1.192-0.037-0.16-0.071-0.299-0.102-0.421-0.076-0.303-0.131-0.521-0.141-0.779-0-0.002-0-0.003-0-0.005 0-0.066 0.052-0.12 0.118-0.122 0.068-0.003 0.125 0.050 0.127 0.118 0.009 0.221 0.057 0.42 0.124 0.687l0.23-0.239c0.047-0.049 0.125-0.050 0.174-0.004s0.050 0.125 0.004 0.173l-0.337 0.35c0.014 0.059 0.029 0.121 0.044 0.186 0.122 0.534-0.139 1.285-0.193 1.43 0.001 0.001 0.002 0.002 0.003 0.003 0.459 0.398 0.942 0.687 1.382 0.895-0.178-0.327-0.408-0.861-0.238-1.2 0.113-0.226 0.315-0.397 0.512-0.563 0.214-0.182 0.417-0.353 0.493-0.578 0.022-0.064 0.091-0.098 0.156-0.077s0.099 0.091 0.077 0.155c-0.098 0.289-0.336 0.491-0.567 0.686-0.084 0.071-0.165 0.14-0.238 0.211 0.159 0.051 0.461 0.137 0.708 0.14 0.351 0.004 0.847-0.171 0.852-0.173 0.064-0.023 0.134 0.011 0.157 0.074s-0.010 0.134-0.074 0.157c-0.022 0.008-0.543 0.191-0.938 0.187-0.347-0.004-0.765-0.145-0.875-0.184-0.015 0.024-0.030 0.048-0.042 0.073-0.153 0.306 0.239 1.009 0.389 1.231 0.006 0.008 0.010 0.017 0.014 0.026 0.699 0.277 1.217 0.344 1.226 0.345 0.001 0 0.002 0 0.003 0.001 1.111-0.169 1.608-0.507 1.713-0.587zM111.465 14.362c0.006-0.265 0.051-0.657 0.217-1.085 0.16-0.412 0.198-0.705 0.114-0.87-0.047-0.092-0.138-0.155-0.278-0.192-0.127-0.034-0.237-0.057-0.344-0.080-0.255-0.054-0.476-0.101-0.713-0.264-0.2-0.138-0.151-0.331-0.121-0.446 0.013-0.050 0.027-0.106 0.015-0.125-0.005-0.008-0.040-0.049-0.212-0.077-0.294-0.048-0.598 0.044-0.841 0.118-0.226 0.069-0.39 0.119-0.511 0.051-0.038-0.021-0.087-0.063-0.108-0.144-0.037-0.141 0.001-0.26 0.032-0.356 0.043-0.134 0.054-0.166-0.076-0.242-0.11-0.064-0.254-0.059-0.406-0.054-0.233 0.008-0.52 0.018-0.726-0.254-0.162 0.089-0.712 0.413-1.144 0.905-0.454 0.517-0.801 1.204-0.882 1.371 0.009 0.004 0.019 0.007 0.028 0.010 0.089 0.022 0.143-0.014 0.285-0.131 0.087-0.072 0.195-0.161 0.342-0.235 0.475-0.239 1.138-0.357 1.439 0.097 0.141 0.212 0.163 0.459 0.182 0.678 0.023 0.264 0.043 0.415 0.18 0.47 0.227 0.090 0.595-0.024 0.865-0.108 0.135-0.042 0.252-0.078 0.339-0.086l0.032-0.003c0.267-0.026 0.823-0.081 1.926 0.755 0.128 0.097 0.25 0.196 0.365 0.297z"></path>
<path d="M149.655 14.393c0 0.548-0.119 1.086-0.356 1.61-0.273 0.604-0.61 1.184-0.999 1.724-0.017 0.024-0.034 0.046-0.054 0.067l0.468 0.581c0.033 0.040 0.036 0.097 0.010 0.141-0.012 0.020-0.308 0.498-0.781 0.902-0.473 0.406-0.939 0.584-0.959 0.591-0.043 0.016-0.090 0.007-0.124-0.023l-0.404-0.357c-0.010-0.009-0.018-0.019-0.025-0.029-0.354 0.182-1.017 0.427-2.105 0.516-0.964 0.078-1.754-0.044-2.349-0.362-0.033-0.017-0.084-0.042-0.141-0.070-0.097-0.047-0.196-0.095-0.251-0.128-0.054-0.033-0.116-0.068-0.183-0.108-0.532-0.307-1.523-0.879-2.277-2.186-0.639-1.107-0.705-1.659-0.764-2.145-0.034-0.289-0.065-0.539-0.215-0.875-0.383-0.855-0.696-1.026-0.7-1.028-0.031-0.016-0.055-0.046-0.063-0.080s-0.003-0.071 0.017-0.1c0.062-0.090 0.387-0.537 0.702-0.542 0.152-0.002 0.257 0.050 0.332 0.089 0.077 0.040 0.080 0.038 0.102 0.021 0.023-0.018 0.037-0.051 0.057-0.102 0.046-0.123 0.116-0.31 0.477-0.319 0.287-0.007 0.447 0.145 0.564 0.268 0.121-0.244 0.454-0.869 0.888-1.364 0.28-0.32 0.61-0.571 0.834-0.726 0.172-0.118 0.287-0.189 0.364-0.229-0.086-0.158-0.123-0.265-0.15-0.349-0.034-0.098-0.052-0.152-0.131-0.237-0.262-0.282-0.057-0.742-0.018-0.798 0.022-0.031 0.057-0.052 0.094-0.056 0.070-0.008 0.114 0.032 0.193 0.105 0.131 0.121 0.406 0.374 0.869 0.495 0.415 0.109 0.898 0.086 1.324 0.066 0.269-0.013 0.524-0.025 0.724-0 0.657 0.079 2.023 0.244 3.146 1.251 0.538 0.482 1.007 1.086 1.335 1.711 0.008 0.011 0.015 0.023 0.019 0.036 0.080 0.154 0.15 0.31 0.212 0.464 0.211 0.531 0.316 1.057 0.316 1.573zM149.341 15.066c0.171-0.916-0.034-1.808-0.428-2.586-0.109-0.054-0.477-0.21-1.033-0.198-0.654 0.014-0.861 0.127-0.863 0.128-0.058 0.033-0.132 0.014-0.167-0.043s-0.018-0.131 0.039-0.166c0.025-0.015 0.258-0.149 0.988-0.164 0.361-0.007 0.65 0.049 0.854 0.11-0.316-0.528-0.712-0.991-1.12-1.357-0.212-0.19-0.434-0.349-0.659-0.481-0.109 0.045-0.426 0.146-0.96 0.091-0.619-0.064-0.959-0.087-0.961-0.088-0.068-0.005-0.119-0.064-0.114-0.131 0.004-0.068 0.063-0.119 0.131-0.114 0.003 0 0.345 0.024 0.971 0.088 0.273 0.028 0.48 0.011 0.623-0.015-0.803-0.392-1.594-0.487-2.043-0.541-0.181-0.022-0.425-0.010-0.683 0.002-0.444 0.021-0.946 0.044-1.399-0.074-0.483-0.126-0.779-0.375-0.937-0.519-0.030 0.114-0.046 0.275 0.041 0.368 0.113 0.123 0.145 0.216 0.182 0.324 0.034 0.102 0.079 0.229 0.215 0.449 0.126 0.204 0.291 0.209 0.55 0.2 0.172-0.006 0.367-0.013 0.538 0.087 0.301 0.175 0.232 0.388 0.186 0.529-0.025 0.076-0.046 0.143-0.030 0.212 0.054 0.007 0.201-0.039 0.313-0.072 0.254-0.077 0.601-0.183 0.952-0.126 0.196 0.032 0.316 0.091 0.378 0.185 0.072 0.11 0.041 0.227 0.018 0.321-0.032 0.123-0.029 0.147 0.022 0.183 0.197 0.136 0.377 0.174 0.625 0.226 0.105 0.022 0.223 0.047 0.356 0.083 0.208 0.056 0.354 0.163 0.433 0.318 0.121 0.236 0.088 0.576-0.103 1.070-0.161 0.416-0.199 0.795-0.201 1.039 0 0.001 0 0.002 0 0.004 0 0.106 0.051 0.203 0.128 0.309 0.679 0.708 1.062 1.487 1.098 2.256 0.006 0.148 0 0.305-0.014 0.463 0.043 0.173 0.177 0.277 0.305 0.319 0.159 0.053 0.382 0.035 0.531-0.172 0.379-0.527 0.708-1.093 0.974-1.682 0.080-0.178 0.145-0.356 0.194-0.534-0.059-0.078-0.346-0.441-0.843-0.775-0.059 0.026-0.414 0.177-0.727 0.195-0.157 0.009-0.359 0.014-0.429-0.012l0.087-0.23c0 0-0.003-0.002-0.010-0.003 0.003 0.001 0.072 0.015 0.337-0 0.166-0.010 0.35-0.065 0.481-0.111-0.648-0.373-0.879-0.428-0.88-0.428-0.066-0.015-0.108-0.080-0.094-0.145s0.077-0.108 0.143-0.095c0.026 0.005 0.281 0.065 1.006 0.486 0.49 0.286 0.823 0.618 0.999 0.816zM146.966 19.751c0.141-0.062 0.48-0.23 0.818-0.52 0.339-0.29 0.586-0.628 0.684-0.773l-0.37-0.459c-0.13 0.168-0.339 0.438-0.487 0.61-0.392 0.455-0.843 0.783-0.861 0.797-0.008 0.006-0.017 0.010-0.025 0.014-0.019 0.014-0.044 0.032-0.074 0.053l0.314 0.278zM146.941 18.935c0.146-0.129 0.321-0.297 0.484-0.485 0.098-0.115 0.229-0.279 0.342-0.425-0.090 0.005-0.182-0.007-0.274-0.037-0.108-0.036-0.201-0.094-0.277-0.167-0.070 0.423-0.185 0.829-0.274 1.114zM146.585 19.218c0.061-0.168 0.356-1.003 0.433-1.771-0.008-0.048-0.012-0.098-0.012-0.148 0.004-0.237-0.012-0.463-0.050-0.673-0.141-0.769-0.563-1.27-0.815-1.569-0.044-0.053-0.084-0.1-0.117-0.142-0.010-0.013-0.021-0.027-0.030-0.040-0.204-0.212-0.437-0.417-0.698-0.614-1.026-0.778-1.517-0.73-1.753-0.706l-0.034 0.003c-0.061 0.005-0.171 0.040-0.288 0.076-0.305 0.094-0.721 0.223-1.028 0.101-0.284-0.112-0.31-0.399-0.334-0.676-0.018-0.199-0.037-0.404-0.143-0.564-0.228-0.343-0.814-0.17-1.124-0.014-0.123 0.062-0.215 0.138-0.297 0.205-0.139 0.115-0.283 0.234-0.501 0.18-0.138-0.035-0.229-0.131-0.314-0.224-0.11-0.118-0.206-0.22-0.403-0.215-0.194 0.005-0.215 0.060-0.254 0.16-0.025 0.067-0.057 0.15-0.138 0.212-0.146 0.11-0.27 0.047-0.361 0.001-0.065-0.033-0.126-0.064-0.218-0.062-0.114 0.002-0.301 0.179-0.43 0.339 0.146 0.125 0.405 0.416 0.695 1.064 0.166 0.37 0.2 0.65 0.236 0.946 0.055 0.463 0.119 0.988 0.734 2.052 0.721 1.25 1.639 1.78 2.186 2.096 0.070 0.041 0.134 0.078 0.189 0.111 0.044 0.027 0.148 0.077 0.229 0.117 0.061 0.029 0.116 0.056 0.15 0.074 0.512 0.274 1.189 0.391 2.015 0.347-0.619-0.184-1.539-0.558-2.394-1.301-1.433-1.244-2.215-3.66-2.248-3.763-0.019-0.065 0.015-0.134 0.080-0.154s0.134 0.015 0.154 0.080c0.007 0.023 0.719 2.22 1.975 3.466 0.080-0.242 0.24-0.802 0.15-1.192-0.037-0.16-0.072-0.299-0.102-0.421-0.076-0.303-0.131-0.521-0.142-0.779 0-0.002 0-0.003 0-0.005 0-0.066 0.052-0.12 0.119-0.122 0.068-0.003 0.124 0.050 0.127 0.118 0.008 0.221 0.057 0.42 0.124 0.687l0.229-0.239c0.047-0.049 0.126-0.050 0.174-0.004 0.050 0.047 0.051 0.125 0.004 0.173l-0.337 0.35c0.014 0.059 0.029 0.121 0.043 0.186 0.123 0.534-0.139 1.285-0.192 1.43 0 0.001 0.001 0.002 0.003 0.003 0.459 0.398 0.942 0.687 1.382 0.895-0.178-0.327-0.407-0.861-0.237-1.2 0.112-0.226 0.316-0.397 0.512-0.563 0.214-0.182 0.417-0.353 0.492-0.578 0.022-0.064 0.091-0.098 0.156-0.077s0.099 0.091 0.077 0.155c-0.098 0.289-0.337 0.491-0.567 0.686-0.084 0.071-0.166 0.14-0.239 0.211 0.16 0.051 0.462 0.137 0.708 0.14 0.352 0.004 0.848-0.171 0.852-0.173 0.065-0.023 0.134 0.011 0.157 0.074 0.022 0.064-0.011 0.134-0.074 0.157-0.022 0.008-0.542 0.191-0.938 0.187-0.346-0.004-0.764-0.145-0.874-0.184-0.017 0.024-0.030 0.048-0.043 0.073-0.153 0.306 0.239 1.009 0.389 1.231 0.006 0.008 0.010 0.017 0.014 0.026 0.698 0.277 1.217 0.344 1.225 0.345 0.001 0 0.003 0 0.004 0.001 1.112-0.169 1.608-0.507 1.713-0.587zM145.81 14.362c0.006-0.265 0.051-0.657 0.217-1.085 0.16-0.412 0.199-0.705 0.114-0.87-0.047-0.092-0.138-0.155-0.279-0.192-0.127-0.034-0.237-0.057-0.343-0.080-0.255-0.054-0.476-0.101-0.713-0.264-0.2-0.138-0.15-0.331-0.121-0.446 0.014-0.050 0.028-0.106 0.015-0.125-0.006-0.008-0.040-0.049-0.211-0.077-0.295-0.048-0.599 0.044-0.843 0.118-0.225 0.069-0.389 0.119-0.51 0.051-0.039-0.021-0.087-0.063-0.109-0.144-0.037-0.141 0.001-0.26 0.033-0.356 0.043-0.134 0.054-0.166-0.077-0.242-0.11-0.064-0.254-0.059-0.406-0.054-0.233 0.008-0.52 0.018-0.726-0.254-0.161 0.089-0.712 0.413-1.143 0.905-0.454 0.517-0.801 1.204-0.883 1.371 0.010 0.004 0.019 0.007 0.028 0.010 0.090 0.022 0.143-0.014 0.286-0.131 0.087-0.072 0.194-0.161 0.342-0.235 0.476-0.239 1.138-0.357 1.44 0.097 0.141 0.212 0.163 0.459 0.182 0.678 0.023 0.264 0.043 0.415 0.179 0.47 0.228 0.090 0.596-0.024 0.865-0.108 0.135-0.042 0.252-0.078 0.339-0.086l0.032-0.003c0.268-0.026 0.823-0.081 1.927 0.755 0.128 0.097 0.25 0.196 0.366 0.297z"></path>
<path d="M166.483 24.6c0 0.548-0.119 1.086-0.356 1.61-0.273 0.604-0.61 1.184-0.999 1.724-0.017 0.024-0.034 0.046-0.054 0.067l0.468 0.581c0.033 0.040 0.036 0.097 0.010 0.141-0.012 0.020-0.308 0.498-0.781 0.902-0.473 0.406-0.939 0.584-0.959 0.591-0.043 0.016-0.090 0.007-0.124-0.023l-0.404-0.357c-0.010-0.009-0.018-0.019-0.025-0.029-0.354 0.182-1.017 0.427-2.105 0.516-0.964 0.078-1.754-0.044-2.349-0.362-0.033-0.017-0.084-0.042-0.141-0.070-0.097-0.047-0.196-0.095-0.251-0.128-0.054-0.033-0.116-0.068-0.183-0.108-0.532-0.307-1.523-0.879-2.277-2.186-0.639-1.107-0.705-1.659-0.764-2.145-0.034-0.289-0.065-0.539-0.215-0.875-0.383-0.855-0.697-1.026-0.699-1.028-0.032-0.016-0.055-0.046-0.063-0.080s-0.003-0.071 0.017-0.1c0.062-0.090 0.388-0.537 0.702-0.542 0.152-0.002 0.257 0.050 0.332 0.089 0.077 0.039 0.080 0.038 0.102 0.021 0.023-0.018 0.037-0.050 0.057-0.102 0.046-0.124 0.116-0.31 0.477-0.319 0.287-0.007 0.447 0.145 0.564 0.268 0.121-0.244 0.454-0.869 0.888-1.364 0.28-0.32 0.61-0.571 0.834-0.726 0.172-0.118 0.287-0.189 0.364-0.229-0.086-0.158-0.123-0.265-0.15-0.349-0.034-0.098-0.052-0.152-0.131-0.237-0.262-0.282-0.057-0.742-0.018-0.798 0.022-0.031 0.057-0.052 0.094-0.056 0.070-0.008 0.114 0.032 0.193 0.105 0.131 0.121 0.406 0.374 0.869 0.495 0.415 0.109 0.898 0.086 1.324 0.066 0.269-0.013 0.524-0.025 0.724-0 0.657 0.079 2.023 0.244 3.146 1.251 0.538 0.482 1.007 1.086 1.335 1.711 0.008 0.011 0.015 0.023 0.019 0.036 0.080 0.154 0.15 0.31 0.212 0.465 0.211 0.531 0.316 1.057 0.316 1.574zM166.168 25.273c0.171-0.916-0.034-1.808-0.428-2.586-0.109-0.054-0.477-0.21-1.033-0.198-0.654 0.014-0.861 0.127-0.863 0.128-0.058 0.033-0.132 0.014-0.167-0.043s-0.018-0.131 0.039-0.166c0.025-0.015 0.258-0.149 0.988-0.164 0.361-0.007 0.65 0.049 0.854 0.11-0.316-0.528-0.712-0.991-1.12-1.357-0.212-0.19-0.434-0.349-0.659-0.481-0.109 0.045-0.426 0.146-0.96 0.091-0.619-0.064-0.959-0.087-0.961-0.088-0.068-0.005-0.119-0.064-0.114-0.131s0.063-0.119 0.131-0.114c0.003 0 0.345 0.024 0.971 0.088 0.273 0.028 0.48 0.011 0.623-0.014-0.803-0.392-1.594-0.487-2.043-0.542-0.181-0.022-0.425-0.010-0.683 0.002-0.444 0.021-0.946 0.044-1.399-0.074-0.483-0.126-0.779-0.375-0.937-0.518-0.030 0.114-0.046 0.275 0.041 0.368 0.113 0.123 0.145 0.216 0.182 0.324 0.034 0.102 0.079 0.229 0.215 0.45 0.126 0.204 0.291 0.209 0.55 0.2 0.172-0.006 0.367-0.013 0.538 0.087 0.301 0.175 0.232 0.388 0.186 0.529-0.025 0.076-0.046 0.143-0.030 0.212 0.054 0.006 0.201-0.039 0.313-0.072 0.254-0.077 0.601-0.183 0.952-0.126 0.196 0.032 0.316 0.091 0.378 0.185 0.072 0.11 0.041 0.227 0.018 0.321-0.032 0.123-0.029 0.147 0.022 0.183 0.197 0.136 0.377 0.174 0.625 0.226 0.105 0.022 0.223 0.047 0.356 0.083 0.208 0.056 0.354 0.163 0.433 0.318 0.121 0.236 0.088 0.576-0.103 1.070-0.161 0.416-0.199 0.795-0.201 1.039 0 0.001 0 0.002 0 0.004 0 0.106 0.051 0.203 0.128 0.309 0.679 0.708 1.062 1.487 1.098 2.256 0.006 0.148 0 0.305-0.014 0.463 0.043 0.173 0.177 0.277 0.305 0.319 0.159 0.053 0.382 0.035 0.531-0.172 0.379-0.527 0.708-1.093 0.974-1.682 0.080-0.178 0.145-0.356 0.194-0.534-0.059-0.078-0.346-0.441-0.843-0.775-0.059 0.026-0.414 0.177-0.727 0.195-0.157 0.009-0.359 0.014-0.429-0.012l0.087-0.23c0 0-0.003-0.002-0.010-0.003 0.003 0.001 0.072 0.015 0.337-0 0.166-0.010 0.35-0.065 0.481-0.111-0.648-0.373-0.879-0.428-0.88-0.428-0.066-0.015-0.108-0.080-0.094-0.145s0.077-0.108 0.143-0.095c0.026 0.005 0.281 0.065 1.006 0.486 0.49 0.286 0.823 0.618 0.999 0.816zM163.793 29.958c0.141-0.062 0.48-0.23 0.818-0.52 0.339-0.29 0.586-0.628 0.684-0.773l-0.37-0.459c-0.13 0.168-0.339 0.438-0.487 0.61-0.392 0.455-0.843 0.783-0.861 0.797-0.008 0.006-0.017 0.010-0.025 0.014-0.019 0.014-0.044 0.032-0.074 0.053l0.314 0.278zM163.768 29.142c0.146-0.129 0.321-0.297 0.484-0.485 0.098-0.115 0.229-0.279 0.342-0.425-0.090 0.005-0.182-0.007-0.274-0.037-0.108-0.036-0.201-0.094-0.277-0.167-0.070 0.423-0.185 0.829-0.274 1.114zM163.412 29.425c0.061-0.168 0.356-1.003 0.433-1.771-0.008-0.048-0.012-0.098-0.012-0.148 0.004-0.237-0.012-0.463-0.050-0.673-0.141-0.769-0.563-1.27-0.815-1.569-0.044-0.053-0.084-0.1-0.117-0.142-0.010-0.013-0.021-0.027-0.030-0.040-0.204-0.212-0.437-0.417-0.698-0.614-1.026-0.778-1.517-0.73-1.753-0.706l-0.034 0.003c-0.061 0.005-0.171 0.040-0.288 0.076-0.305 0.094-0.721 0.223-1.028 0.101-0.284-0.112-0.31-0.399-0.334-0.676-0.018-0.199-0.037-0.404-0.143-0.564-0.228-0.343-0.814-0.17-1.124-0.014-0.123 0.062-0.215 0.138-0.297 0.205-0.139 0.115-0.283 0.234-0.501 0.18-0.138-0.035-0.229-0.131-0.314-0.224-0.11-0.118-0.206-0.22-0.403-0.215-0.194 0.005-0.215 0.060-0.254 0.16-0.025 0.067-0.057 0.15-0.138 0.212-0.146 0.11-0.27 0.047-0.361 0.001-0.065-0.033-0.126-0.064-0.218-0.062-0.114 0.002-0.301 0.179-0.43 0.339 0.146 0.125 0.406 0.416 0.695 1.064 0.166 0.37 0.2 0.65 0.236 0.946 0.055 0.463 0.119 0.988 0.734 2.052 0.721 1.25 1.639 1.78 2.186 2.096 0.070 0.041 0.134 0.078 0.189 0.111 0.044 0.027 0.148 0.077 0.229 0.117 0.061 0.029 0.116 0.056 0.15 0.074 0.512 0.274 1.189 0.391 2.015 0.347-0.619-0.184-1.539-0.558-2.394-1.301-1.433-1.244-2.215-3.66-2.248-3.763-0.019-0.065 0.015-0.134 0.080-0.154s0.134 0.015 0.154 0.080c0.007 0.023 0.719 2.22 1.975 3.466 0.080-0.242 0.24-0.802 0.15-1.192-0.037-0.16-0.072-0.299-0.102-0.421-0.076-0.303-0.131-0.521-0.142-0.779 0-0.002 0-0.003 0-0.005 0-0.066 0.052-0.12 0.119-0.122 0.068-0.003 0.124 0.050 0.127 0.118 0.008 0.221 0.057 0.42 0.124 0.687l0.229-0.239c0.047-0.049 0.126-0.050 0.174-0.004 0.050 0.047 0.051 0.125 0.004 0.173l-0.337 0.35c0.014 0.059 0.029 0.121 0.043 0.186 0.123 0.534-0.139 1.285-0.192 1.43 0 0.001 0.001 0.002 0.003 0.003 0.459 0.398 0.942 0.687 1.382 0.895-0.178-0.327-0.407-0.861-0.237-1.2 0.112-0.226 0.316-0.397 0.512-0.563 0.214-0.182 0.417-0.353 0.492-0.578 0.022-0.064 0.091-0.098 0.156-0.077s0.099 0.091 0.077 0.155c-0.098 0.289-0.337 0.491-0.567 0.686-0.084 0.071-0.166 0.14-0.239 0.211 0.16 0.051 0.462 0.137 0.708 0.14 0.352 0.004 0.848-0.171 0.852-0.173 0.065-0.023 0.134 0.011 0.157 0.074 0.022 0.064-0.011 0.134-0.074 0.157-0.022 0.008-0.542 0.191-0.938 0.187-0.346-0.004-0.764-0.145-0.874-0.184-0.017 0.024-0.030 0.048-0.043 0.073-0.153 0.306 0.239 1.009 0.389 1.231 0.006 0.008 0.010 0.017 0.014 0.026 0.698 0.277 1.217 0.344 1.225 0.345 0.001 0 0.003 0 0.004 0.001 1.112-0.169 1.608-0.507 1.713-0.587zM162.637 24.569c0.006-0.265 0.051-0.657 0.217-1.085 0.16-0.412 0.199-0.705 0.114-0.87-0.047-0.092-0.138-0.155-0.279-0.192-0.127-0.034-0.237-0.057-0.343-0.080-0.255-0.054-0.476-0.101-0.713-0.264-0.2-0.138-0.15-0.331-0.121-0.446 0.014-0.050 0.028-0.106 0.015-0.126-0.006-0.008-0.040-0.049-0.211-0.077-0.295-0.048-0.599 0.044-0.843 0.119-0.225 0.069-0.389 0.119-0.51 0.051-0.039-0.021-0.087-0.063-0.109-0.144-0.037-0.141 0.001-0.26 0.033-0.356 0.043-0.134 0.054-0.166-0.077-0.242-0.11-0.064-0.254-0.059-0.406-0.054-0.233 0.008-0.52 0.018-0.726-0.254-0.161 0.089-0.712 0.413-1.143 0.905-0.454 0.518-0.801 1.204-0.883 1.371 0.010 0.004 0.019 0.007 0.028 0.010 0.090 0.022 0.143-0.014 0.286-0.131 0.087-0.072 0.194-0.161 0.342-0.235 0.476-0.239 1.138-0.357 1.44 0.097 0.141 0.212 0.163 0.46 0.182 0.678 0.023 0.264 0.043 0.415 0.179 0.47 0.228 0.090 0.596-0.024 0.865-0.108 0.135-0.042 0.252-0.078 0.339-0.086l0.032-0.003c0.268-0.026 0.823-0.081 1.927 0.755 0.128 0.097 0.25 0.196 0.366 0.297z"></path>
<path d="M184 14.393c0 0.548-0.119 1.086-0.356 1.61-0.273 0.604-0.61 1.184-0.999 1.724-0.017 0.024-0.034 0.046-0.054 0.067l0.468 0.581c0.033 0.040 0.036 0.097 0.010 0.141-0.012 0.020-0.308 0.498-0.781 0.902-0.473 0.406-0.939 0.584-0.959 0.591-0.043 0.016-0.090 0.007-0.124-0.023l-0.404-0.357c-0.010-0.009-0.018-0.019-0.025-0.029-0.354 0.182-1.017 0.427-2.105 0.516-0.964 0.078-1.754-0.044-2.349-0.362-0.033-0.017-0.084-0.042-0.141-0.070-0.097-0.047-0.196-0.095-0.251-0.128-0.054-0.033-0.116-0.068-0.183-0.108-0.532-0.307-1.523-0.879-2.277-2.186-0.639-1.107-0.705-1.659-0.764-2.145-0.034-0.289-0.065-0.539-0.215-0.875-0.383-0.855-0.697-1.026-0.699-1.028-0.032-0.016-0.055-0.046-0.063-0.080s-0.003-0.071 0.017-0.1c0.062-0.090 0.388-0.537 0.702-0.542 0.152-0.002 0.257 0.050 0.332 0.089 0.077 0.040 0.080 0.038 0.102 0.021 0.023-0.018 0.037-0.051 0.057-0.102 0.046-0.123 0.116-0.31 0.477-0.319 0.287-0.007 0.447 0.145 0.564 0.268 0.121-0.244 0.454-0.869 0.888-1.364 0.28-0.32 0.61-0.571 0.834-0.726 0.172-0.118 0.287-0.189 0.364-0.229-0.086-0.158-0.123-0.265-0.15-0.349-0.034-0.098-0.052-0.152-0.131-0.237-0.262-0.282-0.057-0.742-0.018-0.798 0.022-0.031 0.057-0.052 0.094-0.056 0.070-0.008 0.114 0.032 0.193 0.105 0.131 0.121 0.406 0.374 0.869 0.495 0.415 0.109 0.898 0.086 1.324 0.066 0.269-0.013 0.524-0.025 0.724-0 0.657 0.079 2.023 0.244 3.146 1.251 0.538 0.482 1.007 1.086 1.335 1.711 0.008 0.011 0.015 0.023 0.019 0.036 0.080 0.154 0.15 0.31 0.212 0.464 0.211 0.531 0.316 1.057 0.316 1.573zM183.686 15.066c0.171-0.916-0.034-1.808-0.428-2.586-0.109-0.054-0.477-0.21-1.033-0.198-0.654 0.014-0.861 0.127-0.863 0.128-0.058 0.033-0.132 0.014-0.167-0.043s-0.018-0.131 0.039-0.166c0.025-0.015 0.258-0.149 0.988-0.164 0.361-0.007 0.65 0.049 0.854 0.11-0.316-0.528-0.712-0.991-1.12-1.357-0.212-0.19-0.434-0.349-0.659-0.481-0.109 0.045-0.426 0.146-0.96 0.091-0.619-0.064-0.959-0.087-0.961-0.088-0.068-0.005-0.119-0.064-0.114-0.131 0.004-0.068 0.063-0.119 0.131-0.114 0.003 0 0.345 0.024 0.971 0.088 0.273 0.028 0.48 0.011 0.623-0.015-0.803-0.392-1.594-0.487-2.043-0.541-0.181-0.022-0.425-0.010-0.683 0.002-0.444 0.021-0.946 0.044-1.399-0.074-0.483-0.126-0.779-0.375-0.937-0.519-0.030 0.114-0.046 0.275 0.041 0.368 0.113 0.123 0.145 0.216 0.182 0.324 0.034 0.102 0.079 0.229 0.215 0.449 0.126 0.204 0.291 0.209 0.55 0.2 0.172-0.006 0.367-0.013 0.538 0.087 0.301 0.175 0.232 0.388 0.186 0.529-0.025 0.076-0.046 0.143-0.030 0.212 0.054 0.007 0.201-0.039 0.313-0.072 0.254-0.077 0.601-0.183 0.952-0.126 0.196 0.032 0.316 0.091 0.378 0.185 0.072 0.11 0.041 0.227 0.018 0.321-0.032 0.123-0.029 0.147 0.022 0.183 0.197 0.136 0.377 0.174 0.625 0.226 0.105 0.022 0.223 0.047 0.356 0.083 0.208 0.056 0.354 0.163 0.433 0.318 0.121 0.236 0.088 0.576-0.103 1.070-0.161 0.416-0.199 0.795-0.201 1.039 0 0.001 0 0.002 0 0.004 0 0.106 0.051 0.203 0.128 0.309 0.679 0.708 1.062 1.487 1.098 2.256 0.006 0.148 0 0.305-0.014 0.463 0.043 0.173 0.177 0.277 0.305 0.319 0.159 0.053 0.382 0.035 0.531-0.172 0.379-0.527 0.708-1.093 0.974-1.682 0.080-0.178 0.145-0.356 0.194-0.534-0.059-0.078-0.346-0.441-0.843-0.775-0.059 0.026-0.414 0.177-0.727 0.195-0.157 0.009-0.359 0.014-0.429-0.012l0.087-0.23c0 0-0.003-0.002-0.010-0.003 0.003 0.001 0.072 0.015 0.337-0 0.166-0.010 0.35-0.065 0.481-0.111-0.648-0.373-0.879-0.428-0.88-0.428-0.066-0.015-0.108-0.080-0.094-0.145s0.077-0.108 0.143-0.095c0.026 0.005 0.281 0.065 1.006 0.486 0.49 0.286 0.823 0.618 0.999 0.816zM181.31 19.751c0.141-0.062 0.48-0.23 0.818-0.52 0.339-0.29 0.586-0.628 0.684-0.773l-0.37-0.459c-0.13 0.168-0.339 0.438-0.487 0.61-0.392 0.455-0.843 0.783-0.861 0.797-0.008 0.006-0.017 0.010-0.025 0.014-0.019 0.014-0.044 0.032-0.074 0.053l0.314 0.278zM181.286 18.935c0.146-0.129 0.321-0.297 0.484-0.485 0.098-0.115 0.229-0.279 0.342-0.425-0.090 0.005-0.182-0.007-0.274-0.037-0.108-0.036-0.201-0.094-0.277-0.167-0.070 0.423-0.185 0.829-0.274 1.114zM180.93 19.218c0.061-0.168 0.356-1.003 0.433-1.771-0.008-0.048-0.012-0.098-0.012-0.148 0.004-0.237-0.012-0.463-0.050-0.673-0.141-0.769-0.563-1.27-0.815-1.569-0.044-0.053-0.084-0.1-0.117-0.142-0.010-0.013-0.021-0.027-0.030-0.040-0.204-0.212-0.437-0.417-0.698-0.614-1.026-0.778-1.517-0.73-1.753-0.706l-0.034 0.003c-0.061 0.005-0.171 0.040-0.288 0.076-0.305 0.094-0.721 0.223-1.028 0.101-0.284-0.112-0.31-0.399-0.334-0.676-0.018-0.199-0.037-0.404-0.143-0.564-0.228-0.343-0.814-0.17-1.124-0.014-0.123 0.062-0.215 0.138-0.297 0.205-0.139 0.115-0.283 0.234-0.501 0.18-0.138-0.035-0.229-0.131-0.314-0.224-0.11-0.118-0.206-0.22-0.403-0.215-0.194 0.005-0.215 0.060-0.254 0.16-0.025 0.067-0.057 0.15-0.138 0.212-0.146 0.11-0.27 0.047-0.361 0.001-0.065-0.033-0.126-0.064-0.218-0.062-0.114 0.002-0.301 0.179-0.43 0.339 0.146 0.125 0.406 0.416 0.695 1.064 0.166 0.37 0.2 0.65 0.236 0.946 0.055 0.463 0.119 0.988 0.734 2.052 0.721 1.25 1.639 1.78 2.186 2.096 0.070 0.041 0.134 0.078 0.189 0.111 0.044 0.027 0.148 0.077 0.229 0.117 0.061 0.029 0.116 0.056 0.15 0.074 0.512 0.274 1.189 0.391 2.015 0.347-0.619-0.184-1.539-0.558-2.394-1.301-1.433-1.244-2.215-3.66-2.248-3.763-0.019-0.065 0.015-0.134 0.080-0.154s0.134 0.015 0.154 0.080c0.007 0.023 0.719 2.22 1.975 3.466 0.080-0.242 0.24-0.802 0.15-1.192-0.037-0.16-0.072-0.299-0.102-0.421-0.076-0.303-0.131-0.521-0.142-0.779 0-0.002 0-0.003 0-0.005 0-0.066 0.052-0.12 0.119-0.122 0.068-0.003 0.124 0.050 0.127 0.118 0.008 0.221 0.057 0.42 0.124 0.687l0.229-0.239c0.047-0.049 0.126-0.050 0.174-0.004 0.050 0.047 0.051 0.125 0.004 0.173l-0.337 0.35c0.014 0.059 0.029 0.121 0.043 0.186 0.123 0.534-0.139 1.285-0.192 1.43 0 0.001 0.001 0.002 0.003 0.003 0.459 0.398 0.942 0.687 1.382 0.895-0.178-0.327-0.407-0.861-0.237-1.2 0.112-0.226 0.316-0.397 0.512-0.563 0.214-0.182 0.417-0.353 0.492-0.578 0.022-0.064 0.091-0.098 0.156-0.077s0.099 0.091 0.077 0.155c-0.098 0.289-0.337 0.491-0.567 0.686-0.084 0.071-0.166 0.14-0.239 0.211 0.16 0.051 0.462 0.137 0.708 0.14 0.352 0.004 0.848-0.171 0.852-0.173 0.065-0.023 0.134 0.011 0.157 0.074 0.022 0.064-0.011 0.134-0.074 0.157-0.022 0.008-0.542 0.191-0.938 0.187-0.346-0.004-0.764-0.145-0.874-0.184-0.017 0.024-0.030 0.048-0.043 0.073-0.153 0.306 0.239 1.009 0.389 1.231 0.006 0.008 0.010 0.017 0.014 0.026 0.698 0.277 1.217 0.344 1.225 0.345 0.001 0 0.003 0 0.004 0.001 1.112-0.169 1.608-0.507 1.713-0.587zM180.154 14.362c0.006-0.265 0.051-0.657 0.217-1.085 0.16-0.412 0.199-0.705 0.114-0.87-0.047-0.092-0.138-0.155-0.279-0.192-0.127-0.034-0.237-0.057-0.343-0.080-0.255-0.054-0.476-0.101-0.713-0.264-0.2-0.138-0.15-0.331-0.121-0.446 0.014-0.050 0.028-0.106 0.015-0.125-0.006-0.008-0.040-0.049-0.211-0.077-0.295-0.048-0.599 0.044-0.843 0.118-0.225 0.069-0.389 0.119-0.51 0.051-0.039-0.021-0.087-0.063-0.109-0.144-0.037-0.141 0.001-0.26 0.033-0.356 0.043-0.134 0.054-0.166-0.077-0.242-0.11-0.064-0.254-0.059-0.406-0.054-0.233 0.008-0.52 0.018-0.726-0.254-0.161 0.089-0.712 0.413-1.143 0.905-0.454 0.517-0.801 1.204-0.883 1.371 0.010 0.004 0.019 0.007 0.028 0.010 0.090 0.022 0.143-0.014 0.286-0.131 0.087-0.072 0.194-0.161 0.342-0.235 0.476-0.239 1.138-0.357 1.44 0.097 0.141 0.212 0.163 0.459 0.182 0.678 0.023 0.264 0.043 0.415 0.179 0.47 0.228 0.090 0.596-0.024 0.865-0.108 0.135-0.042 0.252-0.078 0.339-0.086l0.032-0.003c0.268-0.026 0.823-0.081 1.927 0.755 0.128 0.097 0.25 0.196 0.366 0.297z"></path>
</svg>
