<!-- Generated by IcoMoon.io -->
<svg version="1.1" xmlns="http://www.w3.org/2000/svg" width="41" height="32" viewBox="0 0 41 32">
<title>kapusta-double</title>
<path d="M9.387 24.338c-0.896 0-1.774-0.194-2.63-0.581-0.987-0.447-1.934-0.996-2.817-1.631-0.039-0.028-0.075-0.057-0.109-0.088l-0.949 0.764c-0.066 0.053-0.158 0.059-0.23 0.015-0.033-0.020-0.813-0.503-1.474-1.274-0.663-0.774-0.954-1.534-0.966-1.566-0.026-0.070-0.012-0.148 0.037-0.204l0.583-0.66c0.014-0.016 0.031-0.029 0.048-0.040-0.298-0.581-0.699-1.661-0.843-3.44-0.128-1.575 0.072-2.867 0.592-3.839 0.028-0.052 0.069-0.137 0.114-0.229 0.076-0.157 0.155-0.32 0.21-0.409 0.054-0.088 0.112-0.189 0.177-0.301 0.502-0.869 1.437-2.487 3.571-3.719 1.809-1.045 2.71-1.153 3.504-1.249 0.473-0.057 0.88-0.106 1.43-0.352 1.397-0.625 1.676-1.137 1.679-1.142 0.027-0.051 0.075-0.090 0.131-0.104s0.116-0.005 0.163 0.028c0.146 0.101 0.877 0.632 0.885 1.146 0.004 0.249-0.082 0.419-0.145 0.543-0.065 0.127-0.062 0.13-0.035 0.167 0.029 0.039 0.083 0.060 0.167 0.092 0.202 0.076 0.507 0.19 0.521 0.78 0.011 0.469-0.236 0.731-0.438 0.922 0.398 0.199 1.419 0.741 2.229 1.452 0.523 0.459 0.934 0.996 1.186 1.365 0.192 0.282 0.308 0.467 0.374 0.595 0.258-0.14 0.433-0.2 0.57-0.247 0.16-0.055 0.248-0.085 0.387-0.214 0.46-0.427 1.213-0.091 1.304-0.028 0.051 0.036 0.085 0.091 0.092 0.153 0.013 0.115-0.053 0.186-0.172 0.315-0.198 0.215-0.611 0.661-0.809 1.419-0.177 0.679-0.14 1.468-0.108 2.165 0.021 0.44 0.040 0.855 0 1.183-0.129 1.073-0.398 3.305-2.044 5.14-0.787 0.878-1.774 1.644-2.796 2.182-0.018 0.014-0.038 0.024-0.059 0.031-0.252 0.13-0.506 0.246-0.759 0.347-0.868 0.344-1.727 0.516-2.571 0.516zM8.286 23.824c1.497 0.281 2.954-0.055 4.225-0.698 0.088-0.179 0.343-0.78 0.324-1.687-0.022-1.070-0.207-1.408-0.209-1.411-0.054-0.095-0.023-0.217 0.070-0.273s0.213-0.029 0.271 0.063c0.025 0.040 0.244 0.421 0.268 1.612 0.012 0.591-0.080 1.063-0.181 1.396 0.862-0.516 1.619-1.163 2.217-1.831 0.311-0.346 0.57-0.709 0.786-1.075-0.073-0.179-0.238-0.698-0.149-1.568 0.104-1.014 0.143-1.567 0.143-1.572 0.008-0.111 0.105-0.193 0.214-0.186 0.11 0.008 0.194 0.103 0.186 0.214-0 0.006-0.039 0.564-0.144 1.586-0.046 0.447-0.018 0.785 0.024 1.019 0.641-1.311 0.796-2.605 0.885-3.337 0.035-0.295 0.017-0.694-0.003-1.116-0.034-0.725-0.073-1.547 0.12-2.285 0.206-0.789 0.613-1.273 0.847-1.53-0.187-0.049-0.45-0.074-0.602 0.067-0.201 0.186-0.353 0.239-0.529 0.299-0.167 0.057-0.374 0.128-0.734 0.351-0.333 0.206-0.341 0.476-0.326 0.9 0.010 0.28 0.021 0.598-0.143 0.879-0.286 0.491-0.634 0.378-0.864 0.304-0.125-0.040-0.233-0.075-0.346-0.049-0.011 0.087 0.063 0.33 0.118 0.51 0.126 0.415 0.299 0.983 0.206 1.557-0.052 0.32-0.148 0.516-0.302 0.617-0.179 0.117-0.37 0.068-0.524 0.029-0.202-0.052-0.241-0.047-0.299 0.037-0.222 0.321-0.284 0.614-0.369 1.020-0.036 0.171-0.077 0.365-0.136 0.583-0.091 0.341-0.266 0.579-0.52 0.708-0.386 0.196-0.941 0.142-1.748-0.17-0.68-0.263-1.299-0.324-1.698-0.328-0.002 0-0.004 0-0.006 0-0.174 0-0.331 0.081-0.504 0.209-1.157 1.11-2.43 1.736-3.685 1.793-0.243 0.011-0.498 0.002-0.757-0.022-0.282 0.071-0.452 0.289-0.521 0.498-0.086 0.26-0.058 0.624 0.281 0.868 0.861 0.62 1.785 1.155 2.748 1.591 0.291 0.132 0.582 0.237 0.872 0.318 0.128-0.097 0.72-0.567 1.266-1.378-0.042-0.096-0.289-0.675-0.319-1.188-0.015-0.256-0.023-0.585 0.019-0.699l0.375 0.141c0 0 0.002-0.005 0.005-0.017-0.001 0.005-0.025 0.118 0 0.551 0.016 0.269 0.106 0.572 0.182 0.785 0.609-1.057 0.699-1.434 0.699-1.437 0.024-0.107 0.13-0.176 0.238-0.153s0.176 0.127 0.155 0.235c-0.009 0.044-0.106 0.46-0.794 1.642-0.467 0.802-1.009 1.347-1.334 1.632zM0.633 19.943c0.102 0.229 0.375 0.784 0.849 1.337s1.026 0.956 1.262 1.116l0.75-0.604c-0.275-0.211-0.715-0.554-0.996-0.796-0.744-0.639-1.279-1.375-1.301-1.406-0.009-0.013-0.017-0.026-0.023-0.040-0.023-0.031-0.052-0.071-0.086-0.122l-0.455 0.514zM1.966 19.902c0.211 0.24 0.485 0.526 0.793 0.791 0.188 0.162 0.456 0.375 0.694 0.561-0.009-0.147 0.011-0.299 0.061-0.449 0.059-0.177 0.153-0.33 0.273-0.453-0.69-0.116-1.354-0.302-1.82-0.45zM1.502 19.321c0.274 0.101 1.638 0.582 2.893 0.709 0.078-0.014 0.16-0.021 0.243-0.019 0.387 0.007 0.757-0.020 1.099-0.083 1.256-0.23 2.075-0.918 2.564-1.33 0.086-0.073 0.164-0.137 0.232-0.191 0.022-0.017 0.044-0.034 0.066-0.051 0.346-0.334 0.682-0.715 1.003-1.139 1.271-1.678 1.192-2.48 1.154-2.865l-0.005-0.056c-0.009-0.1-0.065-0.28-0.124-0.471-0.154-0.497-0.365-1.177-0.165-1.679 0.184-0.463 0.652-0.505 1.104-0.545 0.324-0.029 0.66-0.059 0.922-0.232 0.56-0.372 0.278-1.33 0.023-1.837-0.101-0.2-0.225-0.351-0.335-0.484-0.188-0.228-0.382-0.463-0.293-0.819 0.057-0.227 0.214-0.374 0.366-0.515 0.193-0.18 0.359-0.335 0.351-0.657-0.008-0.319-0.098-0.352-0.261-0.414-0.11-0.041-0.246-0.092-0.347-0.227-0.18-0.239-0.077-0.441-0.002-0.589 0.054-0.106 0.104-0.206 0.102-0.356-0.003-0.188-0.293-0.492-0.555-0.704-0.204 0.239-0.679 0.662-1.738 1.136-0.605 0.271-1.061 0.326-1.545 0.384-0.756 0.091-1.614 0.195-3.352 1.198-2.042 1.179-2.908 2.677-3.425 3.573-0.067 0.115-0.127 0.219-0.182 0.309-0.044 0.072-0.126 0.24-0.191 0.375-0.047 0.098-0.091 0.188-0.121 0.244-0.448 0.837-0.639 1.944-0.567 3.293 0.3-1.011 0.912-2.514 2.125-3.911 2.032-2.342 5.981-3.62 6.148-3.673 0.106-0.033 0.218 0.025 0.252 0.13s-0.025 0.218-0.13 0.252c-0.038 0.012-3.627 1.174-5.663 3.227 0.395 0.13 1.311 0.391 1.948 0.245 0.262-0.060 0.489-0.117 0.688-0.167 0.494-0.124 0.852-0.214 1.272-0.231 0.003-0 0.005-0 0.008-0 0.107 0 0.196 0.085 0.2 0.193 0.004 0.111-0.082 0.204-0.192 0.208-0.361 0.014-0.686 0.092-1.123 0.202l0.39 0.375c0.080 0.077 0.082 0.204 0.006 0.284s-0.203 0.083-0.283 0.006l-0.573-0.55c-0.096 0.023-0.197 0.047-0.304 0.072-0.872 0.199-2.099-0.228-2.336-0.315-0.002 0.002-0.003 0.004-0.005 0.006-0.651 0.75-1.122 1.539-1.462 2.259 0.534-0.291 1.406-0.666 1.961-0.389 0.369 0.184 0.649 0.515 0.921 0.836 0.297 0.35 0.577 0.681 0.944 0.806 0.105 0.036 0.161 0.149 0.126 0.254s-0.149 0.161-0.254 0.126c-0.472-0.16-0.802-0.55-1.121-0.926-0.116-0.137-0.229-0.27-0.345-0.389-0.084 0.261-0.224 0.754-0.229 1.156-0.006 0.573 0.279 1.385 0.282 1.393 0.037 0.104-0.017 0.219-0.122 0.256s-0.219-0.017-0.256-0.122c-0.013-0.036-0.313-0.887-0.306-1.532 0.006-0.566 0.236-1.25 0.3-1.43-0.039-0.025-0.079-0.048-0.12-0.069-0.5-0.25-1.648 0.391-2.011 0.635-0.014 0.009-0.028 0.017-0.043 0.022-0.452 1.142-0.562 1.988-0.564 2.003-0 0.002-0 0.004-0.001 0.006 0.276 1.816 0.829 2.628 0.959 2.798zM9.436 18.055c0.433 0.011 1.073 0.083 1.773 0.354 0.674 0.261 1.152 0.324 1.422 0.187 0.15-0.076 0.253-0.225 0.314-0.454 0.056-0.208 0.094-0.388 0.13-0.562 0.088-0.417 0.164-0.778 0.432-1.165 0.226-0.327 0.54-0.246 0.728-0.197 0.081 0.021 0.173 0.045 0.205 0.024 0.013-0.008 0.080-0.065 0.126-0.346 0.079-0.481-0.072-0.977-0.194-1.375-0.113-0.369-0.194-0.636-0.083-0.836 0.034-0.061 0.103-0.142 0.235-0.177 0.23-0.061 0.425 0.002 0.582 0.053 0.219 0.071 0.271 0.088 0.395-0.124 0.105-0.181 0.097-0.415 0.088-0.662-0.013-0.381-0.030-0.85 0.415-1.186-0.146-0.264-0.675-1.164-1.479-1.869-0.845-0.742-1.968-1.309-2.24-1.441-0.007 0.015-0.012 0.030-0.016 0.046-0.037 0.146 0.022 0.233 0.214 0.465 0.117 0.142 0.263 0.318 0.384 0.559 0.391 0.777 0.584 1.858-0.159 2.352-0.346 0.23-0.751 0.266-1.107 0.298-0.431 0.038-0.679 0.071-0.767 0.294-0.147 0.37 0.040 0.973 0.176 1.413 0.069 0.221 0.128 0.412 0.14 0.554l0.005 0.053c0.043 0.437 0.132 1.344-1.234 3.147-0.159 0.209-0.321 0.408-0.486 0.597z"></path>
<path d="M41.239 9.318c0 0.896-0.194 1.774-0.581 2.63-0.447 0.987-0.996 1.934-1.631 2.817-0.028 0.039-0.057 0.075-0.089 0.109l0.764 0.949c0.053 0.066 0.059 0.158 0.015 0.23-0.020 0.033-0.503 0.813-1.274 1.474-0.774 0.663-1.534 0.954-1.566 0.966-0.069 0.026-0.148 0.012-0.204-0.037l-0.66-0.583c-0.016-0.014-0.029-0.031-0.040-0.048-0.581 0.298-1.661 0.698-3.44 0.843-1.575 0.128-2.867-0.072-3.839-0.592-0.052-0.028-0.137-0.069-0.229-0.114-0.158-0.076-0.32-0.155-0.409-0.21-0.088-0.054-0.189-0.112-0.301-0.177-0.869-0.502-2.487-1.436-3.719-3.571-1.045-1.809-1.153-2.71-1.249-3.504-0.057-0.473-0.106-0.88-0.352-1.43-0.625-1.397-1.137-1.676-1.142-1.679-0.051-0.027-0.090-0.075-0.104-0.131s-0.005-0.116 0.028-0.163c0.101-0.146 0.632-0.877 1.146-0.885 0.249-0.004 0.419 0.082 0.543 0.145 0.128 0.065 0.13 0.062 0.167 0.035 0.039-0.029 0.060-0.083 0.092-0.167 0.076-0.202 0.191-0.507 0.78-0.521 0.469-0.011 0.732 0.236 0.921 0.438 0.199-0.398 0.741-1.419 1.452-2.229 0.459-0.523 0.996-0.934 1.364-1.186 0.282-0.192 0.467-0.308 0.595-0.374-0.14-0.258-0.2-0.433-0.247-0.57-0.055-0.16-0.085-0.248-0.214-0.387-0.427-0.461-0.091-1.213-0.028-1.304 0.036-0.051 0.091-0.085 0.153-0.092 0.115-0.013 0.186 0.053 0.315 0.172 0.215 0.198 0.661 0.611 1.419 0.809 0.679 0.177 1.468 0.14 2.165 0.108 0.44-0.021 0.855-0.040 1.183-0 1.073 0.129 3.305 0.399 5.14 2.044 0.878 0.787 1.644 1.774 2.182 2.796 0.014 0.018 0.024 0.038 0.031 0.059 0.13 0.252 0.246 0.506 0.347 0.759 0.344 0.868 0.516 1.727 0.516 2.571zM40.725 10.418c0.281-1.497-0.055-2.954-0.698-4.225-0.179-0.088-0.78-0.343-1.687-0.324-1.070 0.022-1.408 0.207-1.411 0.209-0.095 0.054-0.217 0.023-0.273-0.070s-0.029-0.213 0.063-0.271c0.040-0.025 0.421-0.244 1.612-0.268 0.591-0.012 1.063 0.080 1.396 0.181-0.516-0.862-1.163-1.619-1.831-2.217-0.346-0.311-0.709-0.57-1.075-0.786-0.179 0.073-0.698 0.238-1.568 0.149-1.014-0.104-1.567-0.143-1.572-0.143-0.111-0.008-0.193-0.105-0.186-0.214 0.007-0.111 0.103-0.194 0.214-0.186 0.006 0 0.564 0.039 1.586 0.144 0.446 0.046 0.785 0.018 1.019-0.024-1.312-0.64-2.605-0.796-3.337-0.885-0.295-0.035-0.694-0.017-1.116 0.003-0.725 0.034-1.547 0.073-2.285-0.12-0.789-0.206-1.273-0.613-1.53-0.847-0.049 0.187-0.074 0.45 0.067 0.602 0.186 0.201 0.238 0.353 0.299 0.529 0.057 0.167 0.128 0.374 0.351 0.734 0.206 0.333 0.476 0.341 0.9 0.326 0.28-0.010 0.598-0.021 0.879 0.143 0.491 0.286 0.378 0.634 0.304 0.864-0.040 0.125-0.076 0.233-0.049 0.346 0.087 0.011 0.329-0.063 0.51-0.118 0.415-0.126 0.983-0.299 1.556-0.206 0.32 0.052 0.516 0.148 0.617 0.302 0.117 0.179 0.068 0.37 0.029 0.524-0.052 0.202-0.047 0.241 0.037 0.299 0.321 0.222 0.614 0.284 1.020 0.369 0.171 0.036 0.365 0.077 0.583 0.136 0.341 0.091 0.579 0.266 0.708 0.52 0.196 0.386 0.142 0.941-0.17 1.748-0.263 0.68-0.324 1.299-0.328 1.698 0 0.002 0 0.004 0 0.006 0 0.174 0.081 0.331 0.209 0.504 1.11 1.157 1.736 2.43 1.793 3.685 0.011 0.242 0.002 0.498-0.022 0.757 0.071 0.282 0.289 0.452 0.498 0.521 0.26 0.086 0.624 0.058 0.868-0.281 0.62-0.861 1.155-1.785 1.591-2.748 0.132-0.291 0.237-0.582 0.318-0.872-0.097-0.128-0.567-0.72-1.378-1.266-0.096 0.042-0.675 0.289-1.188 0.319-0.256 0.015-0.585 0.023-0.699-0.019l0.141-0.375c0 0-0.005-0.002-0.017-0.005 0.005 0.001 0.118 0.025 0.551-0 0.269-0.016 0.572-0.106 0.785-0.182-1.057-0.609-1.433-0.699-1.437-0.699-0.107-0.024-0.176-0.13-0.153-0.238s0.127-0.176 0.235-0.155c0.044 0.009 0.46 0.106 1.642 0.794 0.802 0.467 1.347 1.009 1.632 1.334zM36.845 18.072c0.229-0.102 0.784-0.375 1.337-0.849s0.956-1.026 1.116-1.262l-0.604-0.75c-0.211 0.275-0.554 0.715-0.796 0.996-0.639 0.743-1.375 1.279-1.406 1.301-0.013 0.009-0.026 0.017-0.040 0.023-0.031 0.023-0.071 0.052-0.122 0.086l0.514 0.455zM36.804 16.739c0.24-0.211 0.526-0.485 0.791-0.793 0.162-0.188 0.375-0.456 0.561-0.694-0.147 0.009-0.299-0.011-0.448-0.061-0.176-0.059-0.33-0.153-0.453-0.273-0.116 0.69-0.302 1.354-0.45 1.82zM36.222 17.202c0.1-0.274 0.582-1.638 0.709-2.893-0.014-0.078-0.021-0.16-0.019-0.243 0.007-0.387-0.020-0.757-0.083-1.099-0.23-1.256-0.918-2.075-1.33-2.564-0.073-0.086-0.137-0.164-0.192-0.232-0.017-0.022-0.034-0.044-0.051-0.066-0.334-0.346-0.715-0.682-1.139-1.003-1.678-1.271-2.48-1.192-2.865-1.154l-0.056 0.005c-0.1 0.009-0.28 0.065-0.471 0.124-0.497 0.154-1.177 0.365-1.679 0.165-0.464-0.184-0.505-0.652-0.546-1.104-0.029-0.324-0.059-0.66-0.232-0.922-0.372-0.56-1.33-0.278-1.837-0.023-0.2 0.101-0.351 0.225-0.484 0.335-0.228 0.188-0.463 0.382-0.819 0.293-0.227-0.057-0.374-0.214-0.515-0.366-0.18-0.193-0.335-0.359-0.657-0.351-0.319 0.008-0.352 0.098-0.414 0.261-0.041 0.109-0.092 0.246-0.227 0.346-0.239 0.179-0.441 0.077-0.589 0.002-0.106-0.054-0.206-0.104-0.355-0.102-0.188 0.003-0.492 0.293-0.704 0.555 0.239 0.204 0.662 0.679 1.136 1.738 0.27 0.605 0.326 1.061 0.384 1.545 0.091 0.756 0.195 1.614 1.198 3.352 1.179 2.042 2.677 2.908 3.572 3.425 0.115 0.067 0.219 0.127 0.309 0.182 0.072 0.044 0.24 0.125 0.375 0.191 0.098 0.047 0.188 0.091 0.244 0.121 0.837 0.448 1.944 0.639 3.293 0.567-1.011-0.3-2.514-0.912-3.911-2.125-2.342-2.032-3.62-5.981-3.673-6.148-0.033-0.106 0.025-0.218 0.13-0.252s0.218 0.025 0.252 0.13c0.012 0.038 1.174 3.627 3.227 5.663 0.13-0.395 0.391-1.311 0.245-1.948-0.060-0.262-0.117-0.489-0.167-0.688-0.124-0.494-0.214-0.852-0.231-1.272-0-0.003-0-0.005-0-0.008 0-0.107 0.085-0.196 0.193-0.2 0.111-0.004 0.204 0.082 0.208 0.192 0.014 0.361 0.092 0.687 0.202 1.123l0.375-0.39c0.077-0.080 0.204-0.082 0.284-0.006s0.082 0.203 0.006 0.283l-0.55 0.573c0.023 0.096 0.047 0.197 0.072 0.304 0.199 0.872-0.228 2.099-0.315 2.336 0.002 0.002 0.004 0.003 0.005 0.005 0.75 0.651 1.539 1.122 2.259 1.462-0.291-0.534-0.666-1.406-0.389-1.961 0.184-0.369 0.515-0.649 0.836-0.921 0.35-0.297 0.681-0.577 0.806-0.944 0.035-0.105 0.149-0.161 0.254-0.126s0.161 0.149 0.126 0.254c-0.16 0.472-0.549 0.802-0.926 1.121-0.137 0.116-0.27 0.229-0.389 0.345 0.261 0.084 0.754 0.224 1.156 0.229 0.573 0.006 1.385-0.279 1.393-0.282 0.104-0.037 0.219 0.017 0.256 0.121s-0.017 0.219-0.122 0.256c-0.036 0.013-0.887 0.313-1.532 0.306-0.566-0.006-1.25-0.236-1.43-0.3-0.025 0.039-0.048 0.079-0.069 0.12-0.249 0.5 0.391 1.648 0.635 2.011 0.009 0.014 0.017 0.028 0.022 0.043 1.142 0.453 1.988 0.562 2.003 0.564 0.002 0 0.004 0 0.006 0.001 1.816-0.276 2.628-0.829 2.798-0.959zM34.956 9.268c0.011-0.433 0.083-1.073 0.354-1.773 0.261-0.674 0.324-1.152 0.187-1.422-0.076-0.15-0.225-0.253-0.454-0.314-0.208-0.056-0.388-0.094-0.562-0.13-0.417-0.088-0.778-0.164-1.165-0.432-0.327-0.226-0.246-0.54-0.197-0.728 0.021-0.081 0.045-0.173 0.024-0.205-0.009-0.013-0.065-0.080-0.346-0.126-0.481-0.079-0.977 0.072-1.375 0.194-0.369 0.112-0.636 0.194-0.836 0.083-0.061-0.034-0.142-0.103-0.177-0.235-0.061-0.231 0.002-0.425 0.053-0.582 0.071-0.219 0.088-0.271-0.124-0.395-0.18-0.105-0.415-0.097-0.663-0.088-0.381 0.013-0.85 0.030-1.186-0.415-0.264 0.146-1.164 0.675-1.869 1.479-0.742 0.845-1.309 1.968-1.441 2.24 0.015 0.007 0.030 0.012 0.046 0.016 0.146 0.037 0.233-0.022 0.465-0.214 0.142-0.117 0.319-0.263 0.559-0.384 0.777-0.391 1.858-0.584 2.352 0.159 0.23 0.346 0.266 0.751 0.298 1.107 0.038 0.431 0.071 0.679 0.294 0.767 0.37 0.147 0.973-0.040 1.413-0.176 0.221-0.069 0.412-0.128 0.554-0.14l0.052-0.005c0.436-0.043 1.344-0.132 3.148 1.234 0.209 0.159 0.408 0.321 0.597 0.486z"></path>
<path d="M16.225 30.423c0 0.871-3.38 1.577-7.549 1.577s-7.549-0.706-7.549-1.577c0-0.871 3.38-1.577 7.549-1.577s7.549 0.706 7.549 1.577z"></path>
<path d="M41.239 26.817c0 0.871-3.38 1.577-7.549 1.577s-7.549-0.706-7.549-1.577c0-0.871 3.38-1.577 7.549-1.577s7.549 0.706 7.549 1.577z"></path>
</svg>
