<!-- Generated by IcoMoon.io -->
<svg version="1.1" xmlns="http://www.w3.org/2000/svg" width="32" height="32" viewBox="0 0 32 32">
<title>salary</title>
<path d="M15.413 12.95c-0.109-0.039-0.22-0.079-0.331-0.12v-2.017c0.368 0.146 0.626 0.35 0.637 0.358 0.266 0.218 0.658 0.18 0.878-0.085s0.183-0.66-0.083-0.88c-0.037-0.030-0.617-0.502-1.431-0.701v-0.306c0-0.345-0.28-0.625-0.625-0.625s-0.625 0.28-0.625 0.625v0.277c-0.066 0.014-0.133 0.030-0.2 0.050-0.719 0.216-1.237 0.822-1.388 1.62-0.146 0.775 0.107 1.549 0.644 1.97 0.245 0.192 0.544 0.368 0.944 0.552v2.643c-0.283-0.040-0.495-0.136-0.833-0.357-0.289-0.189-0.676-0.108-0.865 0.181s-0.108 0.676 0.181 0.865c0.594 0.388 1.012 0.525 1.518 0.568v0.389c0 0.345 0.28 0.625 0.625 0.625s0.625-0.28 0.625-0.625v-0.448c1.040-0.264 1.706-1.151 1.853-2.027 0.189-1.126-0.422-2.144-1.522-2.532zM13.832 12.254c-0.062-0.040-0.12-0.080-0.172-0.121-0.169-0.132-0.245-0.443-0.187-0.755 0.020-0.105 0.1-0.415 0.359-0.58v1.456zM15.702 15.275c-0.057 0.34-0.268 0.696-0.62 0.898v-2.012c0.678 0.285 0.661 0.869 0.62 1.114z"></path>
<path d="M29.594 13.353l-3.969-2.621v-10.107c0-0.345-0.28-0.625-0.625-0.625h-15c-0.345 0-0.625 0.28-0.625 0.625v2.375h-2.375c-0.345 0-0.625 0.28-0.625 0.625v7.107l-3.969 2.621c-0.175 0.116-0.281 0.312-0.281 0.521v17.5c0 0.345 0.28 0.625 0.625 0.625h10.438c0.345 0 0.625-0.28 0.625-0.625s-0.28-0.625-0.625-0.625h-8.929l9.112-9.112 2.284 1.509c0.104 0.069 0.224 0.103 0.344 0.103s0.24-0.035 0.344-0.103l2.285-1.509 9.112 9.112h-8.929c-0.345 0-0.625 0.28-0.625 0.625s0.28 0.625 0.625 0.625h10.438c0.345 0 0.625-0.28 0.625-0.625v-17.5c0-0.21-0.105-0.406-0.28-0.522zM28.116 13.875l-2.491 1.645v-3.29l2.491 1.645zM10.625 1.25h13.75v15.095l-1.75 1.156v-13.876c0-0.345-0.28-0.625-0.625-0.625h-11.375v-1.75zM6.375 12.23v3.29l-2.491-1.645 2.491-1.645zM3.375 29.866v-14.829l8.931 5.898-8.931 8.931zM16 21.876l-8.375-5.531v-12.095h13.75v14.077l-5.375 3.55zM28.625 15.037v14.829l-8.931-8.931 8.931-5.898z"></path>
<path d="M16 30.75c-0.164 0-0.326 0.067-0.442 0.183s-0.183 0.277-0.183 0.442c0 0.164 0.067 0.326 0.183 0.442s0.277 0.183 0.442 0.183 0.326-0.067 0.442-0.183c0.116-0.116 0.183-0.277 0.183-0.442s-0.067-0.326-0.183-0.442c-0.116-0.116-0.277-0.183-0.442-0.183z"></path>
</svg>
