<!-- Generated by IcoMoon.io -->
<svg version="1.1" xmlns="http://www.w3.org/2000/svg" width="918" height="1024" viewBox="0 0 918 1024">
<title></title>
<g id="icomoon-ignore">
</g>
<path fill="#dfe2eb" d="M8.828 841.503c-0.002-17.54 3.795-34.754 11.384-51.509 8.751-19.328 19.501-37.888 31.947-55.172 0.544-0.755 1.122-1.465 1.733-2.141l-14.965-18.586c-1.041-1.289-1.157-3.094-0.289-4.506 0.395-0.644 9.844-15.934 24.954-28.875 15.161-12.985 30.052-18.675 30.676-18.913 1.363-0.512 2.901-0.23 3.99 0.733l12.924 11.423c0.316 0.282 0.576 0.6 0.778 0.94 11.372-5.839 32.531-13.678 67.37-16.508 30.851-2.503 56.149 1.404 75.192 11.599 1.020 0.543 2.687 1.351 4.488 2.225 3.084 1.496 6.276 3.037 8.019 4.105 1.717 1.050 3.695 2.189 5.887 3.456 17.022 9.834 48.702 28.138 72.845 69.954 20.459 35.438 22.587 53.076 24.465 68.63 1.116 9.256 2.082 17.245 6.899 28.001 12.25 27.366 22.274 32.834 22.374 32.887 0.998 0.521 1.76 1.461 2.031 2.556 0.275 1.086 0.096 2.264-0.544 3.191-1.984 2.865-12.387 17.174-22.441 17.329-4.874 0.079-8.209-1.611-10.641-2.847-2.496-1.262-2.556-1.218-3.269-0.684-0.762 0.574-1.182 1.615-1.805 3.271-1.487 3.955-3.73 9.922-15.273 10.2-9.193 0.221-14.327-4.626-18.049-8.572-3.893 7.799-14.517 27.798-28.433 43.661-8.989 10.244-19.499 18.282-26.728 23.221-5.516 3.769-9.154 6.038-11.645 7.336 2.741 5.054 3.917 8.492 4.833 11.162 1.073 3.129 1.666 4.86 4.182 7.57 8.37 9.017 1.792 23.755 0.558 25.538-0.696 1.006-1.792 1.66-3.004 1.792-2.251 0.252-3.644-1.037-6.172-3.372-4.204-3.88-12.951-11.957-27.795-15.837-13.301-3.474-28.759-2.75-42.394-2.11-8.61 0.406-16.741 0.786-23.168 0.013-21.011-2.534-64.737-7.808-100.68-40.038-17.189-15.413-32.203-34.754-42.728-54.758-0.265-0.349-0.464-0.742-0.599-1.148-2.552-4.939-4.827-9.909-6.793-14.866-6.744-17.002-10.113-33.823-10.113-50.353zM18.893 819.955c-5.496 29.321 1.088 57.865 13.674 82.745 3.514 1.721 15.274 6.713 33.053 6.343 20.953-0.437 27.571-4.065 27.633-4.1 1.856-1.055 4.255-0.455 5.351 1.373 1.098 1.832 0.564 4.184-1.243 5.319-0.776 0.486-8.249 4.771-31.576 5.257-11.573 0.238-20.825-1.571-27.339-3.535 10.103 16.887 22.787 31.709 35.858 43.432 6.785 6.082 13.883 11.158 21.063 15.4 3.514-1.434 13.669-4.67 30.718-2.913 19.856 2.044 30.684 2.798 30.79 2.803 2.165 0.15 3.778 2.052 3.65 4.184-0.147 2.163-2.023 3.796-4.188 3.646-0.11-0.009-11.049-0.768-31.059-2.825-8.746-0.9-15.383-0.358-19.955 0.463 25.685 12.548 51.018 15.598 65.356 17.329 5.773 0.693 13.586 0.331 21.856-0.057 14.201-0.666 30.294-1.421 44.751 2.357 15.458 4.039 24.933 11.997 29.973 16.591 0.953-3.655 1.457-8.81-1.31-11.789-3.65-3.933-4.671-6.912-5.854-10.364-1.116-3.266-2.507-7.322-6.878-14.385-4.035-6.515-9.323-6.674-17.621-6.387-5.489 0.194-11.71 0.406-17.208-2.794-9.616-5.601-7.406-12.416-5.954-16.927 0.79-2.441 1.477-4.564 0.963-6.775-1.697-0.207-6.455 1.24-9.991 2.317-8.127 2.476-19.255 5.866-30.488 4.030-6.274-1.024-10.113-2.904-12.079-5.919-2.298-3.513-1.338-7.252-0.56-10.258 1.017-3.95 0.925-4.718-0.723-5.853-6.29-4.343-12.032-5.553-19.978-7.234-3.349-0.706-7.146-1.514-11.417-2.653-6.671-1.783-11.337-5.208-13.867-10.178-3.846-7.556-2.787-18.436 3.332-34.233 5.157-13.312 6.343-25.432 6.428-33.254 0-0.040 0-0.079 0-0.124 0-3.407-1.595-6.488-4.086-9.874-21.738-22.652-34.004-47.598-35.117-72.183-0.215-4.749-0.038-9.754 0.43-14.822-1.389-5.522-5.663-8.85-9.747-10.209-5.084-1.686-12.219-1.13-16.996 5.508-12.144 16.861-22.632 34.966-31.167 53.822-2.579 5.698-4.642 11.401-6.229 17.081 1.894 2.507 11.101 14.102 26.985 24.792 1.874-0.825 13.214-5.654 23.258-6.237 5.009-0.291 11.451-0.459 13.692 0.38l-2.766 7.345c0 0 0.088 0.049 0.324 0.106-0.090-0.022-2.312-0.49-10.793 0.004-5.272 0.305-11.207 2.074-15.369 3.558 20.703 11.93 28.079 13.683 28.154 13.7 2.098 0.472 3.442 2.551 2.994 4.652-0.45 2.101-2.491 3.456-4.599 3.028-0.855-0.172-9.011-2.074-32.158-15.559-15.698-9.141-26.388-19.769-31.971-26.125zM94.901 670.049c-4.489 1.995-15.364 7.349-26.195 16.627-10.826 9.269-18.721 20.096-21.866 24.726l11.824 14.685c4.133-5.38 10.854-14.009 15.593-19.518 12.519-14.561 26.932-25.048 27.541-25.49 0.249-0.181 0.513-0.327 0.782-0.441 0.601-0.455 1.395-1.024 2.395-1.686l-10.074-8.903zM95.708 696.157c-4.695 4.136-10.307 9.494-15.492 15.523-3.172 3.69-7.352 8.938-10.983 13.59 2.884-0.172 5.852 0.212 8.785 1.183 3.457 1.152 6.459 2.997 8.881 5.358 2.269-13.524 5.914-26.514 8.808-35.655zM107.099 687.078c-1.968 5.372-11.397 32.084-13.877 56.664 0.281 1.532 0.407 3.125 0.379 4.749-0.137 7.583 0.401 14.83 1.625 21.526 4.503 24.607 17.988 40.638 26.046 50.22 1.422 1.686 2.691 3.2 3.75 4.546 0.334 0.428 0.666 0.861 0.994 1.293 6.549 6.775 14.005 13.356 22.316 19.655 32.859 24.898 48.572 23.349 56.121 22.603l1.098-0.106c1.953-0.172 5.491-1.267 9.233-2.428 9.732-3.015 23.059-7.137 32.892-3.24 9.076 3.597 9.893 12.76 10.682 21.623 0.566 6.356 1.153 12.928 4.554 18.048 7.29 10.977 26.046 5.447 35.976 0.45 3.925-1.977 6.877-4.414 9.48-6.559 4.461-3.686 9.076-7.49 16.034-5.747 4.446 1.112 7.318 4.189 10.095 7.159 3.524 3.774 6.569 7.031 12.865 6.881 6.241-0.154 6.903-1.916 8.107-5.116 0.806-2.145 1.809-4.811 4.442-6.784 4.683-3.518 8.648-1.51 11.543-0.044 2.074 1.055 4.035 2.048 6.964 1.999 3.679-0.053 9.643-5.738 13.782-10.862-4.675-3.986-12.967-13.308-22.253-34.048-5.3-11.838-6.38-20.789-7.524-30.261-1.788-14.817-3.813-31.603-23.471-65.655-23.092-39.998-52.436-56.951-69.972-67.076-2.253-1.302-4.288-2.481-6.054-3.558-1.416-0.865-4.705-2.458-7.345-3.734-1.917-0.931-3.689-1.792-4.776-2.37-16.395-8.783-38.070-12.513-64.501-11.118 19.803 5.875 49.248 17.871 76.61 41.618 45.871 39.804 70.902 117.133 71.945 120.408 0.652 2.070-0.487 4.273-2.554 4.926-2.067 0.658-4.277-0.481-4.935-2.547-0.237-0.742-22.999-71.040-63.213-110.919-2.548 7.729-7.653 25.675-4.795 38.157 1.173 5.129 2.287 9.565 3.271 13.48 2.436 9.684 4.196 16.68 4.516 24.916 0.004 0.049 0.004 0.106 0.004 0.154 0 2.097-1.66 3.836-3.776 3.919-2.169 0.084-3.996-1.602-4.078-3.769-0.277-7.066-1.809-13.444-3.957-21.998l-7.347 7.645c-1.505 1.562-3.99 1.615-5.555 0.115-1.566-1.505-1.617-3.986-0.116-5.548l10.779-11.215c-0.454-1.876-0.926-3.858-1.404-5.959-3.894-17.073 4.459-41.114 6.168-45.749-0.036-0.031-0.073-0.062-0.108-0.093-14.684-12.743-30.136-21.981-44.239-28.641 5.699 10.461 13.054 27.542 7.62 38.413-3.607 7.221-10.097 12.716-16.373 18.030-6.862 5.813-13.342 11.299-15.778 18.489-0.696 2.052-2.925 3.151-4.982 2.458-2.055-0.693-3.159-2.918-2.462-4.974 3.136-9.251 10.763-15.709 18.14-21.959 2.679-2.269 5.292-4.48 7.62-6.758-5.104-1.646-14.759-4.392-22.642-4.48-11.225-0.128-27.119 5.473-27.278 5.526-2.045 0.728-4.292-0.34-5.019-2.379-0.731-2.039 0.338-4.286 2.383-5.014 0.701-0.252 17.364-6.126 30.001-5.985 11.095 0.124 24.479 4.626 28.011 5.888 0.497-0.768 0.947-1.545 1.348-2.344 4.887-9.794-7.653-32.287-12.435-39.393-0.181-0.269-0.324-0.552-0.43-0.843-22.361-8.863-38.942-11.017-39.233-11.052-0.038-0.009-0.073-0.013-0.11-0.018-35.562 5.411-51.47 16.234-54.802 18.781zM131.893 842.47c-0.207 8.483-1.626 21.018-6.935 34.728-5.113 13.197-6.341 22.568-3.654 27.842 1.495 2.94 4.404 4.952 8.893 6.157 4.066 1.086 7.597 1.832 11.008 2.551 8.172 1.73 15.23 3.222 22.817 8.457 6.408 4.423 4.817 10.584 3.866 14.265-0.409 1.593-0.876 3.399-0.467 4.017 0.165 0.252 1.269 1.562 6.769 2.463 9.423 1.54 19.128-1.417 26.924-3.796 7.235-2.202 12.462-3.796 16.365-1.62 1.202 0.671 2.782 2.013 3.465 4.608 1.189 4.515-0.041 8.324-1.031 11.392-1.383 4.29-1.721 5.314 2.436 7.737 3.536 2.057 8.121 1.898 12.975 1.73 7.471-0.26 16.648-0.578 23.233 8.135 5.17-2.851 22.797-13.224 36.605-28.959 14.529-16.561 25.636-38.541 28.232-43.878-0.294-0.128-0.595-0.234-0.902-0.313-2.862-0.715-4.571 0.437-9.117 4.189-2.778 2.291-6.237 5.146-10.948 7.517-15.211 7.654-36.401 11.432-46.064-3.116-4.503-6.784-5.208-14.707-5.832-21.694-0.753-8.439-1.391-13.294-5.756-15.025-7.256-2.878-19.053 0.777-27.667 3.443-4.332 1.342-8.074 2.498-10.854 2.75l-1.029 0.097c-8.549 0.843-26.333 2.595-61.645-24.161-4.094-3.107-7.993-6.281-11.69-9.516z"></path>
<path fill="#dfe2eb" d="M183.849 392.828c-17.54 0.002-34.753-3.795-51.511-11.384-19.326-8.752-37.888-19.501-55.17-31.947-0.756-0.544-1.468-1.122-2.141-1.733l-18.59 14.965c-1.289 1.041-3.094 1.157-4.507 0.289-0.644-0.395-15.93-9.844-28.871-24.954-12.987-15.161-18.678-30.052-18.914-30.676-0.514-1.363-0.232-2.901 0.732-3.99l11.425-12.924c0.281-0.316 0.598-0.576 0.94-0.778-5.841-11.372-13.681-32.531-16.508-67.37-2.502-30.851 1.401-56.149 11.597-75.192 0.545-1.020 1.352-2.687 2.225-4.488 1.495-3.084 3.039-6.276 4.105-8.019 1.050-1.717 2.192-3.695 3.459-5.887 9.834-17.022 28.135-48.702 69.952-72.845 35.44-20.459 53.075-22.587 68.631-24.465 9.255-1.116 17.244-2.082 28-6.899 27.366-12.25 32.832-22.275 32.885-22.375 0.522-0.998 1.464-1.76 2.556-2.031 1.087-0.275 2.264-0.096 3.19 0.544 2.867 1.984 17.178 12.388 17.333 22.442 0.077 4.874-1.613 8.209-2.847 10.641-1.265 2.497-1.22 2.556-0.687 3.269 0.573 0.762 1.617 1.183 3.273 1.805 3.952 1.487 9.922 3.73 10.199 15.273 0.222 9.193-4.627 14.327-8.572 18.049 7.799 3.893 27.798 14.517 43.661 28.433 10.248 8.989 18.284 19.499 23.224 26.728 3.767 5.516 6.037 9.154 7.334 11.645 5.054-2.741 8.489-3.917 11.16-4.833 3.133-1.073 4.86-1.666 7.571-4.182 9.020-8.37 23.756-1.792 25.538-0.558 1.006 0.696 1.66 1.792 1.793 3.004 0.249 2.251-1.036 3.644-3.371 6.172-3.883 4.204-11.959 12.951-15.838 27.795-3.475 13.301-2.749 28.759-2.109 42.394 0.404 8.61 0.785 16.741 0.010 23.168-2.533 21.011-7.805 64.737-40.035 100.68-15.412 17.189-34.753 32.203-54.76 42.728-0.349 0.265-0.738 0.464-1.148 0.599-4.936 2.552-9.906 4.826-14.864 6.793-17.001 6.744-33.823 10.113-50.351 10.113zM162.3 382.762c29.318 5.496 57.864-1.088 82.744-13.674 1.724-3.514 6.716-15.273 6.343-33.053-0.436-20.953-4.063-27.571-4.1-27.633-1.054-1.856-0.456-4.255 1.375-5.351 1.83-1.098 4.181-0.564 5.315 1.243 0.486 0.776 4.771 8.249 5.258 31.576 0.239 11.573-1.572 20.825-3.536 27.339 16.887-10.103 31.708-22.787 43.431-35.858 6.084-6.785 11.158-13.883 15.402-21.063-1.436-3.514-4.669-13.669-2.914-30.718 2.044-19.856 2.796-30.684 2.804-30.79 0.147-2.165 2.052-3.778 4.183-3.65 2.164 0.147 3.797 2.023 3.645 4.188-0.008 0.11-0.767 11.050-2.825 31.059-0.899 8.746-0.359 15.383 0.465 19.955 12.545-25.685 15.598-51.018 17.326-65.356 0.695-5.773 0.33-13.586-0.057-21.856-0.667-14.201-1.422-30.294 2.357-44.751 4.040-15.458 11.998-24.933 16.593-29.973-3.655-0.953-8.811-1.457-11.79 1.31-3.934 3.65-6.914 4.671-10.365 5.854-3.263 1.116-7.32 2.507-14.381 6.878-6.518 4.035-6.673 9.323-6.386 17.621 0.192 5.489 0.406 11.71-2.796 17.208-5.599 9.616-12.417 7.406-16.926 5.954-2.441-0.79-4.564-1.477-6.777-0.963-0.208 1.697 1.242 6.455 2.319 9.991 2.476 8.127 5.865 19.255 4.030 30.488-1.026 6.274-2.906 10.113-5.918 12.079-3.514 2.298-7.255 1.338-10.259 0.56-3.949-1.017-4.719-0.925-5.853 0.723-4.342 6.29-5.554 12.032-7.234 19.978-0.708 3.349-1.513 7.146-2.654 11.417-1.784 6.671-5.207 11.336-10.179 13.867-7.554 3.846-18.433 2.787-34.229-3.332-13.314-5.157-25.434-6.343-33.254-6.428-0.041 0-0.083 0-0.124 0-3.41 0-6.488 1.595-9.875 4.086-22.653 21.738-47.6 34.004-72.184 35.118-4.75 0.215-9.753 0.038-14.819-0.43-5.523 1.389-8.853 5.663-10.209 9.747-1.689 5.084-1.132 12.219 5.506 16.996 16.862 12.144 34.969 22.632 53.822 31.167 5.698 2.579 11.401 4.642 17.083 6.229 2.506-1.894 14.099-11.101 24.792-26.985-0.826-1.874-5.655-13.214-6.239-23.258-0.29-5.010-0.459-11.451 0.381-13.692l7.345 2.766c0 0 0.049-0.088 0.104-0.324-0.022 0.090-0.489 2.312 0.006 10.793 0.306 5.272 2.076 11.207 3.557 15.369 11.929-20.703 13.683-28.079 13.699-28.154 0.473-2.098 2.554-3.442 4.654-2.994 2.101 0.45 3.455 2.491 3.027 4.599-0.173 0.855-2.076 9.011-15.557 32.158-9.143 15.698-19.771 26.388-26.126 31.971zM12.392 306.755c1.995 4.489 7.35 15.364 16.628 26.195 9.271 10.826 20.095 18.721 24.725 21.866l14.686-11.824c-5.378-4.133-14.008-10.854-19.516-15.593-14.562-12.519-25.051-26.932-25.491-27.541-0.18-0.249-0.326-0.513-0.441-0.782-0.453-0.601-1.024-1.395-1.685-2.395l-8.906 10.074zM38.501 305.947c4.136 4.695 9.496 10.307 15.526 15.492 3.689 3.172 8.939 7.352 13.587 10.983-0.169-2.884 0.212-5.852 1.187-8.785 1.148-3.457 2.994-6.459 5.354-8.881-13.52-2.269-26.513-5.914-35.654-8.808zM29.42 294.556c5.374 1.968 32.087 11.397 56.665 13.877 1.532-0.281 3.128-0.407 4.75-0.379 7.581 0.137 14.831-0.401 21.527-1.625 24.606-4.503 40.639-17.988 50.217-26.046 1.687-1.422 3.202-2.691 4.55-3.75 0.425-0.334 0.857-0.666 1.293-0.994 6.775-6.549 13.353-14.005 19.652-22.316 24.898-32.859 23.35-48.572 22.607-56.121l-0.106-1.098c-0.175-1.953-1.27-5.491-2.429-9.233-3.013-9.732-7.14-23.059-3.241-32.892 3.598-9.076 12.763-9.893 21.623-10.682 6.355-0.566 12.928-1.153 18.051-4.554 10.978-7.29 5.445-26.046 0.448-35.976-1.976-3.925-4.411-6.877-6.559-9.48-3.682-4.461-7.489-9.076-5.747-16.034 1.113-4.446 4.189-7.318 7.161-10.095 3.771-3.524 7.030-6.569 6.879-12.865-0.151-6.241-1.915-6.903-5.113-8.107-2.145-0.806-4.813-1.809-6.787-4.442-3.516-4.683-1.507-8.647-0.041-11.543 1.051-2.074 2.044-4.035 1.999-6.964-0.055-3.679-5.741-9.643-10.861-13.782-3.987 4.675-13.308 12.967-34.049 22.253-11.841 5.3-20.789 6.38-30.264 7.524-14.813 1.788-31.602 3.813-65.653 23.471-39.998 23.092-56.95 52.436-67.077 69.972-1.303 2.253-2.48 4.288-3.557 6.054-0.865 1.416-2.458 4.705-3.736 7.345-0.93 1.917-1.789 3.689-2.37 4.776-8.782 16.395-12.512 38.070-11.115 64.501 5.874-19.803 17.87-49.248 41.615-76.61 39.803-45.871 117.136-70.902 120.409-71.945 2.072-0.652 4.273 0.487 4.928 2.554 0.657 2.067-0.482 4.277-2.547 4.935-0.743 0.237-71.040 22.999-110.919 63.213 7.729 2.548 25.675 7.653 38.154 4.795 5.132-1.173 9.569-2.287 13.481-3.271 9.684-2.436 16.681-4.196 24.915-4.516 0.051-0.004 0.106-0.004 0.155-0.004 2.097 0 3.838 1.66 3.918 3.776 0.084 2.169-1.601 3.996-3.767 4.078-7.067 0.277-13.445 1.809-22 3.957l7.646 7.347c1.564 1.505 1.615 3.99 0.116 5.555-1.505 1.566-3.985 1.617-5.549 0.116l-11.217-10.779c-1.874 0.454-3.855 0.926-5.957 1.404-17.073 3.894-41.118-4.459-45.75-6.168-0.031 0.036-0.063 0.073-0.094 0.108-12.742 14.684-21.981 30.136-28.64 44.239 10.461-5.699 27.543-13.054 38.415-7.62 7.22 3.607 12.713 10.097 18.031 16.373 5.809 6.862 11.297 13.342 18.488 15.778 2.052 0.696 3.153 2.925 2.458 4.982-0.695 2.055-2.918 3.159-4.976 2.461-9.251-3.135-15.71-10.763-21.957-18.139-2.268-2.679-4.481-5.292-6.759-7.62-1.646 5.104-4.391 14.759-4.479 22.642-0.126 11.225 5.472 27.119 5.527 27.278 0.726 2.045-0.339 4.292-2.38 5.019-2.040 0.731-4.287-0.338-5.013-2.383-0.251-0.701-6.125-17.364-5.984-30.001 0.124-11.095 4.625-24.479 5.884-28.011-0.765-0.497-1.544-0.947-2.342-1.348-9.795-4.887-32.285 7.653-39.393 12.435-0.269 0.181-0.551 0.324-0.844 0.43-8.862 22.361-11.017 38.942-11.052 39.233-0.006 0.038-0.010 0.073-0.016 0.11 5.411 35.562 16.232 51.47 18.778 54.802zM184.816 269.763c8.48 0.206 21.019 1.626 34.726 6.935 13.199 5.113 22.569 6.341 27.843 3.654 2.941-1.495 4.952-4.404 6.155-8.893 1.087-4.066 1.835-7.597 2.555-11.008 1.728-8.172 3.22-15.23 8.456-22.817 4.42-6.408 10.585-4.817 14.266-3.866 1.593 0.408 3.396 0.876 4.014 0.467 0.253-0.165 1.562-1.269 2.462-6.769 1.54-9.423-1.416-19.128-3.792-26.924-2.203-7.235-3.797-12.462-1.623-16.365 0.671-1.202 2.013-2.782 4.608-3.465 4.515-1.189 8.327 0.041 11.392 1.031 4.291 1.383 5.315 1.721 7.736-2.436 2.058-3.536 1.901-8.121 1.732-12.975-0.259-7.471-0.579-16.648 8.136-23.233-2.853-5.17-13.226-22.797-28.962-36.605-16.559-14.529-38.542-25.636-43.876-28.232-0.13 0.294-0.236 0.595-0.312 0.902-0.716 2.862 0.436 4.571 4.185 9.117 2.294 2.778 5.146 6.237 7.518 10.948 7.654 15.211 11.431 36.401-3.117 46.064-6.783 4.503-14.703 5.208-21.692 5.832-8.439 0.753-13.295 1.391-15.025 5.756-2.879 7.256 0.775 19.053 3.441 27.667 1.342 4.332 2.5 8.074 2.751 10.854l0.098 1.029c0.843 8.549 2.594 26.333-24.162 61.645-3.106 4.094-6.28 7.993-9.513 11.69z"></path>
<path fill="#dfe2eb" d="M918.069 460.566c0 17.54-3.796 34.754-11.383 51.509-8.753 19.328-19.5 37.888-31.947 55.172-0.543 0.755-1.121 1.465-1.735 2.141l14.967 18.586c1.042 1.289 1.156 3.094 0.287 4.506-0.393 0.644-9.843 15.934-24.951 28.875-15.161 12.985-30.054 18.675-30.68 18.913-1.359 0.512-2.9 0.23-3.99-0.733l-12.924-11.423c-0.313-0.282-0.574-0.6-0.777-0.94-11.37 5.839-32.53 13.678-67.368 16.508-30.852 2.503-56.152-1.404-75.193-11.599-1.020-0.543-2.688-1.351-4.489-2.225-3.085-1.496-6.276-3.037-8.020-4.105-1.717-1.050-3.694-2.189-5.888-3.456-17.020-9.834-48.702-28.138-72.841-69.954-20.462-35.438-22.59-53.076-24.466-68.63-1.117-9.256-2.083-17.245-6.899-28.001-12.253-27.366-22.276-32.832-22.378-32.885-0.998-0.522-1.757-1.464-2.030-2.556-0.274-1.087-0.097-2.264 0.547-3.19 1.982-2.867 12.385-17.178 22.44-17.333 4.873-0.077 8.21 1.613 10.642 2.847 2.498 1.265 2.556 1.22 3.266 0.687 0.764-0.573 1.183-1.617 1.805-3.273 1.487-3.952 3.734-9.922 15.276-10.199 9.194-0.222 14.327 4.627 18.048 8.572 3.893-7.799 14.517-27.798 28.434-43.661 8.991-10.248 19.5-18.284 26.726-23.224 5.517-3.767 9.154-6.037 11.648-7.334-2.741-5.054-3.919-8.489-4.833-11.16-1.073-3.133-1.664-4.86-4.184-7.571-8.369-9.020-1.792-23.756-0.556-25.538 0.697-1.006 1.792-1.66 3.001-1.793 2.255-0.249 3.646 1.036 6.175 3.371 4.202 3.883 12.95 11.959 27.794 15.838 13.303 3.475 28.76 2.749 42.394 2.109 8.611-0.404 16.742-0.785 23.168-0.010 21.010 2.533 64.737 7.805 100.679 40.035 17.192 15.412 32.203 34.753 42.73 54.76 0.265 0.349 0.463 0.738 0.6 1.148 2.551 4.936 4.824 9.906 6.793 14.864 6.744 17.001 10.112 33.822 10.112 50.352zM908.001 482.114c5.5-29.321-1.086-57.864-13.674-82.744-3.513-1.724-15.272-6.716-33.050-6.343-20.952 0.436-27.573 4.063-27.635 4.1-1.858 1.054-4.255 0.456-5.35-1.375-1.099-1.83-0.565-4.181 1.24-5.315 0.777-0.486 8.249-4.771 31.576-5.258 11.573-0.239 20.829 1.572 27.339 3.535-10.103-16.887-22.784-31.708-35.858-43.431-6.784-6.084-13.881-11.158-21.063-15.402-3.513 1.436-13.67 4.669-30.716 2.914-19.858-2.044-30.685-2.796-30.791-2.804-2.167-0.147-3.778-2.052-3.65-4.183 0.146-2.164 2.022-3.797 4.189-3.645 0.11 0.008 11.048 0.767 31.060 2.825 8.744 0.899 15.382 0.359 19.955-0.465-25.688-12.545-51.019-15.598-65.359-17.326-5.773-0.695-13.586-0.33-21.853 0.057-14.204 0.667-30.296 1.422-44.751-2.357-15.462-4.040-24.934-11.998-29.974-16.593-0.953 3.655-1.457 8.811 1.311 11.79 3.65 3.934 4.67 6.914 5.853 10.365 1.117 3.263 2.507 7.32 6.877 14.381 4.034 6.518 9.322 6.673 17.62 6.386 5.491-0.192 11.71-0.406 17.209 2.796 9.618 5.599 7.406 12.417 5.954 16.926-0.79 2.441-1.479 4.564-0.962 6.777 1.699 0.208 6.453-1.242 9.993-2.319 8.126-2.476 19.253-5.865 30.486-4.030 6.276 1.026 10.112 2.906 12.081 5.918 2.295 3.514 1.337 7.255 0.561 10.259-1.020 3.949-0.927 4.719 0.719 5.853 6.29 4.342 12.032 5.554 19.981 7.234 3.346 0.708 7.146 1.513 11.414 2.655 6.674 1.783 11.339 5.207 13.868 10.179 3.844 7.554 2.79 18.433-3.332 34.229-5.155 13.314-6.343 25.434-6.426 33.256 0 0.040 0 0.079 0 0.124 0 3.407 1.593 6.488 4.087 9.874 21.738 22.652 34.004 47.598 35.116 72.183 0.216 4.749 0.040 9.754-0.428 14.822 1.386 5.522 5.663 8.85 9.746 10.209 5.085 1.686 12.217 1.13 16.998-5.508 12.142-16.861 22.63-34.966 31.166-53.822 2.578-5.698 4.643-11.401 6.228-17.081-1.894-2.507-11.101-14.102-26.982-24.792-1.876 0.825-13.215 5.654-23.261 6.237-5.010 0.291-11.449 0.459-13.692-0.38l2.767-7.345c0 0-0.093-0.049-0.327-0.106 0.093 0.022 2.313 0.49 10.792-0.004 5.274-0.305 11.207-2.074 15.369-3.558-20.701-11.93-28.076-13.683-28.151-13.7-2.101-0.472-3.443-2.551-2.993-4.652 0.446-2.101 2.489-3.455 4.595-3.027 0.856 0.173 9.013 2.074 32.159 15.558 15.7 9.141 26.39 19.769 31.969 26.125zM831.996 632.020c4.489-1.995 15.364-7.349 26.196-16.627 10.827-9.269 18.719-20.096 21.866-24.726l-11.825-14.685c-4.131 5.38-10.854 14.009-15.594 19.518-12.518 14.561-26.933 25.048-27.542 25.49-0.247 0.181-0.512 0.327-0.781 0.441-0.6 0.455-1.395 1.024-2.392 1.686l10.072 8.903zM831.188 605.912c4.696-4.136 10.306-9.494 15.492-15.523 3.174-3.69 7.353-8.938 10.982-13.59-2.882 0.172-5.853-0.212-8.783-1.183-3.456-1.152-6.457-2.997-8.881-5.358-2.269 13.524-5.914 26.514-8.81 35.655zM819.796 614.991c1.969-5.372 11.401-32.084 13.877-56.664-0.278-1.532-0.406-3.125-0.38-4.749 0.137-7.583-0.402-14.83-1.624-21.526-4.502-24.607-17.986-40.638-26.046-50.22-1.421-1.686-2.692-3.2-3.752-4.546-0.331-0.428-0.662-0.861-0.993-1.293-6.55-6.775-14.005-13.356-22.316-19.655-32.856-24.897-48.569-23.349-56.121-22.605l-1.095 0.106c-1.955 0.175-5.491 1.27-9.234 2.429-9.732 3.013-23.058 7.138-32.892 3.241-9.079-3.598-9.896-12.763-10.686-21.623-0.565-6.355-1.152-12.928-4.551-18.051-7.292-10.978-26.046-5.445-35.977-0.448-3.924 1.976-6.877 4.411-9.481 6.559-4.462 3.682-9.075 7.489-16.035 5.747-4.445-1.113-7.318-4.189-10.094-7.161-3.522-3.771-6.568-7.030-12.866-6.879-6.241 0.151-6.903 1.915-8.104 5.113-0.808 2.145-1.81 4.813-4.445 6.787-4.683 3.516-8.647 1.507-11.542 0.041-2.074-1.051-4.034-2.044-6.965-1.999-3.677 0.055-9.64 5.741-13.78 10.861 4.674 3.987 12.968 13.308 22.254 34.050 5.297 11.838 6.378 20.789 7.521 30.261 1.788 14.817 3.814 31.603 23.473 65.655 23.089 39.998 52.436 56.951 69.972 67.076 2.251 1.302 4.286 2.481 6.056 3.558 1.417 0.865 4.705 2.458 7.345 3.734 1.916 0.931 3.69 1.792 4.776 2.37 16.393 8.783 38.069 12.513 64.499 11.118-19.8-5.875-49.245-17.871-76.61-41.618-45.868-39.804-70.899-117.133-71.945-120.408-0.649-2.070 0.49-4.273 2.556-4.926 2.066-0.658 4.277 0.481 4.935 2.547 0.238 0.742 23 71.040 63.214 110.919 2.547-7.729 7.654-25.675 4.793-38.157-1.174-5.129-2.286-9.565-3.271-13.48-2.436-9.684-4.198-16.68-4.515-24.916-0.004-0.049-0.004-0.106-0.004-0.154 0-2.097 1.66-3.836 3.774-3.919 2.172-0.084 3.999 1.602 4.078 3.769 0.278 7.066 1.81 13.444 3.959 21.998l7.345-7.645c1.505-1.562 3.99-1.615 5.557-0.115 1.562 1.505 1.615 3.986 0.115 5.548l-10.778 11.215c0.455 1.876 0.927 3.858 1.404 5.959 3.893 17.073-4.458 41.114-6.166 45.749 0.035 0.031 0.071 0.062 0.106 0.093 14.685 12.743 30.137 21.981 44.239 28.641-5.698-10.461-13.052-27.542-7.618-38.413 3.606-7.221 10.094-12.716 16.371-18.030 6.863-5.813 13.343-11.299 15.779-18.489 0.693-2.052 2.926-3.151 4.983-2.458 2.052 0.693 3.156 2.918 2.458 4.974-3.134 9.251-10.761 15.709-18.136 21.959-2.684 2.269-5.292 4.48-7.623 6.758 5.102 1.646 14.76 4.392 22.643 4.48 11.224 0.124 27.118-5.473 27.277-5.526 2.044-0.728 4.295 0.34 5.018 2.379 0.733 2.039-0.335 4.286-2.383 5.014-0.702 0.252-17.364 6.126-30.001 5.985-11.092-0.124-24.479-4.626-28.010-5.888-0.494 0.768-0.945 1.545-1.346 2.344-4.886 9.794 7.654 32.287 12.434 39.393 0.181 0.269 0.327 0.552 0.433 0.843 22.36 8.863 38.943 11.017 39.23 11.052 0.040 0.009 0.075 0.013 0.11 0.018 35.562-5.411 51.469-16.234 54.802-18.781zM795.004 459.599c0.207-8.483 1.629-21.021 6.934-34.727 5.116-13.199 6.343-22.569 3.655-27.843-1.496-2.941-4.405-4.952-8.894-6.155-4.065-1.087-7.596-1.835-11.008-2.555-8.17-1.728-15.232-3.22-22.815-8.456-6.409-4.42-4.82-10.585-3.866-14.266 0.406-1.593 0.874-3.396 0.468-4.014-0.168-0.253-1.271-1.562-6.771-2.462-9.423-1.54-19.129 1.416-26.924 3.792-7.234 2.203-12.465 3.797-16.366 1.623-1.201-0.671-2.781-2.013-3.465-4.608-1.187-4.515 0.040-8.327 1.033-11.392 1.382-4.291 1.721-5.315-2.436-7.736-3.535-2.058-8.121-1.901-12.977-1.732-7.468 0.259-16.649 0.579-23.234-8.136-5.169 2.853-22.797 13.226-36.604 28.962-14.53 16.559-25.635 38.542-28.231 43.876 0.291 0.13 0.596 0.236 0.9 0.312 2.86 0.716 4.573-0.436 9.114-4.185 2.781-2.294 6.241-5.146 10.951-7.518 15.21-7.654 36.401-11.431 46.062 3.117 4.502 6.783 5.208 14.703 5.835 21.692 0.75 8.439 1.39 13.295 5.756 15.025 7.256 2.878 19.050-0.775 27.666-3.441 4.33-1.342 8.073-2.5 10.854-2.751l1.028-0.098c8.55-0.843 26.333-2.594 61.647 24.162 4.092 3.107 7.993 6.281 11.688 9.516z"></path>
</svg>
